<svg width="26" height="26" viewBox="0 0 26 26" fill="none" xmlns="http://www.w3.org/2000/svg">
<path fill-rule="evenodd" clip-rule="evenodd" d="M19.6517 12.9997C19.6517 13.478 20.0484 13.8747 20.5267 13.8747L20.5151 13.8864C20.9934 13.8864 21.3901 13.4897 21.3901 13.0114V11.4947C22.2884 11.3664 23 10.6547 23.1284 9.76806H24.6567C25.135 9.76806 25.5317 9.3714 25.5317 8.89306C25.5317 8.41473 25.135 8.01806 24.6567 8.01806H23.1517V6.30306H24.6567C25.135 6.30306 25.5317 5.90639 25.5317 5.42806C25.5317 4.94973 25.135 4.55306 24.6567 4.55306H23.1284C23.0117 3.63139 22.2884 2.90805 21.3784 2.79138V1.34473C21.3784 0.866393 20.9817 0.469727 20.5034 0.469727C20.025 0.469727 19.6284 0.866393 19.6284 1.34473V2.7797H17.8784V1.34473C17.8784 0.866393 17.4817 0.469727 17.0034 0.469727C16.525 0.469727 16.1284 0.866393 16.1284 1.34473V2.8147C15.2767 2.96637 14.6001 3.67806 14.4834 4.55306H12.9551C12.4767 4.55306 12.0801 4.94973 12.0801 5.42806C12.0801 5.90639 12.4767 6.30306 12.9551 6.30306H14.4601V8.01806H12.9551C12.4767 8.01806 12.0801 8.41473 12.0801 8.89306C12.0801 9.3714 12.4767 9.76806 12.9551 9.76806H14.4834C14.6117 10.6197 15.2767 11.3197 16.1284 11.4714V12.9997C16.1284 13.478 16.525 13.8747 17.0034 13.8747C17.4817 13.8747 17.8784 13.478 17.8784 12.9997V11.5064H19.6517V12.9997ZM16.2217 9.46472V4.80973C16.2217 4.64639 16.3501 4.51806 16.5134 4.51806H21.1334C21.2967 4.51806 21.425 4.64639 21.425 4.80973V9.46472C21.425 9.62805 21.2967 9.75638 21.1334 9.75638H16.5134C16.3501 9.75638 16.2217 9.62805 16.2217 9.46472Z" fill="white"/>
<path fill-rule="evenodd" clip-rule="evenodd" d="M22.1949 15.6136H4.53092V7.13167C4.53092 5.07834 4.55425 4.15668 4.96259 3.74834C5.11425 3.59668 5.35926 3.445 5.98926 3.375H11.7992C12.2776 3.375 12.6742 2.99 12.6742 2.5C12.6742 2.01 12.2776 1.625 11.7992 1.625H5.8959C5.18424 1.695 4.36758 1.85834 3.71424 2.51168C2.78092 3.45666 2.78092 4.7633 2.78092 7.13156V16.3198L2.29157 17.2703C0.693237 20.2336 -0.0534179 22.2753 0.844916 23.9203C1.73158 25.5419 3.7149 25.542 7.3199 25.542H18.5899C22.1949 25.542 24.1783 25.5419 25.0649 23.9203C25.9633 22.2753 25.2166 20.2336 23.6066 17.2586L22.9649 16.0686C22.8132 15.7886 22.5216 15.6136 22.1949 15.6136ZM4.21653 17.3753L3.85486 18.0869V18.0986C2.36153 20.8753 1.9532 22.2636 2.39653 23.0803C2.78152 23.792 4.49649 23.792 7.33137 23.792H18.6015C21.4364 23.792 23.1516 23.792 23.5366 23.0803C23.9799 22.2636 23.5716 20.8636 22.0783 18.0986L21.6932 17.3753H4.21653Z" fill="white"/>
</svg>
