<svg width="28" height="28" viewBox="0 0 28 28" fill="none" xmlns="http://www.w3.org/2000/svg">
<path fill-rule="evenodd" clip-rule="evenodd" d="M12.1952 3.7915H15.8061C17.9516 3.79149 19.6366 3.79148 20.965 3.94154C22.3208 4.09469 23.4203 4.41406 24.3343 5.13584C24.6079 5.35191 24.8615 5.59056 25.0922 5.84927C25.7914 6.63359 26.1433 7.56858 26.3271 8.69618C26.5071 9.80036 26.5357 11.1588 26.5411 12.8303C26.5427 13.3136 26.1522 13.7066 25.669 13.7082C25.1857 13.7097 24.7927 13.3192 24.7911 12.836C24.7894 12.3046 24.7851 11.8196 24.7752 11.3748H3.226C3.20937 12.1286 3.20899 12.994 3.20899 13.9998C3.20899 16.0865 3.21065 17.5685 3.35549 18.7043C3.49724 19.8159 3.76431 20.4799 4.21537 20.9858C4.37763 21.1678 4.55701 21.3368 4.75165 21.4905C5.3015 21.9247 6.03017 22.1834 7.23276 22.3192C8.45143 22.4569 10.0376 22.4582 12.2507 22.4582H12.834C13.3172 22.4582 13.709 22.8499 13.709 23.3332C13.709 23.8164 13.3172 24.2082 12.834 24.2082H12.1952C10.0497 24.2082 8.36468 24.2082 7.03633 24.0581C5.68047 23.905 4.58099 23.5856 3.66705 22.8638C3.39344 22.6478 3.13978 22.4091 2.90913 22.1504C2.13193 21.2787 1.78486 20.222 1.61955 18.9257C1.45896 17.6664 1.45897 16.0727 1.45898 14.0614V13.9383C1.45897 11.927 1.45896 10.3333 1.61955 9.07399C1.78486 7.77765 2.13193 6.72102 2.90913 5.84927C3.13978 5.59056 3.39345 5.35191 3.66705 5.13584C4.58099 4.41406 5.68047 4.09469 7.03633 3.94154C8.36468 3.79148 10.0497 3.79149 12.1952 3.7915ZM24.5999 8.97773C24.6329 9.18016 24.6603 9.39523 24.683 9.62484H3.31834C3.32954 9.51182 3.34188 9.40206 3.35549 9.29536C3.49724 8.18376 3.76431 7.51978 4.21537 7.01384C4.37763 6.83184 4.55701 6.66292 4.75165 6.5092C5.3015 6.07496 6.03017 5.81632 7.23276 5.68048C8.45143 5.54281 10.0376 5.5415 12.2507 5.5415H15.7507C17.9637 5.5415 19.5499 5.54281 20.7685 5.68048C21.9711 5.81632 22.6998 6.07496 23.2497 6.5092C23.4443 6.66292 23.6237 6.83184 23.7859 7.01384C24.1933 7.47078 24.4496 8.05542 24.5999 8.97773Z" fill="white"/>
<path d="M25.9295 17.1679C26.3905 17.0231 26.6469 16.532 26.5021 16.071C26.3573 15.6099 25.8662 15.3535 25.4052 15.4983C23.2437 16.1771 21.3542 18.1141 20.063 19.7336C19.5345 20.3965 19.0853 21.0335 18.7363 21.5594C18.2925 20.9304 17.506 20.1248 16.334 20.1248C15.8507 20.1248 15.459 20.5165 15.459 20.9998C15.459 21.483 15.8507 21.8748 16.334 21.8748C16.6589 21.8748 17.014 22.1242 17.362 22.6497C17.5194 22.8872 17.6404 23.1311 17.7226 23.3191C17.7632 23.4119 17.7929 23.4879 17.8119 23.5387C17.8213 23.564 17.828 23.5828 17.8318 23.594L17.8353 23.6039L17.8358 23.6055C17.944 23.9359 18.2376 24.171 18.5838 24.2041C18.9307 24.2374 19.2642 24.0616 19.4329 23.7568L19.434 23.7548L19.4396 23.7449L19.4643 23.7013C19.4867 23.6621 19.5208 23.6029 19.5661 23.5262C19.6567 23.3729 19.7916 23.1501 19.9656 22.8781C20.3143 22.3331 20.8167 21.5956 21.4314 20.8245C22.6935 19.2414 24.304 17.6784 25.9295 17.1679Z" fill="white"/>
</svg>
