<svg width="24" height="26" viewBox="0 0 24 26" fill="none" xmlns="http://www.w3.org/2000/svg">
<path d="M11.3404 0.458497H11.4929C13.7655 0.458469 15.5755 0.458448 16.994 0.68281C18.47 0.916266 19.6413 1.40887 20.5478 2.47535C21.2631 3.31697 21.6581 4.33361 21.8841 5.56447C22.1074 6.78047 22.1752 8.26225 22.1975 10.0727C22.2034 10.556 21.8165 10.9525 21.3333 10.9584C20.8501 10.9644 20.4536 10.5775 20.4476 10.0943C20.4254 8.28871 20.357 6.93743 20.1629 5.88054C19.9716 4.83852 19.668 4.14244 19.2144 3.60873C18.6686 2.96667 17.9451 2.605 16.7206 2.41132C15.4545 2.21105 13.783 2.2085 11.4167 2.2085C9.05033 2.2085 7.37888 2.21105 6.11273 2.41132C4.88824 2.605 4.16471 2.96667 3.61896 3.60873C3.05576 4.27132 2.72397 5.18412 2.55087 6.69876C2.37635 8.22594 2.375 10.2292 2.375 13.0002C2.375 15.7711 2.37635 17.7744 2.55088 19.3016C2.72397 20.8162 3.05576 21.729 3.61896 22.3916C4.16471 23.0337 4.88824 23.3953 6.11273 23.589C7.37888 23.7893 9.05033 23.7918 11.4167 23.7918C11.8999 23.7918 12.2917 24.1836 12.2917 24.6668C12.2917 25.1501 11.8999 25.5418 11.4167 25.5418H11.3404C9.06779 25.5419 7.25779 25.5419 5.83933 25.3175C4.36337 25.0841 3.19208 24.5915 2.28557 23.525C1.3965 22.479 1.00217 21.1626 0.812192 19.5003C0.624984 17.8621 0.624991 15.7589 0.625 13.0579V12.9424C0.624991 10.2414 0.624983 8.13823 0.812191 6.50007C1.00216 4.83771 1.3965 3.52131 2.28557 2.47535C3.19207 1.40887 4.36337 0.916267 5.83933 0.682811C7.2578 0.458448 9.06781 0.45847 11.3404 0.458497Z" fill="white"/>
<path d="M6.45833 8.3335C6.45833 7.85025 6.85008 7.4585 7.33333 7.4585H15.5C15.9832 7.4585 16.375 7.85025 16.375 8.3335C16.375 8.81675 15.9832 9.2085 15.5 9.2085H7.33333C6.85008 9.2085 6.45833 8.81675 6.45833 8.3335Z" fill="white"/>
<path d="M6.45833 14.1668C6.45833 13.6836 6.85008 13.2918 7.33333 13.2918H10.8333C11.3166 13.2918 11.7083 13.6836 11.7083 14.1668C11.7083 14.6501 11.3166 15.0418 10.8333 15.0418H7.33333C6.85008 15.0418 6.45833 14.6501 6.45833 14.1668Z" fill="white"/>
<path fill-rule="evenodd" clip-rule="evenodd" d="M18.2708 12.1252C15.613 12.1252 13.4583 14.2798 13.4583 16.9377C13.4583 18.3058 14.0299 19.5405 14.9448 20.4158L14.434 22.0242C14.3112 22.4111 14.2076 22.7371 14.141 22.9974C14.0776 23.2447 14.0126 23.5544 14.0558 23.864C14.1853 24.7924 14.9579 25.5383 15.934 25.5418C16.2592 25.543 16.5612 25.422 16.7851 25.3214C17.0237 25.2143 17.3185 25.0595 17.6642 24.8781L17.6889 24.8651C18.0342 24.684 18.1056 24.6507 18.1677 24.6319C18.3307 24.5828 18.5026 24.5828 18.6656 24.6319C18.7277 24.6507 18.7992 24.684 19.1444 24.8651L19.169 24.8781C19.5147 25.0595 19.8096 25.2142 20.0483 25.3214C20.2722 25.422 20.5741 25.543 20.8993 25.5418C21.8754 25.5383 22.648 24.7924 22.7775 23.864C22.8207 23.5544 22.7557 23.2447 22.6924 22.9974C22.6257 22.7371 22.5222 22.4112 22.3994 22.0244L21.8885 20.4158C22.8035 19.5405 23.375 18.3058 23.375 16.9377C23.375 14.2798 21.2204 12.1252 18.5625 12.1252H18.2708ZM16.1099 22.5289L16.4681 21.4009C17.0253 21.6261 17.634 21.7502 18.2708 21.7502H18.5625C19.1993 21.7502 19.8081 21.6261 20.3652 21.4009L20.7234 22.5289C20.8564 22.9475 20.9443 23.2254 20.997 23.4314C21.0306 23.5625 21.0384 23.6244 21.0407 23.6422C21.0211 23.7342 20.963 23.7753 20.92 23.7876C20.8946 23.779 20.8453 23.761 20.7653 23.7251C20.5816 23.6426 20.3348 23.5135 19.9576 23.3156L19.9036 23.2872C19.6426 23.15 19.4141 23.0298 19.1709 22.9565C18.6784 22.8079 18.1549 22.8079 17.6624 22.9565C17.4193 23.0298 17.1908 23.1499 16.9297 23.2872L16.8757 23.3156C16.4986 23.5135 16.2517 23.6426 16.068 23.7251C15.988 23.761 15.9388 23.779 15.9133 23.7876C15.8704 23.7753 15.8122 23.7344 15.7926 23.6425C15.7949 23.6246 15.8028 23.5624 15.8363 23.4314C15.889 23.2254 15.9769 22.9475 16.1099 22.5289ZM15.2083 16.9377C15.2083 15.2463 16.5795 13.8752 18.2708 13.8752H18.5625C20.2539 13.8752 21.625 15.2463 21.625 16.9377C21.625 17.9555 21.1294 18.8574 20.3625 19.4157C19.8573 19.7835 19.2365 20.0002 18.5625 20.0002H18.2708C17.5968 20.0002 16.976 19.7835 16.4709 19.4157C15.704 18.8574 15.2083 17.9555 15.2083 16.9377Z" fill="white"/>
</svg>
