<svg width="24" height="26" viewBox="0 0 24 26" fill="none" xmlns="http://www.w3.org/2000/svg">
<path fill-rule="evenodd" clip-rule="evenodd" d="M9.08527 9.21783V10.3827C7.96106 10.7441 7.35179 11.693 7.18309 12.3678C7.12716 12.5915 7.09769 12.8932 7.07919 13.1772C7.05947 13.4801 7.04862 13.8293 7.04501 14.1811C7.03788 14.8766 7.05866 15.6307 7.10531 16.0971L7.11233 16.1673L7.13051 16.2355C7.50969 17.6574 8.51105 18.2963 9.467 18.4914L9.51535 18.5012L9.56449 18.5056C10.1323 18.5561 12.1243 18.5491 13.1912 18.5454L13.1934 18.5454C13.4015 18.5447 13.5742 18.5441 13.6942 18.544C14.3564 18.5553 15.0384 18.4391 15.6277 18.0502C16.2343 17.6498 16.6365 17.0312 16.855 16.2442L16.8674 16.1996L16.8751 16.1539C16.9233 15.8647 16.957 15.1143 16.9613 14.4054C16.9636 14.036 16.958 13.6503 16.9399 13.3061C16.9227 12.9803 16.8917 12.6313 16.8258 12.3678L16.8179 12.336L16.8076 12.3049C16.4464 11.2147 15.6916 10.6394 14.9373 10.3903V9.21783C14.9373 7.60184 13.6273 6.29183 12.0113 6.29183C10.3953 6.29183 9.08527 7.60184 9.08527 9.21783ZM12.0113 8.04183C11.3618 8.04183 10.8353 8.56834 10.8353 9.21783V10.235H13.1873V9.21783C13.1873 8.56834 12.6608 8.04183 12.0113 8.04183ZM10.062 11.985C9.29831 11.985 8.94852 12.5215 8.88084 12.7922C8.86677 12.8485 8.84375 13.0106 8.82549 13.2909C8.80846 13.5525 8.79831 13.8682 8.79492 14.199C8.78848 14.8267 8.80673 15.4646 8.83983 15.8496C8.93914 16.1807 9.08695 16.3778 9.23097 16.5031C9.37899 16.6318 9.56164 16.7177 9.77004 16.7664C10.3118 16.8042 12.0536 16.7988 13.1101 16.7954C13.3501 16.7947 13.5548 16.794 13.702 16.794L13.7184 16.7942C14.1734 16.8027 14.4681 16.7187 14.6637 16.5896C14.838 16.4746 15.0234 16.2649 15.1542 15.8267C15.1762 15.6383 15.2073 15.0639 15.2114 14.3947C15.2135 14.0466 15.2081 13.6973 15.1923 13.3983C15.1772 13.1116 15.1546 12.9188 15.1344 12.8205C14.9053 12.1749 14.3996 11.985 13.982 11.985H10.062Z" fill="white"/>
<path fill-rule="evenodd" clip-rule="evenodd" d="M11.9999 0.458496C10.0384 0.458496 8.44374 1.12109 7.05292 1.84163C6.63262 2.05938 6.24217 2.27477 5.86906 2.48059C4.9562 2.98416 4.14715 3.43046 3.25865 3.71395L3.22886 3.72345C2.70709 3.88993 2.27453 4.02794 1.94681 4.15636C1.63833 4.27724 1.2717 4.44289 1.01157 4.73199C0.777916 4.99168 0.657875 5.28321 0.578283 5.56207C0.506031 5.81522 0.45071 6.12221 0.391461 6.451L0.385023 6.48671C-1.05924 14.4967 2.09892 22.085 9.81112 25.0377L9.84968 25.0525C10.6076 25.3428 11.1275 25.5418 12.0037 25.5418C12.88 25.5418 13.4 25.3427 14.1581 25.0523L14.1962 25.0377C21.9082 22.0848 25.0632 14.4964 23.6186 6.48668L23.6121 6.45095C23.5528 6.12209 23.4975 5.81506 23.4252 5.56188C23.3456 5.283 23.2255 4.99145 22.9918 4.73176C22.7317 4.44265 22.365 4.27704 22.0565 4.1562C21.7288 4.02782 21.2962 3.88987 20.7744 3.72348L20.7447 3.71402C19.8557 3.43051 19.046 2.98409 18.1324 2.48043C17.7592 2.27465 17.3685 2.0593 16.9482 1.84163C15.5566 1.12111 13.9614 0.458496 11.9999 0.458496ZM3.7906 5.38114C4.85444 5.04171 5.89089 4.46988 6.85957 3.93543C7.20138 3.74685 7.53477 3.56291 7.85793 3.39549C9.15475 2.72364 10.4523 2.2085 11.9999 2.2085C13.5476 2.2085 14.8458 2.72372 16.1435 3.39566C16.4668 3.56309 16.8004 3.74701 17.1424 3.93558C18.1117 4.47006 19.1487 5.04189 20.213 5.38129C20.772 5.55955 21.1498 5.6805 21.4183 5.78565C21.595 5.85487 21.6718 5.89861 21.6965 5.91313C21.7058 5.93176 21.7219 5.97021 21.7424 6.04228C21.7878 6.2011 21.8284 6.42038 21.8964 6.79729C23.2275 14.1779 20.3228 20.8179 13.5704 23.4034C12.7955 23.7002 12.5408 23.7918 12.0037 23.7918C11.4665 23.7918 11.212 23.7002 10.4368 23.4034C3.68377 20.8179 0.776506 14.1776 2.10725 6.79725C2.1752 6.42039 2.21576 6.20116 2.26108 6.04238C2.28165 5.97033 2.29771 5.93189 2.30697 5.91327C2.33172 5.89874 2.40855 5.85499 2.5853 5.78572C2.85378 5.68052 3.23159 5.5595 3.7906 5.38114ZM2.31342 5.90145C2.31504 5.89954 2.3158 5.89832 2.31578 5.89818C2.31576 5.8981 2.31548 5.8984 2.31493 5.89916C2.31455 5.89969 2.31405 5.90044 2.31342 5.90145Z" fill="white"/>
</svg>
