<svg width="141" height="41" viewBox="0 0 141 41" fill="none" xmlns="http://www.w3.org/2000/svg">
<path d="M57.4033 27.5352L59.7432 29.5479L59.6611 36.375L58.9453 37.2988L60.5176 39.1777L58.9258 40.5L57.6318 38.9521H51.9072L49.5664 36.9385L49.6484 30.1123L51.6426 27.5352H57.4033ZM47.7686 39.0273H45.4316L41.8506 34.041L41.7051 33.8379L39.1689 39.042H36.7354L39.3066 33.7148L42.3721 27.5352H47.6992L47.7686 39.0273ZM80.4463 27.4521C81.8519 27.4521 82.9951 28.5917 82.9951 29.9922V32.5508L80.9736 34.79L84.3994 38.917H81.6973L78.4141 34.7881L78.3691 34.7324H76.5605V38.917H74.3193V27.4521H80.4463ZM88.333 38.9131H85.8408V27.4219H88.333V38.9131ZM72.917 38.8926H70.4102L69.5527 36.209H64.9424L64.0703 38.8926H61.5625L65.2383 27.7139H69.2256L72.917 38.8926ZM51.5889 29.5986L51.6387 36.8877H55.9053L55.1514 35.9863L56.7432 34.665L57.7139 35.8262L57.6719 29.5986H51.5889ZM42.8184 31.7275L45.5752 35.8037V29.1807H43.9629L42.8184 31.7275ZM11.1582 32.416L8.24316 35.3213L5.35938 32.416L8.24316 29.4814L11.1582 32.416ZM16.958 32.416L14.043 35.3213L11.1582 32.416L14.043 29.4814L16.958 32.416ZM65.3633 34.4043H69.1328L67.2324 28.4805L65.3633 34.4043ZM76.4932 33.0098H79.9648L80.9736 31.877V30.168C80.9736 29.637 80.2316 28.8497 79.2061 28.8496H76.4932V33.0098ZM35.751 21.8506C35.751 23.4351 35.5339 24.7537 35.0996 25.8047C34.6656 26.8556 33.9933 27.71 33.084 28.3691C32.3188 28.9254 31.4967 29.3278 30.6182 29.5752C29.739 29.8225 28.8456 29.9453 27.9355 29.9453C27.6459 29.9453 27.3621 29.9355 27.083 29.9141C26.804 29.8942 26.5197 29.8624 26.2305 29.8223L25.3613 27.8447C26.3122 27.9475 27.1347 27.8331 27.8271 27.5039C28.5199 27.1751 29.0723 26.701 29.4863 26.082C30.1474 25.0739 30.4785 23.8369 30.4785 22.375V8.78027H35.751V21.8506ZM16.3682 8.37793C17.009 8.37794 17.6502 8.43586 18.291 8.54883C18.9317 8.6618 19.5829 8.8213 20.2451 9.02734L23.501 10.0156L22.6943 12.4873L19.2529 11.4375C18.9011 11.3343 18.5337 11.2467 18.1514 11.1738C17.7691 11.1026 17.423 11.0664 17.1123 11.0664C16.3473 11.0664 15.7375 11.3288 15.2832 11.8545C14.8281 12.3796 14.6006 13.1263 14.6006 14.0947V15.5156L22.1992 18.0488V21.8496C22.1992 23.9505 21.4284 25.5518 19.8887 26.6543C18.3478 27.756 16.1203 28.3076 13.2051 28.3076H9.0498C6.13496 28.3076 3.90596 27.7559 2.36621 26.6543C0.825796 25.5518 0.0566406 23.9504 0.0566406 21.8496V17.2148H5.32812V22.2207C5.32817 23.2704 5.60226 24.1102 6.15039 24.7393C6.69821 25.3669 7.59266 25.6816 8.83301 25.6816H13.4531C14.6931 25.6816 15.5821 25.367 16.1201 24.7393C16.6569 24.1102 16.9257 23.2704 16.9258 22.2207V20.6758L9.2666 18.1729V14.4648C9.26662 13.5592 9.43193 12.7341 9.7627 11.9932C10.0931 11.2512 10.5691 10.6131 11.1895 10.0771C11.8095 9.54203 12.5584 9.12532 13.4375 8.82617C14.316 8.52858 15.293 8.37794 16.3682 8.37793ZM44.7441 20.5215H53.7061L50.6367 17.4629V15.4854C50.6367 11.2831 52.9316 9.18262 57.5215 9.18262H66.4521V18.6367C66.4521 19.337 66.3585 19.9653 66.1729 20.5215H75.5078L72.252 17.2773V15.0215C72.252 12.9409 72.8516 11.3805 74.0508 10.3408C75.2495 9.30117 77.0171 8.7803 79.3535 8.78027H88.3467V15.1143H83.0752V11.4062H80.2529C79.3432 11.4063 78.6658 11.6896 78.2217 12.2559C77.7775 12.8235 77.5547 13.6518 77.5547 14.7441V18.1738L79.8809 20.4287H88.8115V23.1484H48.0312V23.1475H39.4727V1.51953H44.7441V20.5215ZM58.5752 11.7471C56.7971 11.7471 55.9082 12.8179 55.9082 14.96V18.2656L58.1719 20.5215H60.3125C60.8908 20.5212 61.1806 20.0585 61.1807 19.1309V11.7471H58.5752ZM66.1113 3.4043L63.165 6.30957L60.2812 3.4043L57.3662 6.30957L54.5127 3.4043L57.3662 0.5L60.3125 3.37305L63.165 0.5L66.1113 3.4043Z" fill="white"/>
<path d="M111.581 18.6481L109.987 17.0678L108.823 15.9087L107.229 14.3325L106.061 13.1734L104.468 11.593L102.494 9.63568V15.074L108.071 20.5732V20.5608L113.554 20.6055L111.581 18.6481Z" fill="white"/>
<path d="M106.061 30.1986L107.229 29.0396L108.823 27.4633L109.987 26.3042L111.581 24.7239L113.554 22.7665L108.071 22.8109V22.7988L102.494 28.298V33.7363L104.468 31.779L106.061 30.1986Z" fill="white"/>
<path d="M124.091 31.0569L125.684 32.6372L126.852 33.7922L128.442 35.3726L129.61 36.5316L131.204 38.112L133.177 40.0693H127.694L122.15 34.5379H122.162L122.117 29.0995L124.091 31.0569Z" fill="white"/>
<path d="M112.344 36.4857L113.513 35.3267L115.102 33.7463L116.27 32.5913L117.864 31.011L119.837 29.0536L119.792 34.492H119.805L114.26 40.0234H108.777L110.751 38.0661L112.344 36.4857Z" fill="white"/>
<path d="M121.351 24.2588H118.436V21.3662L104.555 35.1348H107.47V38.0264L121.351 24.2588Z" fill="white"/>
<path d="M130.971 24.2336L132.565 25.814L133.729 26.9731L135.323 28.5493L136.491 29.7084L138.084 31.2888L140.058 33.2461V27.8078L134.481 22.3086V22.321L128.998 22.2763L130.971 24.2336Z" fill="white"/>
<path d="M136.491 12.6841L135.323 13.8432L133.729 15.4194L132.565 16.5785L130.971 18.1589L128.998 20.1162L134.481 20.0719V20.0839L140.058 14.5848V9.14642L138.084 11.1038L136.491 12.6841Z" fill="white"/>
<path d="M135.23 35.2822H137.997L124.116 21.5146V24.2588H121.35L135.23 38.0264V35.2822Z" fill="white"/>
<path d="M118.459 11.8249L116.866 10.2445L115.698 9.08958L114.108 7.50921L112.94 6.35014L111.346 4.76977L109.373 2.81244H114.856L120.4 8.34389H120.388L120.433 13.7822L118.459 11.8249Z" fill="white"/>
<path d="M130.104 6.35014L128.936 7.50921L127.347 9.08958L126.178 10.2445L124.585 11.8249L122.611 13.7822L122.656 8.34389H122.644L128.188 2.81244H133.671L131.698 4.76977L130.104 6.35014Z" fill="white"/>
<path d="M137.997 7.74707H135.082V4.85547L121.201 18.623H124.116V21.5146L137.997 7.74707Z" fill="white"/>
<path d="M118.436 18.623H121.202L107.321 4.85547V7.59961H104.555L118.436 21.3672V18.623Z" fill="white"/>
</svg>
