<svg width="17" height="18" viewBox="0 0 17 18" fill="none" xmlns="http://www.w3.org/2000/svg">
<path fill-rule="evenodd" clip-rule="evenodd" d="M6.62611 6.5685V7.31733C5.9034 7.54968 5.51172 8.1597 5.40328 8.59349C5.36732 8.73732 5.34837 8.93124 5.33648 9.11383C5.32381 9.3085 5.31683 9.53304 5.31451 9.75914C5.30992 10.2063 5.32329 10.691 5.35327 10.9909L5.35779 11.036L5.36947 11.0798C5.61323 11.9939 6.25696 12.4046 6.8715 12.5301L6.90258 12.5364L6.93418 12.5392C7.2992 12.5716 8.57974 12.5672 9.26565 12.5648L9.26707 12.5648C9.40082 12.5643 9.51187 12.5639 9.58897 12.5639C10.0147 12.5712 10.4531 12.4965 10.832 12.2464C11.2219 11.9891 11.4804 11.5914 11.621 11.0855L11.6289 11.0568L11.6338 11.0274C11.6648 10.8415 11.6865 10.3591 11.6893 9.90334C11.6907 9.66588 11.6872 9.41793 11.6755 9.1967C11.6645 8.98721 11.6445 8.76288 11.6022 8.59348L11.5971 8.57304L11.5904 8.55303C11.3583 7.85218 10.873 7.48235 10.3881 7.32226V6.5685C10.3881 5.52965 9.54595 4.6875 8.50711 4.6875C7.46826 4.6875 6.62611 5.52965 6.62611 6.5685ZM8.50711 5.8125C8.08958 5.8125 7.75111 6.15097 7.75111 6.5685V7.22241H9.26311V6.5685C9.26311 6.15097 8.92463 5.8125 8.50711 5.8125ZM7.25398 8.34741C6.76306 8.34741 6.5382 8.6923 6.49469 8.86634C6.48564 8.90251 6.47084 9.00671 6.4591 9.18693C6.44816 9.35508 6.44163 9.55803 6.43945 9.77068C6.43531 10.1742 6.44704 10.5843 6.46832 10.8318C6.53216 11.0446 6.62719 11.1713 6.71977 11.2519C6.81493 11.3346 6.93234 11.3898 7.06632 11.4212C7.41459 11.4455 8.53431 11.442 9.21352 11.4398C9.36781 11.4393 9.49936 11.4389 9.59398 11.4389L9.60453 11.439C9.89706 11.4445 10.0865 11.3905 10.2123 11.3075C10.3243 11.2336 10.4435 11.0988 10.5276 10.8171C10.5417 10.696 10.5617 10.3267 10.5643 9.89648C10.5657 9.67269 10.5622 9.44814 10.5521 9.25593C10.5423 9.07163 10.5278 8.94768 10.5149 8.88447C10.3676 8.46945 10.0425 8.34741 9.77398 8.34741H7.25398Z" fill="#085D3A"/>
<path fill-rule="evenodd" clip-rule="evenodd" d="M8.49977 0.9375C7.23882 0.9375 6.21369 1.36345 5.3196 1.82666C5.0494 1.96664 4.7984 2.1051 4.55854 2.23742C3.9717 2.56114 3.4516 2.84805 2.88042 3.03029L2.86127 3.0364C2.52585 3.14342 2.24777 3.23214 2.0371 3.3147C1.83879 3.39241 1.6031 3.4989 1.43587 3.68475C1.28566 3.85169 1.20849 4.0391 1.15733 4.21837C1.11088 4.38111 1.07532 4.57846 1.03723 4.78982L1.03309 4.81278C0.104633 9.96206 2.13488 14.8403 7.09272 16.7384L7.11751 16.7479C7.60478 16.9345 7.93895 17.0625 8.50225 17.0625C9.06559 17.0625 9.39984 16.9345 9.88724 16.7478L9.91171 16.7384C14.8694 14.8401 16.8976 9.96185 15.9689 4.81276L15.9648 4.78979C15.9267 4.57838 15.8911 4.381 15.8446 4.21825C15.7935 4.03897 15.7163 3.85154 15.566 3.6846C15.3988 3.49874 15.1631 3.39228 14.9648 3.31459C14.7541 3.23206 14.476 3.14339 14.1405 3.03642L14.1214 3.03033C13.55 2.84808 13.0294 2.56109 12.4421 2.23731C12.2022 2.10503 11.9511 1.96659 11.6808 1.82666C10.7863 1.36347 9.76074 0.9375 8.49977 0.9375ZM3.22239 4.10206C3.90628 3.88385 4.57257 3.51624 5.19529 3.17267C5.41503 3.05144 5.62935 2.93319 5.8371 2.82557C6.67077 2.39367 7.5049 2.0625 8.49977 2.0625C9.49473 2.0625 10.3293 2.39372 11.1635 2.82568C11.3714 2.93331 11.5858 3.05154 11.8057 3.17277C12.4288 3.51636 13.0955 3.88397 13.7796 4.10215C14.139 4.21675 14.3819 4.2945 14.5545 4.3621C14.668 4.4066 14.7174 4.43471 14.7333 4.44405C14.7393 4.45602 14.7496 4.48075 14.7629 4.52708C14.792 4.62917 14.8181 4.77014 14.8618 5.01244C15.7175 9.75715 13.8502 14.0257 9.50943 15.6878C9.01124 15.8786 8.84753 15.9375 8.50225 15.9375C8.15689 15.9375 7.99328 15.8786 7.49497 15.6878C3.15371 14.0257 1.28476 9.75694 2.14024 5.01241C2.18392 4.77015 2.20999 4.62921 2.23913 4.52714C2.25235 4.48082 2.26268 4.45611 2.26863 4.44414C2.28453 4.4348 2.33393 4.40667 2.44755 4.36215C2.62014 4.29451 2.86303 4.21672 3.22239 4.10206ZM2.27277 4.43654C2.27381 4.43532 2.2743 4.43453 2.27429 4.43444C2.27428 4.43439 2.2741 4.43458 2.27375 4.43507C2.2735 4.43541 2.27318 4.43589 2.27277 4.43654Z" fill="#085D3A"/>
</svg>
