<svg width="134" height="60" viewBox="0 0 134 60" fill="none" xmlns="http://www.w3.org/2000/svg">
<path d="M5.95324 4.67588C6.08577 4.67588 6.19737 4.63054 6.28456 4.53986C6.37175 4.44919 6.41709 4.33758 6.41709 4.20506C6.41709 4.0795 6.37175 3.97139 6.28456 3.87723C6.19737 3.78655 6.08577 3.74121 5.95324 3.74121C5.82769 3.74121 5.71609 3.78655 5.62192 3.87723C5.52776 3.9679 5.48242 4.0795 5.48242 4.20506C5.48242 4.33758 5.52776 4.44919 5.62192 4.53986C5.71609 4.63054 5.8242 4.67588 5.95324 4.67588Z" fill="white"/>
<path d="M8.83232 9.84455H3.6254C3.21735 9.84455 2.86511 9.8306 2.56866 9.8027C2.27571 9.7748 2.02112 9.73644 1.81535 9.68064C1.6061 9.62833 1.43869 9.55857 1.30966 9.47139C1.18062 9.3842 1.08296 9.28306 1.01321 9.16448C0.943461 9.0459 0.894635 8.90989 0.870222 8.75644C0.845809 8.60298 0.831859 8.43209 0.831859 8.24725C0.831859 8.11821 0.838834 7.99266 0.849297 7.87059C0.85976 7.74853 0.877198 7.64042 0.894635 7.54625L0.228511 7.48347C0.200611 7.65785 0.179685 7.83921 0.15876 8.02405C0.141322 8.20889 0.130859 8.36583 0.130859 8.49836C0.130859 8.68668 0.14481 8.86804 0.176198 9.04242C0.207586 9.21679 0.263387 9.3842 0.343601 9.53416C0.423815 9.68761 0.531929 9.82712 0.674919 9.95267C0.814421 10.0782 0.992287 10.1863 1.212 10.2805C1.43172 10.3712 1.69329 10.4444 1.9967 10.4932C2.30361 10.5421 2.66283 10.5665 3.07436 10.5665H9.5682V6.13379H8.83232V9.83758V9.84455Z" fill="white"/>
<path d="M4.46887 4.67588C4.59791 4.67588 4.70951 4.63054 4.80019 4.53986C4.89086 4.44919 4.9362 4.33758 4.9362 4.20506C4.9362 4.0795 4.89086 3.97139 4.80019 3.87723C4.70951 3.78655 4.6014 3.74121 4.46887 3.74121C4.33634 3.74121 4.23171 3.78655 4.13755 3.87723C4.04339 3.9679 3.99805 4.0795 3.99805 4.20506C3.99805 4.33758 4.04339 4.44919 4.13755 4.53986C4.23171 4.63054 4.33983 4.67588 4.46887 4.67588Z" fill="white"/>
<path d="M36.529 7.39792C36.4453 7.22006 36.3441 7.04568 36.2221 6.88525C36.1 6.72134 35.9535 6.57835 35.7896 6.45628C35.6222 6.33073 35.4374 6.23308 35.2316 6.15635C35.0258 6.08311 34.7991 6.04475 34.548 6.04475C34.4295 6.04475 34.3004 6.0587 34.1574 6.0866C34.0144 6.1145 33.868 6.16333 33.7145 6.24005C33.5611 6.31678 33.4006 6.42141 33.2402 6.55742C33.0798 6.69344 32.9228 6.8713 32.7659 7.09102C32.6124 7.31073 32.4625 7.57928 32.323 7.89316C32.18 8.20704 32.0509 8.58369 31.9324 9.01615C31.8905 9.17309 31.8277 9.30562 31.7475 9.41025C31.6673 9.51487 31.5766 9.59857 31.472 9.66135C31.3674 9.72413 31.2593 9.76947 31.1407 9.79737C31.0221 9.82527 30.9035 9.83922 30.785 9.83922H13.3541C13.1588 9.83922 12.9984 9.82178 12.8728 9.78342C12.7473 9.74505 12.6462 9.68576 12.5729 9.59858C12.4997 9.51139 12.4474 9.3963 12.416 9.25331C12.3846 9.10683 12.3706 8.92896 12.3706 8.71273V2.33398H11.6348V8.95338C11.6348 9.18355 11.6592 9.3963 11.7115 9.59509C11.7638 9.79388 11.8475 9.96477 11.9626 10.1078C12.0777 10.2507 12.2311 10.3624 12.4195 10.4461C12.6078 10.5298 12.8345 10.5681 13.1065 10.5681H30.9001C30.9001 10.5681 30.928 10.5646 30.9419 10.5611C31.0605 10.5611 31.1791 10.5542 31.2872 10.5367C31.4197 10.5158 31.5418 10.4774 31.6534 10.4251C31.765 10.3728 31.8696 10.2961 31.9638 10.2019C32.0579 10.1078 32.1451 9.98569 32.2253 9.83922C32.3579 9.95082 32.5113 10.052 32.6857 10.1496C32.8566 10.2438 33.0449 10.3275 33.2437 10.4007C33.4425 10.4705 33.6552 10.5263 33.8784 10.5716C34.1016 10.6135 34.3283 10.6344 34.562 10.6344C34.9526 10.6344 35.2874 10.5716 35.5664 10.4495C35.8454 10.3275 36.0756 10.1636 36.2535 9.96128C36.4348 9.759 36.5673 9.52882 36.651 9.27074C36.7382 9.01266 36.7801 8.74761 36.7801 8.47209C36.7801 8.30818 36.7592 8.1338 36.7173 7.94896C36.6755 7.76412 36.6127 7.57928 36.529 7.40141V7.39792ZM36.0372 9.19053C35.9535 9.35445 35.835 9.48697 35.6815 9.5916C35.528 9.69623 35.3397 9.77295 35.1235 9.82527C34.9038 9.87409 34.6631 9.8985 34.3946 9.8985C34.2202 9.8985 34.0319 9.88107 33.8366 9.8427C33.6413 9.80434 33.4564 9.75551 33.2821 9.69274C33.1042 9.62996 32.9507 9.56021 32.8182 9.48349C32.6857 9.40676 32.588 9.32655 32.5322 9.24982C32.6124 8.91501 32.7171 8.59416 32.8426 8.29423C32.9682 7.9943 33.1147 7.73273 33.2855 7.50604C33.4529 7.27935 33.6413 7.10148 33.847 6.96547C34.0528 6.83294 34.276 6.76319 34.5167 6.76319C34.7852 6.76319 35.0224 6.82596 35.2281 6.95152C35.4339 7.07707 35.6048 7.23401 35.7443 7.42234C35.8803 7.61067 35.9849 7.80946 36.0582 8.02568C36.1279 8.23843 36.1628 8.43373 36.1628 8.60462C36.1628 8.83131 36.1209 9.02313 36.0407 9.18704L36.0372 9.19053Z" fill="white"/>
<path d="M56.8829 4.67588C57.012 4.67588 57.1236 4.63054 57.2142 4.53986C57.3049 4.44919 57.3503 4.33758 57.3503 4.20506C57.3503 4.0795 57.3049 3.97139 57.2142 3.87723C57.1236 3.78655 57.0155 3.74121 56.8829 3.74121C56.7504 3.74121 56.6458 3.78655 56.5516 3.87723C56.4574 3.9679 56.4121 4.0795 56.4121 4.20506C56.4121 4.33758 56.4574 4.44919 56.5516 4.53986C56.6458 4.63054 56.7539 4.67588 56.8829 4.67588Z" fill="white"/>
<path d="M59.5803 9.56064C59.4792 9.42811 59.3955 9.2642 59.3292 9.06889C59.263 8.87359 59.2106 8.65038 59.1688 8.40626C59.1269 8.16213 59.0886 7.90753 59.0537 7.64248C59.0153 7.35999 58.9456 7.10539 58.8445 6.87522C58.7433 6.64852 58.6108 6.45322 58.4469 6.29279C58.283 6.13237 58.0877 6.0103 57.861 5.92311C57.6343 5.83592 57.3797 5.79407 57.0937 5.79407C56.8286 5.79407 56.5845 5.815 56.3578 5.86034C56.1311 5.90567 55.9114 5.95799 55.6917 6.02425V6.64852C55.7754 6.62062 55.8661 6.5997 55.9637 6.57529C56.0614 6.55436 56.159 6.53344 56.2532 6.51948C56.3474 6.50205 56.4415 6.4881 56.5322 6.47763C56.6229 6.46717 56.7031 6.46368 56.7763 6.46368C57.139 6.46368 57.432 6.52995 57.6517 6.65899C57.8714 6.78803 58.0458 6.95892 58.1748 7.16468C58.3039 7.37045 58.398 7.60412 58.4573 7.86568C58.5201 8.12725 58.5689 8.38533 58.6108 8.63992C58.6282 8.74804 58.6561 8.85615 58.684 8.97124C58.7154 9.08633 58.7503 9.19793 58.7956 9.30605C58.841 9.41416 58.8933 9.5153 58.9561 9.60946C59.0188 9.70363 59.0921 9.78035 59.1723 9.84313H43.5899C43.2795 9.84313 43.004 9.81523 42.7598 9.76292C42.5157 9.7106 42.2995 9.63388 42.1042 9.53274C42.1914 9.29907 42.2367 9.04448 42.2367 8.76896C42.2367 8.49344 42.1809 8.20746 42.0658 7.918C41.9507 7.62853 41.8007 7.34604 41.6089 7.06703C41.4206 6.78803 41.2044 6.516 40.9637 6.25443C40.7231 5.99286 40.4755 5.74525 40.2174 5.51855L39.6733 6.06261C39.9175 6.26838 40.1581 6.4881 40.3918 6.71828C40.6254 6.94845 40.8312 7.18212 41.0126 7.41928C41.1939 7.65992 41.3369 7.89707 41.445 8.13771C41.5531 8.37835 41.6089 8.61551 41.6089 8.84918C41.6089 9.00612 41.5845 9.14562 41.5357 9.26768C41.4869 9.38975 41.4032 9.49437 41.2776 9.58156C41.1521 9.66875 40.9847 9.73153 40.7684 9.77687C40.5557 9.82221 40.2802 9.84313 39.9419 9.84313H38.0098V10.572H40.0918C40.4859 10.572 40.8173 10.5267 41.0893 10.436C41.3613 10.3453 41.581 10.2198 41.7554 10.0559C41.8705 10.1361 41.9856 10.2093 42.1042 10.2721C42.2227 10.3349 42.3518 10.3872 42.4983 10.4325C42.6412 10.4779 42.8017 10.5127 42.9761 10.5372C43.0388 10.5476 43.1121 10.5511 43.1818 10.5581C43.2202 10.5685 43.262 10.5755 43.3213 10.5755H59.9605V9.81872C59.807 9.78035 59.6815 9.69665 59.5803 9.56413V9.56064Z" fill="white"/>
<path d="M8.06506 19.3156C7.54541 19.5143 7.12342 19.8178 6.80256 20.2223C6.48171 20.6269 6.32128 21.1186 6.32128 21.7045C6.32128 22.0672 6.43986 22.4369 6.6805 22.8031C6.92114 23.1728 7.2141 23.4971 7.56285 23.7761L7.7442 23.9191C8.10691 24.1981 8.39987 24.4562 8.61958 24.6899C8.8393 24.9236 8.94741 25.1677 8.94741 25.4153C8.94741 25.7117 8.81489 25.9977 8.54634 26.2732C8.28129 26.5488 7.90812 26.7754 7.42684 26.9498C6.94555 27.1242 6.40149 27.2114 5.78768 27.2114C5.03437 27.2114 4.38568 27.0998 3.84511 26.8801C3.30454 26.6569 2.89301 26.343 2.60703 25.9315C2.32105 25.5199 2.17806 25.0317 2.17806 24.4667C2.17806 24.0656 2.24083 23.668 2.36639 23.2774C2.49194 22.8833 2.68027 22.5311 2.92788 22.2207L1.2678 21.3104C0.915561 21.7813 0.636556 22.3009 0.434277 22.8729C0.231999 23.4448 0.130859 24.0168 0.130859 24.5853C0.130859 25.4816 0.378476 26.2593 0.87371 26.9184C1.36894 27.5776 2.01065 28.0833 2.79536 28.4286C3.64632 28.7982 4.64725 28.9831 5.80163 28.9831C6.5968 28.9831 7.40242 28.8331 8.21154 28.5297C9.02065 28.2263 9.69375 27.7834 10.2239 27.1974C10.7575 26.6115 11.0225 25.9175 11.0225 25.1154C11.0225 24.8085 10.89 24.4771 10.6214 24.1214C10.3564 23.7657 9.91347 23.3437 9.29617 22.8589C8.66841 22.3567 8.35453 21.9487 8.35453 21.6313C8.35453 21.3139 8.49054 21.0698 8.76257 20.9233C9.0346 20.7768 9.33802 20.7071 9.67631 20.7071C9.8751 20.7071 10.1297 20.7524 10.4366 20.8431C10.7435 20.9338 11.0574 21.0524 11.3852 21.1988L11.8526 19.4202C11.0609 19.1516 10.3494 19.0156 9.71468 19.0156C9.12877 19.0156 8.57773 19.1168 8.05809 19.3156H8.06506Z" fill="white"/>
<path d="M7.42641 29.9999C7.27296 29.9092 7.10206 29.8604 6.91374 29.8604C6.62776 29.8604 6.38711 29.958 6.1953 30.1568C6 30.3556 5.90234 30.5927 5.90234 30.8717C5.90234 31.0601 5.94768 31.2344 6.04185 31.3879C6.13252 31.5414 6.25807 31.6634 6.41502 31.7506C6.57196 31.8413 6.73936 31.8866 6.91722 31.8866C7.10555 31.8866 7.27993 31.8413 7.43687 31.7471C7.59381 31.6564 7.71239 31.5309 7.79958 31.374C7.88677 31.217 7.92862 31.0496 7.92862 30.8717C7.92862 30.6939 7.88328 30.5265 7.7926 30.3695C7.70193 30.2126 7.57986 30.0905 7.4299 29.9964L7.42641 29.9999Z" fill="white"/>
<path d="M5.05294 29.9999C4.89949 29.9092 4.7286 29.8604 4.53678 29.8604C4.2508 29.8604 4.01016 29.958 3.81835 30.1568C3.62304 30.3556 3.52539 30.5927 3.52539 30.8717C3.52539 31.0601 3.57073 31.2344 3.66489 31.3879C3.75557 31.5414 3.88112 31.6634 4.03806 31.7506C4.195 31.8413 4.36241 31.8866 4.54027 31.8866C4.73209 31.8866 4.90298 31.8413 5.05992 31.7471C5.21686 31.6564 5.33544 31.5309 5.42262 31.374C5.50981 31.217 5.55166 31.0496 5.55166 30.8717C5.55166 30.6939 5.50633 30.5265 5.41565 30.3695C5.32497 30.2126 5.2064 30.0905 5.05294 29.9964V29.9999Z" fill="white"/>
<path d="M59.3541 26.8915C59.2007 26.8008 59.0298 26.752 58.8415 26.752C58.5555 26.752 58.3148 26.8496 58.123 27.0484C57.9277 27.2472 57.8301 27.4843 57.8301 27.7633C57.8301 27.9517 57.8754 28.1261 57.9696 28.276C58.0603 28.4295 58.1858 28.5515 58.3428 28.6387C58.4997 28.7294 58.6671 28.7747 58.845 28.7747C59.0333 28.7747 59.2077 28.7294 59.3646 28.6352C59.5215 28.5411 59.6401 28.419 59.7273 28.2621C59.8145 28.1051 59.8564 27.9377 59.8564 27.7599C59.8564 27.582 59.811 27.4146 59.7203 27.2577C59.6297 27.1007 59.5076 26.9786 59.3576 26.8845L59.3541 26.8915Z" fill="white"/>
<path d="M57.8984 19.0066V23.7636H39.9793C39.362 23.7567 38.8006 23.652 38.2949 23.4463C38.3228 23.2231 38.3332 23.0417 38.3332 22.8987V14.0996H36.2686V22.7243C36.2686 23.4149 35.9721 23.7602 35.3827 23.7602H21.0942C20.3967 23.7602 19.7864 23.6381 19.2597 23.3974C19.319 23.1603 19.3469 22.9057 19.3469 22.6372C19.3469 21.9187 19.0784 21.1549 18.5413 20.3458C18.0042 19.5367 17.2195 18.7102 16.1907 17.8662L14.7015 19.3205C15.5385 20.0075 16.1907 20.6492 16.6476 21.2456C17.1044 21.842 17.3346 22.3547 17.3346 22.7767C17.3346 23.108 17.2335 23.3556 17.0312 23.516C16.8289 23.6765 16.4453 23.7567 15.8803 23.7567H12.8008V25.49H15.8803C16.4383 25.49 16.944 25.4202 17.3904 25.2842C17.8403 25.1482 18.217 24.9389 18.5308 24.6599C19.1307 25.1831 19.9363 25.4551 20.9407 25.4865C20.9826 25.49 21.0279 25.4935 21.0768 25.4935H36.0524C36.7394 25.4935 37.2869 25.2772 37.6985 24.8448C37.9949 25.0506 38.3297 25.211 38.7064 25.3226C39.0517 25.4272 39.4632 25.4795 39.934 25.49C39.9619 25.49 39.9863 25.4935 40.0177 25.4935H59.9631V19.0066H57.8984Z" fill="white"/>
<path d="M103.2 0V6.76238C102.862 7.07626 102.109 8.09812 101.139 11.3381C101.115 11.4148 101.021 11.4566 100.954 11.4043C100.361 10.9544 97.7528 9.26645 93.3968 10.7975C93.2957 10.8324 93.2887 10.9754 93.3898 11.0172C93.9897 11.2648 95.4021 11.9309 96.1973 12.8342C96.2636 12.904 96.2043 13.0295 96.1032 13.0226C94.4396 12.9702 85.079 13.2074 77.8702 24.5524C77.8039 24.664 77.9364 24.7826 78.0376 24.7129C79.8232 23.4608 86.2368 19.2792 91.8553 19.7361C91.9739 19.7431 92.0018 19.907 91.8972 19.9558C89.8779 20.894 80.9497 25.8045 78.899 39.8105C78.8816 39.9395 79.0525 39.9988 79.1187 39.8872C80.3777 37.6657 85.4591 29.3478 92.49 26.3974C92.6016 26.3485 92.7028 26.4845 92.6261 26.5822C91.2589 28.2562 85.8741 35.7126 87.046 48.0516C87.0564 48.1772 87.2308 48.1981 87.2727 48.076C88.0085 45.701 91.1125 36.3543 96.281 30.6905C96.3647 30.6033 96.5077 30.6731 96.4833 30.7847C96.138 32.9226 94.6 43.4201 96.431 51.6612C96.4624 51.7868 96.6507 51.7728 96.6612 51.6438C96.9576 48.5503 98.2933 36.2671 101.038 32.5076C101.062 32.4762 101.097 32.4587 101.132 32.4587C101.132 32.4587 101.167 32.4587 101.233 32.4518L101.833 39.9744H100.801L101.607 50.05H100.627L101.132 60C85.5637 58.8735 73.291 45.8858 73.291 30.0384C73.291 14.1909 86.6623 0.0697512 103.2 0Z" fill="white"/>
<path d="M103.203 0V6.76238C103.541 7.07626 104.295 8.09812 105.264 11.3381C105.289 11.4148 105.383 11.4566 105.449 11.4043C106.042 10.9544 108.651 9.26645 113.007 10.7975C113.108 10.8324 113.115 10.9754 113.014 11.0172C112.414 11.2648 111.001 11.9309 110.206 12.8342C110.14 12.904 110.199 13.0295 110.3 13.0226C111.964 12.9702 121.324 13.2074 128.533 24.5524C128.6 24.664 128.467 24.7826 128.366 24.7129C126.58 23.4608 120.167 19.2792 114.548 19.7361C114.43 19.7431 114.402 19.907 114.506 19.9558C116.526 20.894 125.454 25.8045 127.504 39.8105C127.522 39.9395 127.351 39.9988 127.285 39.8872C126.026 37.6657 120.944 29.3478 113.913 26.3974C113.802 26.3485 113.701 26.4845 113.777 26.5822C115.145 28.2562 120.529 35.7126 119.358 48.0516C119.347 48.1772 119.173 48.1981 119.131 48.076C118.395 45.701 115.291 36.3543 110.122 30.6905C110.039 30.6033 109.896 30.6731 109.92 30.7847C110.265 32.9226 111.803 43.4201 109.972 51.6612C109.941 51.7868 109.753 51.7728 109.742 51.6438C109.446 48.5503 108.11 36.2671 105.365 32.5076C105.341 32.4762 105.306 32.4587 105.271 32.4587C105.271 32.4587 105.236 32.4587 105.17 32.4518L104.57 39.9744H105.603L104.797 50.05H105.777L105.271 60C120.84 58.8735 133.112 45.8858 133.112 30.0384C133.112 14.1909 119.741 0.0697512 103.203 0Z" fill="white"/>
<path d="M1.0711 57.3019C0.750244 57.1659 0.495652 56.9706 0.310812 56.723C0.125971 56.4754 0.0213441 56.1929 0.00390625 55.872H0.910672C0.935085 56.1371 1.06064 56.3498 1.28035 56.5172C1.50007 56.6846 1.79303 56.7683 2.15224 56.7683C2.48705 56.7683 2.74862 56.6951 2.94043 56.5451C3.13225 56.3987 3.2299 56.2103 3.2299 55.9871C3.2299 55.7639 3.12876 55.5826 2.923 55.471C2.71723 55.3594 2.39986 55.2478 1.97089 55.1396C1.58028 55.0385 1.25943 54.9339 1.01181 54.8258C0.764195 54.7177 0.551453 54.5642 0.377075 54.3549C0.19921 54.1457 0.112021 53.8702 0.112021 53.5319C0.112021 53.2633 0.192235 53.0157 0.352662 52.789C0.51309 52.5658 0.739782 52.3845 1.03622 52.2554C1.33267 52.1229 1.66747 52.0566 2.04762 52.0566C2.63353 52.0566 3.10435 52.2031 3.46357 52.4996C3.82279 52.796 4.0146 53.2006 4.0425 53.7132H3.16712C3.14969 53.4377 3.03808 53.2145 2.83581 53.0471C2.63353 52.8797 2.3615 52.796 2.0232 52.796C1.70932 52.796 1.45822 52.8623 1.27338 52.9983C1.08854 53.1343 0.994374 53.3087 0.994374 53.5284C0.994374 53.7028 1.05017 53.8458 1.16178 53.9574C1.27338 54.069 1.41637 54.1596 1.58726 54.2259C1.75815 54.2922 1.99182 54.3689 2.29523 54.4526C2.67538 54.5537 2.98228 54.6549 3.21944 54.756C3.45659 54.8572 3.66236 55.0036 3.82976 55.2024C4.00065 55.4012 4.08784 55.6628 4.09482 55.9836C4.09482 56.2731 4.0146 56.5312 3.85417 56.7648C3.69375 56.995 3.46706 57.1764 3.1741 57.3089C2.88114 57.4414 2.54634 57.5077 2.16619 57.5077C1.76164 57.5077 1.39893 57.438 1.07808 57.3019H1.0711Z" fill="white"/>
<path d="M13.1885 55.1059H8.96857C8.99996 55.6255 9.17782 56.0336 9.50217 56.323C9.82651 56.616 10.2206 56.7625 10.681 56.7625C11.0611 56.7625 11.375 56.6753 11.6296 56.4974C11.8842 56.3196 12.062 56.0859 12.1632 55.7894H13.1083C12.9653 56.2986 12.6828 56.7102 12.2608 57.0275C11.8353 57.3449 11.3087 57.5053 10.681 57.5053C10.1788 57.5053 9.73235 57.3937 9.33825 57.167C8.94416 56.9438 8.63376 56.623 8.41056 56.208C8.18736 55.7929 8.07227 55.3151 8.07227 54.7676C8.07227 54.22 8.18038 53.7422 8.4001 53.3307C8.61981 52.9192 8.92672 52.6018 9.32081 52.3821C9.71491 52.1624 10.1683 52.0508 10.6844 52.0508C11.2006 52.0508 11.6296 52.1589 12.0132 52.3786C12.3968 52.5983 12.6968 52.8983 12.906 53.2784C13.1153 53.662 13.2199 54.091 13.2199 54.5723C13.2199 54.7397 13.2094 54.9141 13.192 55.1024L13.1885 55.1059ZM12.0899 53.5295C11.9435 53.2889 11.7412 53.104 11.4866 52.9785C11.232 52.8529 10.953 52.7901 10.6426 52.7901C10.1997 52.7901 9.82302 52.9331 9.50914 53.2156C9.19875 53.4981 9.02088 53.8887 8.97554 54.3909H12.3097C12.3097 54.0561 12.2364 53.7702 12.0899 53.5295Z" fill="white"/>
<path d="M18.9935 52.2951C19.2795 52.1276 19.6282 52.0439 20.0398 52.0439V52.9507H19.8096C18.8261 52.9507 18.3344 53.4843 18.3344 54.5515V57.4218H17.459V52.1416H18.3344V52.9995C18.4878 52.6961 18.7075 52.4625 18.9935 52.2951Z" fill="white"/>
<path d="M26.0971 56.6088L27.7363 52.1377H28.6709L26.5993 57.4179H25.5775L23.5059 52.1377H24.451L26.0971 56.6088Z" fill="white"/>
<path d="M32.649 51.1103C32.5339 50.9952 32.4746 50.8522 32.4746 50.6848C32.4746 50.5174 32.5339 50.3779 32.649 50.2593C32.7641 50.1408 32.9071 50.085 33.0745 50.085C33.2419 50.085 33.3709 50.1442 33.4825 50.2593C33.5941 50.3744 33.6499 50.5174 33.6499 50.6848C33.6499 50.8522 33.5941 50.9917 33.4825 51.1103C33.3709 51.2254 33.2349 51.2847 33.0745 51.2847C32.914 51.2847 32.7676 51.2254 32.649 51.1103ZM33.4965 52.1391V57.4193H32.6211V52.1391H33.4965Z" fill="white"/>
<path d="M38.0696 53.3436C38.2893 52.9355 38.5927 52.6181 38.9799 52.3949C39.367 52.1717 39.8134 52.0566 40.3156 52.0566C40.9643 52.0566 41.4979 52.2136 41.9199 52.5275C42.3419 52.8413 42.6174 53.2773 42.7534 53.8388H41.8083C41.7176 53.5179 41.5432 53.2633 41.2816 53.0785C41.0201 52.8937 40.6992 52.7995 40.3121 52.7995C39.8099 52.7995 39.4053 52.9704 39.0984 53.3157C38.7915 53.6574 38.6346 54.1457 38.6346 54.7735C38.6346 55.4012 38.788 55.8999 39.0984 56.2487C39.4053 56.5974 39.8099 56.7683 40.3121 56.7683C40.6957 56.7683 41.0201 56.6777 41.2747 56.4998C41.5327 56.3219 41.7071 56.0638 41.8048 55.729H42.7499C42.6069 56.2696 42.3279 56.7021 41.9024 57.0229C41.4769 57.3473 40.9503 57.5112 40.3121 57.5112C39.8099 57.5112 39.367 57.3996 38.9764 57.1729C38.5892 56.9497 38.2858 56.6288 38.0661 56.2208C37.8464 55.8093 37.7383 55.328 37.7383 54.7769C37.7383 54.2259 37.8464 53.7551 38.0661 53.347L38.0696 53.3436Z" fill="white"/>
<path d="M51.7901 55.1059H47.5701C47.6015 55.6255 47.7794 56.0336 48.1037 56.323C48.4281 56.616 48.8222 56.7625 49.2825 56.7625C49.6627 56.7625 49.9765 56.6753 50.2311 56.4974C50.4857 56.3196 50.6636 56.0859 50.7647 55.7894H51.7099C51.5669 56.2986 51.2844 56.7102 50.8624 57.0275C50.4404 57.3449 49.9103 57.5053 49.2825 57.5053C48.7803 57.5053 48.3339 57.3937 47.9398 57.167C47.5457 56.9438 47.2353 56.623 47.0121 56.208C46.7889 55.7929 46.6738 55.3151 46.6738 54.7676C46.6738 54.22 46.7819 53.7422 47.0017 53.3307C47.2214 52.9192 47.5283 52.6018 47.9224 52.3821C48.3165 52.1624 48.7698 52.0508 49.286 52.0508C49.8022 52.0508 50.2311 52.1589 50.6148 52.3786C50.9984 52.5983 51.2983 52.8983 51.5076 53.2784C51.7168 53.662 51.8215 54.091 51.8215 54.5723C51.8215 54.7397 51.811 54.9141 51.7936 55.1024L51.7901 55.1059ZM50.6915 53.5295C50.545 53.2889 50.3427 53.104 50.0881 52.9785C49.8336 52.8529 49.5546 52.7901 49.2442 52.7901C48.8012 52.7901 48.4246 52.9331 48.1107 53.2156C47.8003 53.4981 47.6224 53.8887 47.5771 54.3909H50.9112C50.9112 54.0561 50.838 53.7702 50.6915 53.5295Z" fill="white"/>
<path d="M56.8367 57.3019C56.5159 57.1659 56.2613 56.9706 56.0764 56.723C55.8916 56.4754 55.787 56.1929 55.7695 55.872H56.6763C56.7007 56.1371 56.8263 56.3498 57.046 56.5172C57.2657 56.6846 57.5587 56.7683 57.9179 56.7683C58.2527 56.7683 58.5142 56.6951 58.7061 56.5451C58.8979 56.3987 58.9955 56.2103 58.9955 55.9871C58.9955 55.7639 58.8944 55.5826 58.6886 55.471C58.4829 55.3594 58.1655 55.2478 57.7365 55.1396C57.3459 55.0385 57.0251 54.9339 56.7774 54.8258C56.5298 54.7177 56.3171 54.5642 56.1427 54.3549C55.9648 54.1457 55.8776 53.8702 55.8776 53.5319C55.8776 53.2633 55.9579 53.0157 56.1183 52.789C56.2787 52.5658 56.5054 52.3845 56.8018 52.2554C57.0983 52.1229 57.4331 52.0566 57.8132 52.0566C58.3992 52.0566 58.87 52.2031 59.2292 52.4996C59.5884 52.796 59.7802 53.2006 59.8081 53.7132H58.9327C58.9153 53.4377 58.8037 53.2145 58.6014 53.0471C58.3992 52.8797 58.1271 52.796 57.7888 52.796C57.4749 52.796 57.2238 52.8623 57.039 52.9983C56.8542 53.1343 56.76 53.3087 56.76 53.5284C56.76 53.7028 56.8158 53.8458 56.9274 53.9574C57.039 54.069 57.182 54.1596 57.3529 54.2259C57.5238 54.2922 57.7574 54.3689 58.0609 54.4526C58.441 54.5537 58.7479 54.6549 58.9851 54.756C59.2222 54.8572 59.428 55.0036 59.5954 55.2024C59.7663 55.4012 59.8535 55.6628 59.8604 55.9836C59.8604 56.2731 59.7802 56.5312 59.6198 56.7648C59.4594 56.995 59.2327 57.1764 58.9397 57.3089C58.6468 57.4414 58.312 57.5077 57.9318 57.5077C57.5273 57.5077 57.1646 57.438 56.8437 57.3019H56.8367Z" fill="white"/>
<path d="M1.40549 37.7844C2.00535 36.637 3.37596 36.0894 4.57568 36.0894C6.99256 36.0894 8.85841 37.6309 8.85841 40.4768C8.85841 43.3226 6.98907 44.8641 4.55824 44.8641C3.30621 44.8641 2.07161 44.3166 1.40549 43.1692L1.33574 44.7107H0V33.418H1.40549V37.7879V37.7844ZM1.47524 40.4594C1.47524 42.3113 2.79354 43.5458 4.47454 43.5458C6.15555 43.5458 7.45641 42.4298 7.45641 40.4768C7.45641 38.5238 6.12067 37.4077 4.47454 37.4077C2.82841 37.4077 1.47524 38.6423 1.47524 40.4594Z" fill="white"/>
<path d="M18.7319 44.7414L18.6971 43.1999C18.0274 44.3647 16.744 44.9123 15.5792 44.9123C13.1449 44.9123 11.2441 43.2313 11.2441 40.4726C11.2441 37.7139 13.1797 36.0852 15.5966 36.1027C16.8661 36.1027 18.1146 36.6851 18.7319 37.7837L18.7494 36.2422H20.12V44.7065H18.7668L18.7319 44.7414ZM15.6489 37.4419C13.9679 37.4419 12.6148 38.6416 12.6148 40.5249C12.6148 42.4082 13.9679 43.6253 15.6489 43.6253C19.7259 43.6253 19.7259 37.421 15.6664 37.421L15.6489 37.4384V37.4419Z" fill="white"/>
<path d="M25.0578 33.4141H23.6523V44.7068H25.0578V33.4141Z" fill="white"/>
<path d="M35.5464 44.7414L35.5115 43.1999C34.8419 44.3647 33.5585 44.9123 32.3936 44.9123C29.9593 44.9123 28.0586 43.2313 28.0586 40.4726C28.0586 37.7139 29.9942 36.0852 32.4111 36.1027C33.6805 36.1027 34.9291 36.6851 35.5464 37.7837L35.5638 36.2422H36.9344V44.7065H35.5813L35.5464 44.7414ZM32.4634 37.4419C30.7824 37.4419 29.4292 38.6416 29.4292 40.5249C29.4292 42.4082 30.7824 43.6253 32.4634 43.6253C36.5403 43.6253 36.5403 37.421 32.4808 37.421L32.4634 37.4384V37.4419Z" fill="white"/>
<path d="M48.6964 33.4009V44.6937H47.3781L47.3084 43.1522C46.6213 44.317 45.3902 44.8646 44.1382 44.8646C41.7213 44.8646 39.8555 43.2707 39.8555 40.4772C39.8555 37.6837 41.7248 36.0899 44.1242 36.0899C45.324 36.0899 46.6946 36.6374 47.2944 37.7848V33.4149H48.6825L48.6999 33.3975L48.6964 33.4009ZM44.2428 37.3942C42.5967 37.3942 41.261 38.4753 41.261 40.4633C41.261 42.4512 42.5967 43.5323 44.2428 43.5323C45.8889 43.5323 47.2421 42.2977 47.2421 40.4493C47.2421 38.6009 45.9064 37.3977 44.2254 37.3977H44.2428V37.3942Z" fill="white"/>
<path d="M58.3088 36.2441L56.4395 40.6664L55.5327 43.0658L54.6085 40.6489L52.9415 36.2441H51.3477L54.762 44.5899L53.3077 47.9693H54.8143L59.8503 36.2441H58.3088Z" fill="white"/>
</svg>
