<svg width="21" height="20" viewBox="0 0 21 20" fill="none" xmlns="http://www.w3.org/2000/svg">
<path fill-rule="evenodd" clip-rule="evenodd" d="M8.45678 1.0415H8.37526C7.04004 1.04149 5.98224 1.04149 5.14539 1.1404C4.28625 1.24196 3.579 1.45516 2.98821 1.94C2.78778 2.10449 2.604 2.28827 2.43952 2.4887C1.95467 3.07949 1.74147 3.78674 1.63992 4.64588C1.541 5.48273 1.54101 6.54053 1.54102 7.87575V7.95726C1.54101 9.29248 1.541 10.3503 1.63992 11.1871C1.74147 12.0463 1.95467 12.7535 2.43952 13.3443C2.604 13.5447 2.78778 13.7285 2.98821 13.893C3.5481 14.3525 4.21259 14.568 5.01221 14.6758C5.66127 14.7632 6.44255 14.7844 7.38327 14.7897C7.39413 15.3081 7.41818 15.7634 7.47145 16.1596C7.5723 16.9097 7.78804 17.5413 8.28964 18.0429C8.79124 18.5445 9.4228 18.7602 10.1729 18.8611C10.8954 18.9582 11.814 18.9582 12.9536 18.9582H13.8784C15.0181 18.9582 15.9367 18.9582 16.6591 18.8611C17.4092 18.7602 18.0408 18.5445 18.5424 18.0429C19.044 17.5413 19.2597 16.9097 19.3606 16.1596C19.4577 15.4372 19.4577 14.5186 19.4577 13.3789V12.4541C19.4577 11.3145 19.4577 10.3959 19.3606 9.67338C19.2597 8.92329 19.044 8.29173 18.5424 7.79013C18.0408 7.28853 17.4092 7.07279 16.6591 6.97194C16.2629 6.91866 15.8076 6.89462 15.2892 6.88376C15.284 5.94304 15.2628 5.16176 15.1753 4.5127C15.0675 3.71308 14.852 3.04859 14.3925 2.4887C14.228 2.28827 14.0443 2.10449 13.8438 1.94C13.253 1.45516 12.5458 1.24196 11.6866 1.1404C10.8498 1.04149 9.792 1.04149 8.45678 1.0415ZM14.0391 6.87485C14.0336 5.94969 14.0127 5.24554 13.9365 4.67964C13.8458 4.00649 13.684 3.59578 13.4263 3.28169C13.3137 3.14456 13.188 3.01881 13.0508 2.90627C12.7197 2.63448 12.281 2.46937 11.5399 2.38176C10.785 2.29253 9.80111 2.2915 8.41602 2.2915C7.03092 2.2915 6.04705 2.29253 5.29212 2.38176C4.55099 2.46937 4.11237 2.63448 3.7812 2.90627C3.64407 3.01881 3.51832 3.14456 3.40578 3.28169C3.134 3.61286 2.96888 4.05148 2.88127 4.79261C2.79204 5.54754 2.79102 6.53141 2.79102 7.9165C2.79102 9.3016 2.79204 10.2855 2.88127 11.0404C2.96888 11.7815 3.134 12.2201 3.40578 12.5513C3.51832 12.6885 3.64407 12.8142 3.7812 12.9267C4.09529 13.1845 4.506 13.3463 5.17915 13.437C5.74505 13.5132 6.4492 13.534 7.37436 13.5396C7.37435 13.4865 7.37435 13.433 7.37435 13.3789V12.4541C7.37433 11.3145 7.37432 10.3959 7.47145 9.67338C7.5723 8.92329 7.78804 8.29173 8.28964 7.79013C8.79124 7.28853 9.4228 7.07279 10.1729 6.97194C10.8954 6.87481 11.814 6.87482 12.9536 6.87484H13.8784C13.9325 6.87484 13.986 6.87484 14.0391 6.87485ZM9.17353 8.67401C9.40416 8.44338 9.72797 8.293 10.3394 8.21079C10.9689 8.12616 11.8032 8.12484 12.9994 8.12484H13.8327C15.0289 8.12484 15.8631 8.12617 16.4926 8.21079C17.1041 8.29301 17.4279 8.44338 17.6585 8.67401C17.8891 8.90465 18.0395 9.22846 18.1217 9.83994C18.2064 10.4694 18.2077 11.3037 18.2077 12.4998V13.3332C18.2077 14.5294 18.2064 15.3636 18.1217 15.9931C18.0395 16.6045 17.8891 16.9284 17.6585 17.159C17.4279 17.3896 17.1041 17.54 16.4926 17.6222C15.8631 17.7068 15.0289 17.7082 13.8327 17.7082H12.9993C11.8032 17.7082 10.9689 17.7068 10.3394 17.6222C9.72797 17.54 9.40416 17.3896 9.17352 17.159C8.94289 16.9284 8.79252 16.6045 8.71031 15.9931C8.62568 15.3636 8.62435 14.5293 8.62435 13.3332V12.4998C8.62435 11.3037 8.62568 10.4694 8.71031 9.83994C8.79252 9.22846 8.94289 8.90465 9.17353 8.67401Z" fill="white"/>
</svg>
