<svg width="112" height="52" viewBox="0 0 112 52" fill="none" xmlns="http://www.w3.org/2000/svg">
<g clip-path="url(#clip0_275_310)">
<path d="M64.584 33.9286V33.9512V41.2211C65.0542 41.2211 109.479 30.7389 109.479 30.7389C111.147 30.3444 111.662 29.9724 111.662 29.1271V21.5303C111.651 22.4771 110.307 23.2097 108.897 23.5366L64.584 33.9286Z" fill="white"/>
<path d="M64.584 44.5702V44.5928V51.8627C65.0542 51.8627 109.479 41.3805 109.479 41.3805C111.147 40.986 111.662 40.614 111.662 39.7687V32.1719C111.651 33.1187 110.307 33.8513 108.897 34.1782L64.584 44.5702Z" fill="white"/>
<path d="M67.3941 19.649L70.7528 20.4154C75.343 19.3334 80.9297 18.0259 87.1993 16.5607L64.584 11.3984V17.8456C64.584 18.7811 65.3453 19.1869 67.3941 19.649Z" fill="white"/>
<path d="M95.1034 14.7114L67.3941 8.38823C65.3453 7.92611 64.584 7.52035 64.584 6.58484V0.137695L110.106 10.5298C109.635 11.0821 108.717 11.5104 107.755 11.7471H107.743L95.1034 14.7114Z" fill="white"/>
<path d="M64.0004 23.3563L57.5293 32.2493C58.1786 32.1028 109.477 20.0426 109.477 20.0426C111.145 19.6481 111.66 19.2761 111.66 18.4308V10.834C111.649 11.7808 110.306 12.5134 108.895 12.8403L64.0004 23.3563Z" fill="white"/>
<path d="M2.52537 14.1247V21.4172C2.52537 21.947 2.447 22.2964 2.27907 22.4992C2.11113 22.6909 1.87602 22.7923 1.54015 22.7923C1.23787 22.7923 0.879607 22.6909 0.476562 22.4992V24.5393C1.23787 24.7986 1.88722 24.9226 2.39102 24.9226C2.9732 24.9226 3.47701 24.7986 3.89125 24.5393C4.30549 24.2801 4.60777 23.9081 4.7981 23.4235C4.98842 22.9388 5.08918 22.2062 5.08918 21.2256V13.5273L2.52537 14.1247Z" fill="white"/>
<path d="M10.8763 10.2471L8.3125 10.8557V18.0806C8.3125 19.0612 8.41326 19.7938 8.60359 20.2785C8.79391 20.7631 9.0962 21.1351 9.51044 21.3943C9.92468 21.6536 10.4173 21.7775 10.9883 21.7775L39.235 21.7663C39.75 21.7437 40.1978 21.6197 40.5785 21.383C40.9927 21.1238 41.295 20.7519 41.4853 20.2672C41.6756 19.7825 41.7764 19.0499 41.7764 18.0693V14.1807L39.2126 14.7894V17.7199C39.2126 18.2384 39.1342 18.5991 38.9663 18.8019C38.8319 18.971 38.6304 19.0612 38.3729 19.0837H33.7827L33.7491 18.3285C33.7491 17.6635 33.6259 17.0098 33.3796 16.2884C33.1333 15.5671 32.7191 14.9472 32.1481 14.4062C31.5771 13.8764 30.827 13.4481 29.909 13.1438C28.9909 12.8395 27.8602 12.6817 26.5279 12.6817C26.0241 12.6817 25.5874 12.6929 25.2404 12.7042C24.8933 12.7155 25.1844 12.7493 24.9157 12.7718L24.6806 15.2515C24.9493 15.2177 25.274 15.1951 25.6434 15.1839C26.0129 15.1726 26.4271 15.1613 26.8749 15.1613C27.6698 15.1613 28.3416 15.229 28.8902 15.3755C29.4388 15.522 29.8866 15.7474 30.2337 16.063C30.5807 16.3786 30.8382 16.7844 30.9838 17.2916C31.1293 17.7763 31.2077 18.3736 31.2077 19.0837H11.716C11.4585 19.0612 11.2682 18.971 11.1226 18.8019C10.9547 18.6103 10.8763 18.2496 10.8763 17.7199V10.2471Z" fill="white"/>
<path d="M46.5771 24.2015C46.7451 24.2015 46.9466 24.2692 47.1258 24.3368C47.3274 24.4383 47.4618 24.5059 47.5737 24.5736V23.3447C47.3722 23.2432 47.1594 23.1418 46.9914 23.0741C46.7899 23.0065 46.6219 22.9727 46.4091 22.9727C46.1739 22.9727 45.9276 23.0065 45.726 23.0741C45.4908 23.1418 45.3117 23.2432 45.1437 23.3785C45.0093 23.48 44.8749 23.6829 44.7741 23.8971C44.6733 24.1339 44.6397 24.3819 44.6397 24.6863C44.6397 24.754 44.6397 24.8554 44.6733 24.9907C44.7069 25.0922 44.7405 25.2275 44.7741 25.2951H44.0574H43.9902V26.3887H47.529V25.2613H46.062C45.9948 25.1936 45.9612 25.0922 45.9276 24.9569C45.894 24.8216 45.894 24.754 45.894 24.6863C45.894 24.4834 45.9612 24.3481 46.0955 24.2692C46.2299 24.2015 46.4091 24.2015 46.5771 24.2015Z" fill="white"/>
<path d="M35.9212 23.4453C35.5292 23.4453 35.1933 23.5806 34.9021 23.8737C34.6109 24.1669 34.4766 24.5051 34.4766 24.9335C34.4766 25.3281 34.6109 25.6663 34.9021 25.9594C35.1597 26.2526 35.5292 26.3878 35.9212 26.3878C36.3131 26.3878 36.6715 26.2187 36.9402 25.9594C37.2314 25.6663 37.3658 25.3281 37.3658 24.9335C37.3658 24.5051 37.2314 24.1781 36.9402 23.8737C36.6379 23.5806 36.3131 23.4453 35.9212 23.4453Z" fill="white"/>
<path d="M39.5696 23.4453C39.1777 23.4453 38.8417 23.5806 38.5505 23.8737C38.2594 24.1669 38.125 24.5051 38.125 24.9335C38.125 25.3281 38.2594 25.6663 38.5505 25.9594C38.8081 26.2526 39.1777 26.3878 39.5696 26.3878C39.9616 26.3878 40.2975 26.2187 40.5887 25.9594C40.8798 25.6663 41.0142 25.3281 41.0142 24.9335C41.0142 24.5051 40.8798 24.1781 40.5887 23.8737C40.2863 23.5806 39.9616 23.4453 39.5696 23.4453Z" fill="white"/>
<path d="M27.0423 23.4453C26.6503 23.4453 26.3144 23.5806 26.0232 23.8737C25.732 24.1669 25.5977 24.5051 25.5977 24.9335C25.5977 25.3281 25.732 25.6663 26.0232 25.9594C26.2808 26.2526 26.6503 26.3878 27.0423 26.3878C27.4342 26.3878 27.7926 26.2187 28.0613 25.9594C28.3525 25.6663 28.4869 25.3281 28.4869 24.9335C28.4869 24.5051 28.3525 24.1781 28.0613 23.8737C27.759 23.5806 27.4342 23.4453 27.0423 23.4453Z" fill="white"/>
<path d="M44.9883 10.2478V21.767H47.5633V9.65039L44.9883 10.2478Z" fill="white"/>
<path d="M2.43487 42.2795H8.81641V39.9013H3.00585V37.9063H8.15586V35.5167H3.00585V33.3639H8.81641V31.0195H2.43487C1.33769 31.0195 0.453229 31.91 0.453229 33.0145V40.2732C0.442033 41.3891 1.33769 42.2795 2.43487 42.2795Z" fill="white"/>
<path d="M47.1377 41.8625C46.3316 40.7466 45.5143 39.6308 44.6858 38.5262C45.2568 38.2331 45.7382 37.8161 46.1077 37.2638C46.5331 36.6213 46.7571 35.8549 46.7571 34.987C46.7571 34.4234 46.6563 33.8824 46.466 33.3978C46.2756 32.9131 46.0069 32.4848 45.6599 32.1354C45.3128 31.786 44.8986 31.5042 44.406 31.3126C43.9245 31.121 43.3872 31.0195 42.8162 31.0195H39.2C38.3827 31.0195 37.7109 31.6958 37.7109 32.5186V42.2682H40.2747V38.853H41.8869C42.2676 39.4053 42.6482 39.9463 43.0289 40.4761C43.4319 41.0397 43.8574 41.6145 44.2828 42.1668L44.3612 42.2682H47.44L47.1377 41.8625ZM40.2747 33.3752H42.805C43.1073 33.3752 43.3536 33.4316 43.5215 33.533C43.7006 33.6457 43.835 33.781 43.9357 33.9388C44.0365 34.1078 44.1037 34.2882 44.1373 34.4685C44.1708 34.6714 44.1932 34.8405 44.1932 34.9757C44.1932 35.235 44.1485 35.4717 44.0701 35.652C43.9805 35.8436 43.8686 36.0127 43.7454 36.1367C43.6111 36.2607 43.4767 36.3508 43.3088 36.4184C43.1408 36.4861 42.9841 36.5086 42.8274 36.5086H40.2859V33.3752H40.2747Z" fill="white"/>
<path d="M17.4941 31.5612V37.8957C17.4941 38.0873 17.4717 38.3127 17.4269 38.5607C17.3933 38.7861 17.3038 39.0228 17.1918 39.2369C17.0798 39.4511 16.9119 39.6202 16.6992 39.7667C16.4977 39.902 16.2066 39.9696 15.8483 39.9696C15.6356 39.9696 15.4565 39.9358 15.3109 39.8794C15.1542 39.8118 15.0198 39.7329 14.9079 39.6427C14.7959 39.5525 14.6952 39.4398 14.6056 39.3158C14.516 39.1919 14.4489 39.0679 14.4041 38.9439L14.3033 38.6959L11.9746 39.7442L12.0866 39.9809C12.4112 40.7135 12.915 41.2996 13.5644 41.7166C14.2137 42.1337 14.9862 42.3478 15.8707 42.3478C16.4977 42.3478 17.0686 42.2351 17.5836 42.0322C18.0986 41.8181 18.5465 41.5137 18.9159 41.1192C19.2854 40.7248 19.5765 40.2514 19.7668 39.6991C19.9683 39.1581 20.0691 38.5494 20.0691 37.8957V30.9639L17.4941 31.5612Z" fill="white"/>
<path d="M28.8767 31.3022C28.8096 31.1444 28.6528 31.043 28.4849 31.043C28.3169 31.043 28.149 31.1557 28.093 31.3022L22.5176 42.2804H25.3277L26.145 40.601H30.8248L31.6533 42.2804H34.4634L28.8767 31.3022ZM27.3765 38.2791L28.4849 35.9234L29.5821 38.2791H27.3765Z" fill="white"/>
</g>
<defs>
<clipPath id="clip0_275_310">
<rect width="111.207" height="51.7241" fill="white" transform="translate(0.453125 0.137695)"/>
</clipPath>
</defs>
</svg>
