<svg width="581" height="270" viewBox="0 0 581 270" fill="none" xmlns="http://www.w3.org/2000/svg">
<path d="M334.754 176.391V176.509V214.458C337.208 214.458 569.104 159.741 569.104 159.741C577.812 157.681 580.5 155.74 580.5 151.327V111.672C580.442 116.614 573.429 120.438 566.065 122.145L334.754 176.391Z" fill="#009969"/>
<path d="M334.754 231.933V232.051V270C337.208 270 569.104 215.283 569.104 215.283C577.812 213.223 580.5 211.282 580.5 206.869V167.214C580.442 172.156 573.429 175.98 566.065 177.687L334.754 231.933Z" fill="#00594F"/>
<path d="M349.423 101.847L366.955 105.848C390.916 100.2 420.078 93.3748 452.806 85.7261L334.754 58.7793V92.4334C334.754 97.3168 338.728 99.4348 349.423 101.847Z" fill="#C7C8C9"/>
<path d="M494.065 76.0747L349.423 43.0678C338.728 40.6555 334.754 38.5375 334.754 33.6541V0L572.377 54.2466C569.922 57.1296 565.13 59.3653 560.104 60.6009H560.046L494.065 76.0747Z" fill="#C7C8C9"/>
<path d="M331.709 121.203L297.93 167.624C301.319 166.859 569.098 103.905 569.098 103.905C577.806 101.846 580.494 99.904 580.494 95.4913V55.8359C580.436 60.7781 573.423 64.6025 566.059 66.3087L331.709 121.203Z" fill="#4CC2BF"/>
<path d="M10.8042 73.0109V111.078C10.8042 113.843 10.3951 115.667 9.51845 116.726C8.64183 117.726 7.41456 118.256 5.66132 118.256C4.0834 118.256 2.21327 117.726 0.109375 116.726V127.375C4.0834 128.728 7.473 129.376 10.1029 129.376C13.1418 129.376 15.7717 128.728 17.934 127.375C20.0964 126.022 21.6743 124.08 22.6678 121.55C23.6613 119.02 24.1873 115.196 24.1873 110.077V69.8926L10.8042 73.0109Z" fill="#54565B"/>
<path d="M54.4026 52.7725L41.0195 55.9496V93.6634C41.0195 98.7821 41.5455 102.606 42.539 105.136C43.5325 107.666 45.1104 109.608 47.2728 110.961C49.4351 112.314 52.0065 112.962 54.987 112.962L202.435 112.903C205.123 112.785 207.461 112.138 209.448 110.902C211.61 109.549 213.188 107.607 214.182 105.078C215.175 102.548 215.701 98.7232 215.701 93.6045V73.3062L202.318 76.4833V91.7806C202.318 94.4871 201.909 96.3698 201.032 97.4289C200.331 98.3114 199.279 98.7821 197.935 98.8997H173.974L173.799 94.9577C173.799 91.4864 173.156 88.074 171.87 84.3085C170.584 80.543 168.422 77.307 165.441 74.4829C162.461 71.7176 158.545 69.4818 153.753 67.8933C148.961 66.3047 143.058 65.481 136.104 65.481C133.474 65.481 131.195 65.5398 129.383 65.5987C127.571 65.6575 129.091 65.834 127.688 65.9517L126.461 78.8956C127.864 78.7191 129.558 78.6014 131.487 78.5426C133.416 78.4837 135.578 78.4249 137.916 78.4249C142.065 78.4249 145.571 78.7779 148.435 79.5428C151.299 80.3076 153.636 81.4843 155.448 83.1317C157.26 84.7791 158.604 86.8972 159.364 89.5448C160.123 92.0748 160.532 95.1931 160.532 98.8997H58.7857C57.4416 98.7821 56.4481 98.3114 55.6883 97.4289C54.8117 96.4286 54.4026 94.5459 54.4026 91.7806V52.7725Z" fill="#54565B"/>
<path d="M240.765 125.616C241.642 125.616 242.694 125.969 243.629 126.322C244.682 126.852 245.383 127.205 245.968 127.558V121.143C244.915 120.614 243.805 120.084 242.928 119.731C241.876 119.378 240.999 119.201 239.888 119.201C238.661 119.201 237.375 119.378 236.322 119.731C235.095 120.084 234.16 120.614 233.283 121.32C232.581 121.849 231.88 122.909 231.354 124.027C230.828 125.263 230.652 126.557 230.652 128.146C230.652 128.5 230.652 129.029 230.828 129.735C231.003 130.265 231.178 130.971 231.354 131.324H227.612H227.262V137.033H245.734V131.148H238.076C237.725 130.795 237.55 130.265 237.375 129.559C237.199 128.853 237.199 128.5 237.199 128.146C237.199 127.087 237.55 126.381 238.251 125.969C238.953 125.616 239.888 125.616 240.765 125.616Z" fill="#54565B"/>
<path d="M185.142 121.669C183.096 121.669 181.343 122.375 179.823 123.905C178.303 125.435 177.602 127.201 177.602 129.437C177.602 131.497 178.303 133.262 179.823 134.793C181.167 136.323 183.096 137.029 185.142 137.029C187.188 137.029 189.059 136.146 190.462 134.793C191.982 133.262 192.683 131.497 192.683 129.437C192.683 127.201 191.982 125.494 190.462 123.905C188.884 122.375 187.188 121.669 185.142 121.669Z" fill="#54565B"/>
<path d="M204.181 121.669C202.135 121.669 200.382 122.375 198.862 123.905C197.342 125.435 196.641 127.201 196.641 129.437C196.641 131.497 197.342 133.262 198.862 134.793C200.206 136.323 202.135 137.029 204.181 137.029C206.227 137.029 207.981 136.146 209.501 134.793C211.021 133.262 211.722 131.497 211.722 129.437C211.722 127.201 211.021 125.494 209.501 123.905C207.923 122.375 206.227 121.669 204.181 121.669Z" fill="#54565B"/>
<path d="M138.791 121.669C136.745 121.669 134.991 122.375 133.471 123.905C131.951 125.435 131.25 127.201 131.25 129.437C131.25 131.497 131.951 133.262 133.471 134.793C134.816 136.323 136.745 137.029 138.791 137.029C140.837 137.029 142.707 136.146 144.11 134.793C145.63 133.262 146.332 131.497 146.332 129.437C146.332 127.201 145.63 125.494 144.11 123.905C142.532 122.375 140.837 121.669 138.791 121.669Z" fill="#54565B"/>
<path d="M232.469 52.7755V112.906H245.91V49.6572L232.469 52.7755Z" fill="#54565B"/>
<path d="M10.3369 219.984H43.6485V207.57H13.3174V197.156H40.2005V184.683H13.3174V173.445H43.6485V161.207H10.3369C4.60961 161.207 -0.00727051 165.855 -0.00727051 171.621V209.511C-0.065712 215.336 4.60961 219.984 10.3369 219.984Z" fill="#54565B"/>
<path d="M243.684 217.807C239.477 211.982 235.21 206.158 230.886 200.392C233.866 198.862 236.379 196.685 238.308 193.802C240.528 190.448 241.697 186.448 241.697 181.917C241.697 178.975 241.171 176.151 240.178 173.621C239.184 171.091 237.782 168.856 235.97 167.032C234.158 165.208 231.996 163.737 229.425 162.737C226.912 161.737 224.106 161.207 221.126 161.207H202.249C197.983 161.207 194.477 164.737 194.477 169.032V219.925H207.86V202.098H216.275C218.262 204.981 220.249 207.805 222.236 210.57C224.34 213.512 226.561 216.513 228.782 219.396L229.191 219.925H245.262L243.684 217.807ZM207.86 173.504H221.067C222.645 173.504 223.931 173.798 224.808 174.327C225.743 174.916 226.444 175.622 226.97 176.446C227.496 177.328 227.847 178.269 228.022 179.211C228.197 180.27 228.314 181.152 228.314 181.858C228.314 183.212 228.08 184.447 227.671 185.389C227.204 186.389 226.619 187.271 225.977 187.918C225.275 188.566 224.574 189.036 223.697 189.389C222.821 189.742 222.003 189.86 221.184 189.86H207.918V173.504H207.86Z" fill="#54565B"/>
<path d="M88.9484 164.032V197.098C88.9484 198.098 88.8315 199.275 88.5977 200.569C88.4224 201.746 87.9549 202.982 87.3704 204.1C86.786 205.217 85.9094 206.1 84.799 206.865C83.7471 207.571 82.2276 207.924 80.3575 207.924C79.2471 207.924 78.312 207.747 77.5523 207.453C76.7341 207.1 76.0328 206.688 75.4484 206.218C74.864 205.747 74.338 205.159 73.8705 204.511C73.4029 203.864 73.0523 203.217 72.8185 202.57L72.2925 201.275L60.1367 206.747L60.7211 207.983C62.4159 211.807 65.0458 214.866 68.4354 217.043C71.825 219.22 75.8575 220.338 80.4744 220.338C83.7471 220.338 86.7276 219.75 89.4159 218.691C92.1042 217.573 94.4419 215.984 96.3704 213.925C98.299 211.866 99.8185 209.395 100.812 206.512C101.864 203.688 102.39 200.511 102.39 197.098V160.914L88.9484 164.032Z" fill="#54565B"/>
<path d="M148.371 162.678C148.02 161.855 147.202 161.325 146.325 161.325C145.448 161.325 144.572 161.914 144.28 162.678L115.176 219.984H129.845L134.111 211.218H158.539L162.864 219.984H177.533L148.371 162.678ZM140.539 199.098L146.325 186.801L152.052 199.098H140.539Z" fill="#54565B"/>
</svg>
