<svg width="26" height="22" viewBox="0 0 26 22" fill="none" xmlns="http://www.w3.org/2000/svg">
<path fill-rule="evenodd" clip-rule="evenodd" d="M16.4073 0.250947C14.1288 0.193697 11.8725 0.193694 9.59397 0.25094L9.52611 0.252644C7.74715 0.297311 6.31567 0.333252 5.16847 0.533043C3.96738 0.742216 2.99121 1.14341 2.16654 1.97122C1.34532 2.79556 0.946231 3.7577 0.741036 4.93931C0.545655 6.06441 0.515898 7.46095 0.479036 9.19093L0.477575 9.25946C0.452787 10.4219 0.452787 11.5775 0.477577 12.7399L0.479037 12.8084C0.515901 14.5384 0.54566 15.9349 0.741041 17.06C0.946236 18.2416 1.34532 19.2038 2.16654 20.0281C2.99122 20.8559 3.96739 21.2571 5.16847 21.4663C6.31566 21.6661 7.74711 21.702 9.52605 21.7467L9.59398 21.7484C11.8725 21.8057 14.1288 21.8057 16.4073 21.7484L16.4753 21.7467C18.2542 21.702 19.6856 21.6661 20.8328 21.4663C22.0339 21.2571 23.0101 20.8559 23.8348 20.0281C24.656 19.2038 25.0551 18.2416 25.2603 17.06C25.4557 15.9349 25.4854 14.5384 25.5223 12.8084L25.5237 12.7399C25.5485 11.5775 25.5485 10.4219 25.5237 9.25948L25.5223 9.19096C25.4854 7.46097 25.4557 6.06443 25.2603 4.93933C25.0551 3.75772 24.656 2.79558 23.8348 1.97124C23.0101 1.14343 22.0339 0.742235 20.8328 0.53306C19.6856 0.333267 18.2542 0.297322 16.4752 0.252652L16.4073 0.250947ZM9.63792 2.00039C11.8872 1.94388 14.1141 1.94388 16.3634 2.0004C18.2262 2.0472 19.5278 2.08212 20.5326 2.25711C21.498 2.42525 22.1 2.70947 22.595 3.20632C22.7979 3.41003 22.9646 3.62931 23.1019 3.88102L16.1709 7.80819C14.7064 8.63799 13.8177 8.95802 13.0008 8.95802C12.1839 8.95802 11.2952 8.63799 9.83065 7.80819L2.89943 3.88091C3.03673 3.62925 3.20341 3.40999 3.40632 3.20631C3.9013 2.70945 4.50326 2.42523 5.46872 2.25709C6.47349 2.08211 7.77514 2.04719 9.63792 2.00039ZM2.4085 5.61414C2.28779 6.53793 2.26111 7.70555 2.22718 9.29677C2.20292 10.4343 2.20292 11.565 2.22718 12.7026C2.26588 14.5174 2.29514 15.7811 2.46524 16.7606C2.62809 17.6984 2.9079 18.2927 3.40633 18.793C3.9013 19.2899 4.50327 19.5741 5.46872 19.7423C6.4735 19.9172 7.77515 19.9522 9.63793 19.999C11.8872 20.0555 14.1141 20.0555 16.3634 19.999C18.2262 19.9522 19.5278 19.9172 20.5326 19.7423C21.498 19.5741 22.1 19.2899 22.595 18.793C23.0934 18.2927 23.3732 17.6984 23.5361 16.7606C23.7062 15.7811 23.7354 14.5174 23.7741 12.7026C23.7984 11.5651 23.7984 10.4343 23.7741 9.29679C23.7402 7.70563 23.7135 6.53804 23.5928 5.61427L17.0336 9.33077C15.5248 10.1857 14.2987 10.708 13.0008 10.708C11.7029 10.708 10.4768 10.1857 8.96794 9.33077L2.4085 5.61414Z" fill="white"/>
</svg>
