<svg width="476" height="200" viewBox="0 0 476 200" fill="none" xmlns="http://www.w3.org/2000/svg">
<path d="M58.6243 102.595H37.0342C32.1552 102.595 28.2908 101.371 25.4708 98.923C22.6359 96.4752 21.2334 92.684 21.2334 87.5496C21.2334 84.3854 21.6213 81.1018 22.3972 77.7137C23.173 74.3255 24.0683 70.8777 25.0978 67.3553L5.68614 60.6686C4.31345 64.7881 3.03028 68.8777 1.83664 72.9524C0.642993 77.0271 0.03125 81.1615 0.03125 85.3556C0.03125 88.878 0.657914 92.296 1.89632 95.6393C3.13473 98.9827 5.19376 101.983 8.07343 104.639C10.9382 107.296 14.7429 109.416 19.4429 111.013C24.1578 112.595 30.0216 113.386 37.0492 113.386H80.4978V4.99609H58.6392V102.595H58.6243Z" fill="#002F56"/>
<path d="M132.674 95.0125H252.74C266.705 95.0125 273.688 88.7586 273.688 76.236V36.8921H236.67C217.646 36.8921 208.127 45.6385 208.127 63.1313V71.3554L220.854 84.0869H117.753V4.99609H95.8945V95.0125H132.659H132.674ZM229.986 60.9373C229.986 52.0267 233.716 47.5639 241.176 47.5639H251.844V78.2958C251.844 82.1466 250.68 84.0869 248.368 84.0869H239.371L229.986 74.6987V60.9373Z" fill="#002F56"/>
<path d="M255.951 12.5783L243.746 0.369141L231.914 12.5783L243.746 24.668L255.951 12.5783Z" fill="#002F56"/>
<path d="M142.18 198.462H159.756L178.079 160.73L179.123 162.207L204.995 198.372H221.87V113.027H182.346L142.18 198.476V198.462ZM194.387 126.356H206.025V174.969L186.121 145.416L194.387 126.356Z" fill="#002F56"/>
<path d="M111.904 127.177H153.681V113.013H96.043V198.492H111.904V165.282H111.948V151.357H111.904V127.177Z" fill="#002F56"/>
<path d="M251.727 184.208V113.013H235.852V198.492H287.208V184.208H251.727Z" fill="#002F56"/>
<path d="M150.323 146.805H112.066V160.969H150.323V146.805Z" fill="#002F56"/>
<path d="M403.277 175.148V198.716L335.434 130.834H358.769L403.277 175.148Z" fill="#005257"/>
<path d="M407.617 175.148V198.716L475.476 130.834H452.14L407.617 175.148Z" fill="#005257"/>
<path d="M451.927 96.8936H475.472L407.613 164.775V141.417L451.927 96.8936Z" fill="#00848D"/>
<path d="M451.927 92.5496H475.472L407.613 24.668V48.0265L451.927 92.5496Z" fill="#00848D"/>
<path d="M374.734 49.2951V25.7275L442.578 93.6092H419.242L374.734 49.2951Z" fill="#00A488"/>
<path d="M370.39 49.2951V25.7275L302.531 93.6092H325.867L370.39 49.2951Z" fill="#00A488"/>
<path d="M326.091 127.551H302.531L370.39 59.6689V83.0275L326.091 127.551Z" fill="#10CFC9"/>
<path d="M326.091 131.894H302.531L370.39 199.775V176.417L326.091 131.894Z" fill="#10CFC9"/>
</svg>
