<svg width="225" height="41" viewBox="0 0 225 41" fill="none" xmlns="http://www.w3.org/2000/svg">
<path d="M10.4715 20.8879H7.17363C6.42837 20.8879 5.83808 20.6998 5.40734 20.3235C4.97431 19.9473 4.76007 19.3645 4.76007 18.5753C4.76007 18.0889 4.81933 17.5842 4.93784 17.0634C5.05636 16.5426 5.1931 16.0126 5.35036 15.4712L2.38526 14.4433C2.17558 15.0766 1.97958 15.7052 1.79725 16.3315C1.61493 16.9578 1.52148 17.5934 1.52148 18.238C1.52148 18.7795 1.61721 19.3049 1.80637 19.8188C1.99554 20.3327 2.31005 20.7939 2.74991 21.2022C3.1875 21.6106 3.76867 21.9364 4.48658 22.1819C5.20678 22.4251 6.10246 22.5467 7.17591 22.5467H13.8126V5.88574H10.4738V20.8879H10.4715Z" fill="white"/>
<path d="M21.782 19.7224H40.1219C42.2551 19.7224 43.3217 18.7611 43.3217 16.8363V10.7886H37.6673C34.7614 10.7886 33.3074 12.133 33.3074 14.8219V16.086L35.2515 18.043H19.5029V5.88574H16.1641V19.7224H21.7797H21.782ZM36.6463 14.4846C36.6463 13.115 37.216 12.429 38.3556 12.429H39.9851V17.1529C39.9851 17.7448 39.8074 18.043 39.4541 18.043H38.0798L36.6463 16.5999V14.4846Z" fill="white"/>
<path d="M40.613 7.05151L38.7487 5.1748L36.9414 7.05151L38.7487 8.90986L40.613 7.05151Z" fill="white"/>
<path d="M23.2344 35.6236H25.9191L28.7179 29.8237L28.8774 30.0508L32.8293 35.6098H35.407V22.4912H29.3697L23.2344 35.6259V35.6236ZM31.2089 24.54H32.9866V32.0124L29.9463 27.4698L31.2089 24.54Z" fill="white"/>
<path d="M18.6102 24.6665H24.9916V22.4893H16.1875V35.6285H18.6102V30.5238H18.617V28.3832H18.6102V24.6665Z" fill="white"/>
<path d="M39.9679 33.4329V22.4893H37.543V35.6285H45.3876V33.4329H39.9679Z" fill="white"/>
<path d="M24.4784 27.6836H18.6348V29.8608H24.4784V27.6836Z" fill="white"/>
<path d="M63.1169 32.0402V35.6628L52.7539 25.2285H56.3184L63.1169 32.0402Z" fill="white"/>
<path d="M63.7793 32.0402V35.6628L74.1446 25.2285H70.5801L63.7793 32.0402Z" fill="white"/>
<path d="M70.5482 20.0107H74.1446L63.7793 30.445V26.8545L70.5482 20.0107Z" fill="white"/>
<path d="M70.5482 19.3435H74.1446L63.7793 8.90918V12.4997L70.5482 19.3435Z" fill="white"/>
<path d="M58.7559 12.6949V9.07227L69.1189 19.5066H65.5544L58.7559 12.6949Z" fill="white"/>
<path d="M58.0938 12.6949V9.07227L47.7285 19.5066H51.293L58.0938 12.6949Z" fill="white"/>
<path d="M51.3272 24.7234H47.7285L58.0938 14.2891V17.8796L51.3272 24.7234Z" fill="white"/>
<path d="M51.3272 25.3906H47.7285L58.0938 35.8249V32.2344L51.3272 25.3906Z" fill="white"/>
<path d="M208.409 29.7815C208.138 29.9634 207.837 30.0202 207.525 30.0225C206.678 30.027 205.831 30.027 204.983 30.0225C204.717 30.0225 204.464 29.9566 204.247 29.7792C203.953 29.9747 203.625 30.0225 203.289 30.0225C201.357 30.0225 199.427 30.0225 197.495 30.0225C197.479 30.0225 197.466 30.0225 197.445 30.0225C196.946 29.6133 196.447 29.2018 195.947 28.7904C195.947 28.4562 195.947 28.1266 195.947 27.7947C195.947 27.4809 195.947 27.1695 196.015 26.8603C196.185 26.1147 196.657 25.6851 197.391 25.5441C197.601 25.5032 197.816 25.4827 198.028 25.4827C199.032 25.4759 200.871 25.4805 200.871 25.4805V25.7578V26.5034C200.871 26.5034 200.875 28.2948 200.875 29.1905V29.2882H203.331V26.0692H204.764V26.9217C204.764 26.9217 204.764 28.1902 204.766 28.8245C204.766 28.8904 204.771 28.9586 204.782 29.0245C204.809 29.1905 204.888 29.2655 205.056 29.2859C205.108 29.2928 205.162 29.2973 205.216 29.2973C205.955 29.2973 206.694 29.2973 207.435 29.2973C207.453 29.2973 207.471 29.2973 207.5 29.2928V26.067H208.928V27.1422C208.928 27.1422 208.931 28.2607 208.933 28.8199C208.933 28.8858 208.937 28.954 208.949 29.02C208.974 29.1859 209.055 29.2632 209.22 29.2837C209.279 29.2905 209.337 29.295 209.396 29.295C210.223 29.295 211.048 29.295 211.875 29.295C211.895 29.295 211.913 29.295 211.94 29.2928C211.936 29.2791 211.934 29.2677 211.929 29.2609C211.705 28.9427 211.606 28.5812 211.588 28.1993C211.57 27.7833 211.57 26.9535 211.57 26.9535V26.2102H212.944V24.4234C212.971 24.4211 212.991 24.4188 213.009 24.4188C213.748 24.4188 214.489 24.4097 215.228 24.4234C215.897 24.4347 216.527 24.5984 217.074 25.0008C217.662 25.4327 217.991 26.0215 218.071 26.7489C218.093 26.949 218.091 27.1536 218.1 27.3491C217.648 27.7537 217.207 28.1493 216.76 28.5471C216.905 28.7722 217.047 28.9904 217.259 29.1495C217.415 29.2677 217.598 29.295 217.788 29.295C218.003 29.295 218.215 29.2882 218.43 29.2882C218.767 29.2882 219.103 29.2928 219.44 29.295C219.465 29.295 219.49 29.295 219.526 29.295V23.1299H220.97V23.9437C220.97 23.9437 220.97 27.0081 220.97 28.5403C220.97 28.7472 220.958 28.9518 220.897 29.1495C220.755 29.6247 220.421 29.8815 219.953 29.9747C219.783 30.0066 219.609 30.0202 219.435 30.0225C218.699 30.027 217.96 30.0179 217.223 30.027C216.681 30.0338 216.229 29.8406 215.84 29.4723C215.825 29.4587 215.811 29.4451 215.795 29.4291C215.791 29.4269 215.786 29.4246 215.775 29.4178C215.553 29.6178 215.33 29.8202 215.102 30.0247H215.022C213.1 30.0247 211.174 30.0247 209.252 30.0247C208.994 30.0247 208.743 29.9907 208.517 29.852C208.483 29.8315 208.449 29.8065 208.411 29.7792L208.409 29.7815ZM199.434 26.2215C199.434 26.2215 199.418 26.2125 199.413 26.2125C199.013 26.217 198.611 26.2034 198.214 26.2284C197.811 26.2534 197.545 26.4943 197.445 26.8876C197.411 27.0195 197.393 27.1604 197.391 27.2968C197.384 27.8333 197.389 28.3698 197.389 28.9063C197.389 28.9177 197.389 28.9313 197.391 28.9449C197.536 29.0654 197.68 29.1836 197.816 29.2928H199.436V26.2215H199.434ZM215.275 28.7858C214.923 28.1629 214.573 27.5491 214.227 26.9376H213.018C213.018 26.9581 213.016 26.974 213.016 26.9876C213.016 27.3946 213.016 27.8038 213.016 28.2107C213.016 28.3175 213.03 28.4266 213.048 28.5312C213.133 28.995 213.42 29.2587 213.89 29.2859C214.157 29.3018 214.426 29.2882 214.706 29.2882C214.891 29.1245 215.086 28.9518 215.275 28.7835V28.7858ZM215.425 26.2125C215.734 26.7512 216.044 27.2877 216.356 27.8288C216.457 27.7401 216.552 27.656 216.64 27.581C216.64 27.3218 216.649 27.0718 216.638 26.824C216.622 26.5284 216.559 26.2397 216.428 25.9715C216.209 25.5259 215.872 25.219 215.366 25.1667C215.045 25.1349 214.72 25.1531 214.397 25.1508C214.392 25.1508 214.387 25.1554 214.385 25.1577V26.2125H215.427H215.425Z" fill="white"/>
<path d="M223.588 30.0231H222.158V23.1328H223.588V30.0231Z" fill="white"/>
<path d="M205.143 23.5847V24.5122H204.424V23.9802C204.117 23.9006 203.909 24.053 203.904 24.3576C203.902 24.5326 203.904 24.7054 203.904 24.8827C203.977 24.9509 204.051 25.0168 204.128 25.0896H205.353V25.5715H202.924V25.0896H203.43C203.312 24.985 203.211 24.8941 203.125 24.8145C203.125 24.6076 203.109 24.4144 203.129 24.2235C203.166 23.8802 203.385 23.662 203.724 23.6051C203.816 23.5892 203.911 23.5801 204.006 23.5801C204.386 23.5778 205.145 23.5801 205.145 23.5801V23.5847H205.143Z" fill="white"/>
<path d="M199.583 22.9528C199.861 23.2324 200.143 23.5165 200.417 23.7916C200.139 24.0712 199.856 24.3554 199.581 24.6327C199.305 24.3645 199.022 24.0871 198.735 23.8075C198.462 24.0849 198.18 24.369 197.893 24.6577C197.61 24.3668 197.337 24.0849 197.057 23.7962C197.335 23.5097 197.61 23.2256 197.886 22.9414C198.171 23.2278 198.451 23.5097 198.726 23.7871C199.018 23.5029 199.303 23.2256 199.583 22.9505V22.9528Z" fill="white"/>
<path d="M206.316 31.637C206.608 31.3529 206.893 31.0778 207.168 30.8096C207.435 31.0778 207.715 31.3597 207.991 31.637C207.72 31.9098 207.437 32.1917 207.168 32.4645C206.89 32.194 206.606 31.9189 206.316 31.637Z" fill="white"/>
<path d="M209.693 31.6416C209.421 31.9144 209.141 32.1963 208.868 32.4691C208.588 32.1963 208.303 31.9212 208.014 31.6393C208.305 31.3552 208.59 31.0778 208.866 30.8096C209.132 31.0778 209.415 31.362 209.693 31.6416Z" fill="white"/>
<path d="M179.084 23.1295H180.528V29.2924H183.42C183.411 29.2788 183.407 29.2674 183.398 29.2606C183.011 28.9151 182.799 28.4718 182.711 27.9694C182.648 27.6079 182.616 27.2419 182.571 26.8782C182.562 26.81 182.557 26.7418 182.548 26.6713C182.842 26.269 183.136 25.8689 183.429 25.4688C183.721 25.4688 184.01 25.4688 184.297 25.4688C184.738 25.471 185.181 25.4642 185.621 25.4847C186.114 25.5051 186.593 25.6097 187.022 25.8689C187.454 26.128 187.734 26.4963 187.784 27.0123C187.831 27.4965 187.729 27.9557 187.497 28.3831C187.314 28.7218 187.07 29.0083 186.769 29.2447C186.755 29.256 186.742 29.2674 186.715 29.2879H189.713V23.1295H191.155V23.9957C191.155 23.9957 191.155 27.0237 191.155 28.5377C191.155 28.7446 191.144 28.9492 191.085 29.1469C190.942 29.6243 190.606 29.8835 190.134 29.9744C189.973 30.004 189.81 30.0199 189.648 30.0199C186.152 30.0221 182.659 30.0199 179.163 30.0199H179.082V29.913C179.082 27.9057 179.082 23.8911 179.082 23.8911V23.125L179.084 23.1295ZM183.94 26.2076C183.94 26.2371 183.94 26.2621 183.945 26.2871C183.976 26.5872 184.006 26.8896 184.044 27.1896C184.082 27.4806 184.114 27.7761 184.177 28.0626C184.259 28.4263 184.415 28.7605 184.688 29.0264C184.835 29.1697 185.009 29.2606 185.208 29.3061C185.411 29.1901 185.585 29.0401 185.734 28.8628C186.163 28.3604 186.389 27.7875 186.347 27.1192C186.328 26.8327 186.22 26.5872 185.987 26.4076C185.788 26.253 185.558 26.2053 185.312 26.2053C184.878 26.2053 184.444 26.2053 184.01 26.2053C183.988 26.2053 183.965 26.2076 183.94 26.2098V26.2076Z" fill="white"/>
<path d="M174.327 30.0272C174.076 29.7726 173.821 29.5135 173.563 29.252C173.511 29.3225 173.464 29.3884 173.412 29.4498C173.132 29.7794 172.763 29.9363 172.348 29.9954C172.199 30.0159 172.047 30.0272 171.898 30.0272C170.212 30.0272 168.527 30.0272 166.839 30.0272H166.769C166.269 29.6158 165.77 29.2066 165.262 28.7883C165.271 28.2541 165.264 27.7176 165.291 27.1833C165.311 26.7946 165.433 26.4286 165.687 26.1194C165.953 25.7944 166.308 25.6239 166.708 25.5489C166.918 25.5102 167.133 25.4875 167.345 25.4852C168.351 25.4784 170.197 25.4829 170.197 25.4829V25.8467V26.415C170.197 26.415 170.199 28.2677 170.199 29.1952V29.2998H170.282C170.576 29.2998 170.87 29.2998 171.161 29.2998C171.32 29.2998 171.478 29.2998 171.634 29.2998C171.9 29.2998 172.101 29.1816 172.208 28.9383C172.282 28.7678 172.332 28.586 172.368 28.4041C172.479 27.8585 172.565 27.3107 172.682 26.7651C172.757 26.4127 172.926 26.1013 173.213 25.8717C173.453 25.6807 173.733 25.5875 174.029 25.5489C174.228 25.5216 174.429 25.5057 174.63 25.5034C175.703 25.4988 177.716 25.5034 177.716 25.5034V26.7491C177.716 26.7491 177.728 27.7767 177.712 28.2882C177.698 28.7269 177.572 29.1316 177.26 29.4589C176.987 29.7453 176.641 29.8976 176.259 29.9636C176.04 30.0022 175.814 30.0204 175.59 30.0272C175.172 30.0363 174.754 30.0295 174.327 30.0295V30.0272ZM176.275 26.2422C175.787 26.2422 175.308 26.2331 174.829 26.2445C174.485 26.2536 174.243 26.4241 174.149 26.7696C174.112 26.8992 174.088 27.0333 174.063 27.1674C173.988 27.5675 173.916 27.9676 173.846 28.3359C174.164 28.6678 174.469 28.9838 174.761 29.2861C175.007 29.2861 175.235 29.2998 175.461 29.2839C175.798 29.2589 176.056 29.0929 176.175 28.7678C176.23 28.6223 176.268 28.4609 176.27 28.3041C176.282 27.6289 176.277 26.9537 176.279 26.2809C176.279 26.2695 176.277 26.2558 176.275 26.2422ZM168.753 29.2952V26.2013C168.33 26.2104 167.912 26.2058 167.496 26.2354C167.203 26.2558 166.965 26.4104 166.841 26.6878C166.782 26.8196 166.73 26.9651 166.728 27.1061C166.717 27.7153 166.724 28.3268 166.724 28.952C166.855 29.0611 167.002 29.1793 167.139 29.293H168.755L168.753 29.2952Z" fill="white"/>
<path d="M192.352 23.1299H193.784V24.071C193.784 24.071 193.786 27.9674 193.786 29.9134C193.786 29.9475 193.786 29.9793 193.786 30.0202H192.352V23.1299Z" fill="white"/>
<path d="M167.211 22.9385C167.495 23.2272 167.776 23.5113 168.049 23.7887C168.34 23.5045 168.625 23.2272 168.908 22.9498C169.186 23.2295 169.466 23.5113 169.741 23.791C169.461 24.0728 169.181 24.357 168.903 24.6343C168.625 24.3616 168.343 24.0842 168.054 23.8046C167.778 24.0819 167.495 24.3661 167.211 24.6548C166.931 24.3661 166.657 24.0842 166.377 23.7955C166.655 23.5091 166.931 23.2249 167.208 22.9385H167.211Z" fill="white"/>
<path d="M150.565 25.4714C150.714 25.4714 150.858 25.4714 151.003 25.4714C151.584 25.4759 152.167 25.4668 152.747 25.4873C153.244 25.5032 153.723 25.61 154.157 25.8715C154.589 26.1306 154.869 26.4989 154.921 27.0126C154.968 27.5037 154.865 27.9652 154.627 28.3971C154.444 28.729 154.203 29.0109 153.906 29.2473C153.893 29.2587 153.879 29.27 153.852 29.2905H156.851V23.1322H158.295V23.9983C158.295 23.9983 158.295 26.9854 158.297 28.4789C158.297 28.7472 158.281 29.0131 158.182 29.2655C158.179 29.2723 158.182 29.2791 158.182 29.2927H160.498V23.1299H161.935V24.2961C161.935 24.2961 161.939 27.1286 161.939 28.5471C161.939 28.754 161.926 28.9563 161.867 29.1564C161.725 29.6315 161.388 29.8884 160.92 29.977C160.755 30.0088 160.586 30.0247 160.419 30.0247C153.47 30.0247 146.52 30.0247 139.572 30.0247H139.488V29.9134C139.488 27.9083 139.488 23.9005 139.488 23.9005V23.1299H140.93V29.2927H143.874C143.531 28.9404 143.183 28.5812 142.832 28.2198C142.844 27.7878 142.801 27.3491 142.902 26.9194C143.072 26.1965 143.537 25.7805 144.249 25.6419C144.471 25.5987 144.699 25.5782 144.925 25.5759C145.899 25.5691 147.697 25.5737 147.697 25.5737V25.6782V26.7489C147.697 26.7489 147.702 27.7856 147.702 28.3039C147.702 28.6335 147.715 28.9654 147.587 29.2905H150.556C150.556 29.2905 150.544 29.27 150.537 29.2632C150.151 28.9177 149.939 28.4744 149.848 27.972C149.785 27.6082 149.753 27.24 149.706 26.874C149.697 26.8081 149.692 26.7421 149.683 26.6739C149.977 26.2716 150.271 25.8715 150.565 25.4714ZM152.343 29.3064C152.549 29.1905 152.722 29.0381 152.874 28.8586C153.299 28.3584 153.527 27.7856 153.482 27.1218C153.464 26.8308 153.353 26.5785 153.113 26.3989C152.917 26.2511 152.691 26.2034 152.451 26.2034C152.015 26.2034 151.579 26.2034 151.143 26.2034C151.12 26.2034 151.1 26.2056 151.073 26.2079C151.087 26.3329 151.098 26.4489 151.111 26.5671C151.161 26.9945 151.202 27.4241 151.267 27.8492C151.326 28.2379 151.466 28.6017 151.719 28.9108C151.882 29.1109 152.088 29.245 152.343 29.3041V29.3064ZM144.279 28.4812C144.554 28.7585 144.819 29.0245 145.083 29.2905C145.356 29.2905 145.634 29.2973 145.912 29.2905C146.079 29.2859 146.186 29.1814 146.226 29.0222C146.249 28.9358 146.258 28.8449 146.258 28.7563C146.26 27.9629 146.258 27.1718 146.258 26.3784C146.258 26.3511 146.256 26.3238 146.253 26.2966C146.235 26.2943 146.226 26.292 146.217 26.292C145.858 26.292 145.499 26.2875 145.139 26.3011C144.692 26.3193 144.392 26.5807 144.319 27.0263C144.281 27.2604 144.285 27.5014 144.281 27.7378C144.274 27.9924 144.281 28.2448 144.281 28.4812H144.279Z" fill="white"/>
<path d="M135.274 31.9051C135.197 31.7278 135.123 31.5528 135.039 31.3641C135.157 31.3641 135.26 31.3754 135.362 31.3641C135.891 31.2982 136.252 30.9981 136.476 30.523C136.6 30.2593 136.657 29.9774 136.659 29.6887C136.664 28.7953 136.661 28.1906 136.664 27.2994C136.664 26.7289 136.664 26.1605 136.664 25.5899V25.4922H138.101V25.7195C138.101 25.7195 138.101 26.2537 138.101 26.5424C138.11 27.6654 138.105 28.502 138.101 29.625C138.101 30.0547 138.024 30.4752 137.807 30.8526C137.502 31.3845 137.03 31.696 136.449 31.8483C136.065 31.9483 135.674 31.9642 135.274 31.9097V31.9051Z" fill="white"/>
<path d="M145.721 23.7714C145.439 24.0488 145.154 24.3238 144.878 24.5943C144.6 24.3238 144.318 24.0488 144.033 23.7714C144.325 23.4873 144.612 23.2122 144.91 22.9212C145.161 23.1826 145.436 23.4713 145.708 23.751C146.004 23.4622 146.284 23.1872 146.566 22.9121C146.84 23.1963 147.115 23.485 147.384 23.7646C147.124 24.0351 146.846 24.3238 146.575 24.6034C146.286 24.3215 146.001 24.0442 145.721 23.7714Z" fill="white"/>
<path d="M137.422 36.6379L136.712 35.5717H135.827V36.6379H135.232V33.4189H136.631C137.605 33.4189 138.012 33.7463 138.012 34.4669C138.012 35.0012 137.797 35.3308 137.345 35.4785L138.122 36.6379H137.424H137.422ZM135.827 35.0557H136.663C137.189 35.0557 137.395 34.8989 137.395 34.4988C137.395 34.0987 137.189 33.9418 136.663 33.9418H135.827V35.0557Z" fill="white"/>
<path d="M141.186 33.9509H139.284V34.7511H141.044V35.2626H139.284V36.1037H141.222V36.6379H138.689V33.4189H141.184V33.9532L141.186 33.9509Z" fill="white"/>
<path d="M144.138 35.9286H142.579L142.292 36.6379H141.621L142.97 33.4189H143.752L145.105 36.6379H144.43L144.143 35.9286H144.138ZM143.933 35.4331L143.356 34.0214L142.78 35.4331H143.933Z" fill="white"/>
<path d="M146.278 36.0991H147.968V36.6379H145.684V33.4189H146.278V36.0991Z" fill="white"/>
<path d="M152.186 33.9509H150.284V34.7511H152.044V35.2626H150.284V36.1037H152.222V36.6379H149.689V33.4189H152.184V33.9532L152.186 33.9509Z" fill="white"/>
<path d="M155.091 34.1937C154.748 34.0096 154.328 33.8891 154.004 33.8891C153.661 33.8891 153.428 34.0187 153.428 34.2801C153.428 34.4506 153.519 34.5233 154.027 34.662L154.375 34.7575C155.085 34.9553 155.412 35.1303 155.43 35.6872C155.43 36.3306 154.917 36.6807 154.108 36.6807C153.582 36.6807 153.049 36.5284 152.646 36.2533L152.92 35.8032C153.299 36.0282 153.769 36.1578 154.158 36.1578C154.547 36.1578 154.802 36.0191 154.802 35.7213C154.802 35.5008 154.678 35.4372 154.221 35.3213L153.86 35.2303C153.101 35.0371 152.8 34.8484 152.782 34.3256C152.782 34.0118 152.902 33.7777 153.135 33.6163C153.367 33.4549 153.675 33.373 154.05 33.373C154.511 33.373 154.992 33.5026 155.353 33.7186L155.094 34.196L155.091 34.1937Z" fill="white"/>
<path d="M158.45 33.9411H157.426V36.635H156.832V33.9411H155.809V33.416H158.45V33.9411Z" fill="white"/>
<path d="M160.945 35.9286H159.386L159.099 36.6379H158.428L159.777 33.4189H160.558L161.912 36.6379H161.236L160.949 35.9286H160.945ZM160.739 35.4331L160.163 34.0214L159.587 35.4331H160.739Z" fill="white"/>
<path d="M164.538 33.9411H163.514V36.635H162.92V33.9411H161.896V33.416H164.538V33.9411Z" fill="white"/>
<path d="M167.604 33.9509H165.702V34.7511H167.462V35.2626H165.702V36.1037H167.64V36.6379H165.107V33.4189H167.602V33.9532L167.604 33.9509Z" fill="white"/>
<path d="M171.859 34.2329C171.635 34.0305 171.351 33.9237 171.041 33.9237C170.438 33.9237 169.929 34.3829 169.929 35.0262C169.929 35.6287 170.399 36.1197 171.007 36.1197C171.328 36.1197 171.597 36.0424 171.812 35.881V35.3331H171.039V34.8512H172.374V36.1902C172.008 36.5039 171.52 36.6812 171.007 36.6812C170.088 36.6994 169.279 35.9174 169.301 35.0262C169.283 34.0555 170.128 33.3577 171.039 33.3713C171.491 33.3713 171.916 33.5327 172.245 33.8259L171.857 34.2306L171.859 34.2329Z" fill="white"/>
<path d="M175.694 33.9509H173.792V34.7511H175.552V35.2626H173.792V36.1037H175.73V36.6379H173.197V33.4189H175.692V33.9532L175.694 33.9509Z" fill="white"/>
<path d="M179.274 33.4189V36.6379H178.648L176.958 34.326V36.6379H176.373V33.4189H176.999L178.694 35.7309V33.4189H179.274Z" fill="white"/>
<path d="M182.628 33.9509H180.725V34.7511H182.485V35.2626H180.725V36.1037H182.664V36.6379H180.131V33.4189H182.625V33.9532L182.628 33.9509Z" fill="white"/>
<path d="M185.492 36.6379L184.783 35.5717H183.897V36.6379H183.303V33.4189H184.701C185.675 33.4189 186.082 33.7463 186.082 34.4669C186.082 35.0012 185.867 35.3308 185.415 35.4785L186.193 36.6379H185.495H185.492ZM183.897 35.0557H184.733C185.26 35.0557 185.465 34.8989 185.465 34.4988C185.465 34.0987 185.26 33.9418 184.733 33.9418H183.897V35.0557Z" fill="white"/>
<path d="M189.072 35.9286H187.513L187.226 36.6379H186.555L187.904 33.4189H188.685L190.039 36.6379H189.363L189.076 35.9286H189.072ZM188.866 35.4331L188.29 34.0214L187.714 35.4331H188.866Z" fill="white"/>
<path d="M191.21 36.0991H192.9V36.6379H190.615V33.4189H191.21V36.0991Z" fill="white"/>
<path d="M196.863 35.9286H195.304L195.017 36.6379H194.346L195.695 33.4189H196.476L197.83 36.6379H197.154L196.867 35.9286H196.863ZM196.657 35.4331L196.081 34.0214L195.505 35.4331H196.657Z" fill="white"/>
<path d="M201.133 35.1824C201.133 36.144 200.621 36.6804 199.708 36.6804C198.795 36.6804 198.277 36.1371 198.277 35.1824V33.416H198.872V35.1824C198.872 35.7893 199.179 36.1303 199.708 36.1303C200.236 36.1303 200.539 35.7893 200.539 35.1824V33.416H201.133V35.1824Z" fill="white"/>
<path d="M204.354 33.9411H203.331V36.635H202.736V33.9411H201.713V33.416H204.354V33.9411Z" fill="white"/>
<path d="M207.827 36.6379H207.233V35.2853H205.518V36.6379H204.924V33.4189H205.518V34.7488H207.233V33.4189H207.827V36.6379Z" fill="white"/>
<path d="M210.273 36.6833C209.353 36.7014 208.544 35.9194 208.567 35.0283C208.544 34.1372 209.353 33.3552 210.273 33.3734C211.188 33.3552 211.988 34.1372 211.968 35.0283C211.986 35.9194 211.186 36.7014 210.273 36.6833ZM210.273 36.1218C210.876 36.1218 211.346 35.6307 211.346 35.0283C211.346 34.4259 210.876 33.9349 210.273 33.9349C209.67 33.9349 209.195 34.4259 209.195 35.0283C209.195 35.6307 209.665 36.1218 210.273 36.1218Z" fill="white"/>
<path d="M214.898 36.6379L214.189 35.5717H213.303V36.6379H212.709V33.4189H214.108C215.082 33.4189 215.488 33.7463 215.488 34.4669C215.488 35.0012 215.274 35.3308 214.822 35.4785L215.599 36.6379H214.901H214.898ZM213.303 35.0557H214.139C214.666 35.0557 214.871 34.8989 214.871 34.4988C214.871 34.0987 214.666 33.9418 214.139 33.9418H213.303V35.0557Z" fill="white"/>
<path d="M216.76 36.6379H216.166V33.4189H216.76V36.6379Z" fill="white"/>
<path d="M219.983 33.9411H218.96V36.635H218.365V33.9411H217.342V33.416H219.983V33.9411Z" fill="white"/>
<path d="M223.589 33.4189L222.263 35.4967V36.6379H221.664V35.5013L220.338 33.4189H221.052L221.967 34.8716L222.887 33.4189H223.592H223.589Z" fill="white"/>
<path d="M155.734 14.2631V12.3058H150.882V8.27069H157.587V6.2793H148.148V20.4055H159.033V18.4118H150.882V14.2631H155.734Z" fill="white"/>
<path d="M175.364 14.242L179.734 20.3867H182.585V6.2832H175.909L172.262 13.8396L169.123 20.4026H172.092L175.188 13.9896L175.366 14.2397L175.364 14.242ZM177.942 8.25414H179.91V16.413L176.548 11.3913L177.944 8.25414H177.942Z" fill="white"/>
<path d="M161.566 6.59509C160.624 6.94745 159.819 7.44984 159.173 8.09091C158.529 8.7297 158.03 9.50944 157.693 10.4119C157.352 11.3258 157.178 12.3579 157.178 13.4809C157.178 14.5266 157.349 15.4904 157.688 16.3407C158.025 17.1863 158.515 17.9183 159.146 18.5207C159.776 19.1254 160.56 19.6051 161.475 19.9438C162.397 20.2848 163.464 20.4598 164.646 20.4598C165.434 20.4598 167.728 20.428 168.83 20.4121L169.122 20.4076V11.8827H164.035V14.0878H166.765V18.1934L166.465 18.3002C166.236 18.3821 166.094 18.3798 165.416 18.373H165.384C165.271 18.373 165.19 18.3707 165.134 18.3707C163.556 18.3707 162.217 17.8774 161.256 16.9453C160.364 16.077 159.91 14.7948 159.91 13.1376C159.91 12.1624 160.05 11.7077 160.28 11.0735C160.531 10.3824 160.897 9.80269 161.367 9.35031C161.837 8.89792 162.406 8.55921 163.062 8.34779C163.697 8.14092 164.415 8.03635 165.199 8.03635C166.413 8.03635 167.181 8.22731 168.27 8.6274L168.6 6.77922C167.515 6.3132 166.571 6.05859 164.844 6.05859C163.617 6.05859 162.515 6.23818 161.564 6.59509H161.566Z" fill="white"/>
<path d="M140.845 15.3169L144.851 20.4045H148.15L143.97 15.3192L146.438 12.5594V9.40636C146.438 7.68094 145.043 6.27832 143.328 6.27832H135.852V20.4045H138.586V15.2487H140.793L140.847 15.3192L140.845 15.3169ZM138.502 13.1232V7.99692H141.812C143.064 7.99692 143.97 8.96761 143.97 9.62232V11.7274L142.739 13.1232H138.502Z" fill="white"/>
<path d="M108.443 25.4375L119.721 36.7835V32.2596L112.897 25.4375H108.443Z" fill="white"/>
<path d="M120.842 32.2596V36.7835L132.119 25.4375H127.666L120.842 32.2596Z" fill="white"/>
<path d="M119.722 13.4941V13.2554V10.3524V10.3456V8.77473L115.189 4.24408V4.25317L110.735 4.2168L112.337 5.82855L113.632 7.13115L114.579 8.08592L115.874 9.38624L116.823 10.341L116.827 10.3456H110.182L110.189 10.3524L107.012 13.4941H119.722Z" fill="white"/>
<path d="M112.339 21.9802L113.633 20.6799L114.582 19.7274L115.873 18.4248L116.822 17.47L118.116 16.1674L119.721 14.5557H115.265L110.761 19.1136H110.773L110.734 23.5942L112.339 21.9802Z" fill="white"/>
<path d="M130.375 10.3524L130.382 10.3456H124.016H123.734L123.741 10.341L124.69 9.38624L125.985 8.08592L126.931 7.13115L128.224 5.82855L129.828 4.2168L125.374 4.25317V4.24408L120.842 8.77473V10.3524V13.2554V13.4941H133.552L130.375 10.3524Z" fill="white"/>
<path d="M123.678 17.47L124.627 18.4248L125.918 19.7274L126.867 20.6799L128.161 21.9802L129.766 23.5942L129.729 19.1136H129.738L125.235 14.5557H120.779L122.384 16.1674L123.678 17.47Z" fill="white"/>
<path d="M121.819 17.4834H118.73L116.92 19.3429H123.644L121.819 17.4834Z" fill="white"/>
<path d="M121.819 20.4404H118.73L116.92 22.3H123.644L121.819 20.4404Z" fill="white"/>
<path d="M121.819 23.3779H118.73L116.92 25.2375H123.644L121.819 23.3779Z" fill="white"/>
<path d="M116.92 28.1857H123.644L121.819 26.3262H118.73L116.92 28.1857Z" fill="white"/>
<path d="M90.5824 3.25879H90.1992V37.7415H90.5824V3.25879Z" fill="white"/>
</svg>
