<svg width="201" height="41" viewBox="0 0 201 41" fill="none" xmlns="http://www.w3.org/2000/svg">
<path d="M182.747 30.2311C182.461 30.423 182.14 30.4833 181.81 30.4856C180.912 30.4914 180.014 30.4904 179.117 30.4859C178.833 30.4845 178.566 30.4153 178.337 30.2302C178.027 30.436 177.679 30.4875 177.321 30.4878C175.274 30.4895 173.227 30.4887 171.18 30.4889C171.164 30.4889 171.148 30.4889 171.128 30.4889C170.6 30.0564 170.071 29.6234 169.54 29.1892C169.54 28.8379 169.541 28.4888 169.539 28.1399C169.538 27.8094 169.537 27.4795 169.611 27.1545C169.791 26.368 170.291 25.9153 171.07 25.7653C171.291 25.7225 171.52 25.7012 171.746 25.6996C172.809 25.6929 174.76 25.6964 174.76 25.6964V25.9882V26.7753C174.76 26.7753 174.763 28.6651 174.763 29.6098C174.763 29.6422 174.763 29.6744 174.763 29.7137C175.63 29.7137 176.493 29.7137 177.366 29.7137C177.366 28.5843 177.366 27.454 177.366 26.3173C177.957 26.3173 178.883 26.3173 178.883 26.3173V26.7901V27.216C178.883 27.216 178.884 28.5534 178.886 29.2221C178.886 29.2922 178.891 29.3629 178.902 29.4321C178.93 29.607 179.015 29.6871 179.19 29.7082C179.247 29.7149 179.303 29.7199 179.36 29.7201C180.144 29.7209 180.927 29.7206 181.711 29.7206C181.73 29.7206 181.749 29.7187 181.78 29.717C181.78 28.5839 181.78 27.4519 181.78 26.3154C182.372 26.3154 183.294 26.3154 183.294 26.3154V26.5673V27.4495C183.294 27.4495 183.297 28.6297 183.298 29.22C183.298 29.2902 183.303 29.3608 183.314 29.4301C183.342 29.6058 183.426 29.6866 183.601 29.708C183.662 29.7156 183.725 29.7202 183.787 29.7202C184.662 29.7211 185.538 29.7207 186.414 29.7207C186.434 29.7207 186.455 29.7189 186.482 29.7176C186.477 29.7021 186.475 29.6915 186.469 29.6837C186.231 29.3486 186.126 28.9664 186.107 28.5641C186.087 28.1263 186.089 27.2489 186.089 27.2489V27.0906V26.5501V26.4645C186.089 26.4645 186.982 26.4645 187.544 26.4645C187.544 25.8326 187.544 25.2087 187.544 24.5804C187.572 24.578 187.593 24.5747 187.614 24.5747C188.398 24.5749 189.182 24.5654 189.966 24.5788C190.674 24.5911 191.343 24.7625 191.924 25.1881C192.546 25.644 192.895 26.2655 192.981 27.0312C193.004 27.2429 193.003 27.4573 193.013 27.6647C192.535 28.0911 192.067 28.5083 191.594 28.9295C191.748 29.1663 191.898 29.3979 192.123 29.5659C192.288 29.6896 192.483 29.7201 192.683 29.7199C192.91 29.7197 193.137 29.7123 193.364 29.7126C193.721 29.7132 194.078 29.7176 194.434 29.7206C194.461 29.7207 194.488 29.7206 194.524 29.7206C194.524 27.5501 194.524 25.3864 194.524 23.2168C195.114 23.2168 196.054 23.2168 196.054 23.2168V23.7504V24.0755C196.054 24.0755 196.054 27.308 196.055 28.9244C196.055 29.1418 196.042 29.3574 195.979 29.5667C195.829 30.0678 195.475 30.34 194.977 30.4361C194.798 30.4708 194.613 30.4851 194.43 30.4863C193.649 30.4916 192.867 30.4806 192.086 30.4911C191.512 30.4989 191.032 30.2952 190.621 29.9061C190.605 29.8913 190.59 29.8763 190.574 29.8617C190.57 29.8581 190.565 29.8562 190.551 29.8486C190.317 30.0591 190.08 30.2718 189.839 30.4885C189.813 30.4885 189.784 30.4885 189.754 30.4885C187.716 30.4885 185.677 30.4883 183.638 30.4887C183.364 30.4887 183.099 30.4539 182.86 30.3076C182.823 30.2852 182.788 30.2594 182.747 30.2311ZM173.234 26.4755C173.223 26.4701 173.218 26.4662 173.213 26.4662C172.789 26.4698 172.364 26.4569 171.941 26.4826C171.516 26.5084 171.233 26.7632 171.127 27.1781C171.091 27.3182 171.07 27.466 171.069 27.6106C171.062 28.1763 171.066 28.7419 171.066 29.3077C171.066 29.3208 171.068 29.3339 171.069 29.3474C171.223 29.4735 171.376 29.5982 171.518 29.7145C172.098 29.7145 172.665 29.7145 173.235 29.7145C173.234 28.6318 173.234 27.5549 173.234 26.4755ZM190.024 29.1794C189.649 28.5217 189.28 27.8744 188.913 27.2298C188.484 27.2298 188.058 27.2298 187.631 27.2298C187.63 27.2515 187.629 27.2676 187.629 27.2836C187.629 27.7138 187.626 28.144 187.631 28.5743C187.632 28.6873 187.644 28.8015 187.665 28.9125C187.757 29.4022 188.061 29.6801 188.558 29.7094C188.84 29.7259 189.125 29.7123 189.421 29.7123C189.618 29.5388 189.824 29.3563 190.024 29.1794ZM190.182 26.465C190.51 27.0325 190.837 27.598 191.169 28.1701C191.276 28.0768 191.377 27.989 191.471 27.9076C191.471 27.6345 191.481 27.3716 191.468 27.1099C191.452 26.7975 191.384 26.4931 191.245 26.2107C191.012 25.7406 190.655 25.4162 190.12 25.3616C189.78 25.3268 189.434 25.3476 189.091 25.344C189.087 25.344 189.082 25.3495 189.078 25.3523C189.078 25.7217 189.078 26.0907 189.078 26.465C189.449 26.465 189.813 26.465 190.182 26.465Z" fill="white"/>
<path d="M198.833 30.484C198.833 30.484 197.822 30.484 197.316 30.484C197.316 28.0613 197.316 25.6424 197.316 23.2168C197.897 23.2168 198.833 23.2168 198.833 23.2168V23.3121V24.4946V30.3819V30.484Z" fill="white"/>
<path d="M179.286 23.6937V24.1955V24.4827V24.6715C179.286 24.6715 178.855 24.6715 178.525 24.6715C178.525 24.4823 178.525 24.2945 178.525 24.1095C178.2 24.0245 177.98 24.1858 177.974 24.5078C177.971 24.6917 177.973 24.8757 177.973 25.063C178.051 25.1342 178.128 25.2053 178.21 25.2803C178.637 25.2803 179.507 25.2803 179.507 25.2803V25.7879H176.934V25.2801C176.934 25.2801 177.278 25.2801 177.47 25.2801C177.345 25.1686 177.238 25.0732 177.146 24.9911C177.146 24.7723 177.129 24.568 177.15 24.3674C177.188 24.0058 177.421 23.7744 177.78 23.7161C177.878 23.7003 177.979 23.6908 178.078 23.6901C178.481 23.6872 179.286 23.6891 179.286 23.6891V23.6937Z" fill="white"/>
<path d="M173.392 23.0279C173.687 23.3234 173.985 23.6215 174.277 23.9139C173.983 24.208 173.684 24.5074 173.39 24.8014C173.098 24.5183 172.798 24.2264 172.495 23.9321C172.204 24.224 171.905 24.5238 171.602 24.8279C171.302 24.5211 171.012 24.2235 170.715 23.9187C171.009 23.6168 171.301 23.3179 171.594 23.0176C171.895 23.3194 172.192 23.618 172.483 23.9103C172.792 23.6105 173.094 23.3174 173.392 23.0279Z" fill="white"/>
<path d="M180.529 32.1871C180.839 31.8884 181.14 31.5974 181.433 31.3145C181.714 31.5963 182.013 31.8956 182.305 32.1877C182.018 32.4744 181.719 32.7737 181.433 33.0602C181.138 32.775 180.837 32.4842 180.529 32.1871Z" fill="white"/>
<path d="M184.106 32.1893C183.82 32.4758 183.522 32.7735 183.232 33.0628C182.936 32.7761 182.633 32.4837 182.326 32.1869C182.635 31.8867 182.936 31.595 183.229 31.3105C183.512 31.5938 183.811 31.8931 184.106 32.1893Z" fill="white"/>
<path d="M151.666 23.2197C151.666 23.2197 152.608 23.2197 153.195 23.2197C153.195 25.3879 153.195 27.552 153.195 29.7206C154.22 29.7206 155.235 29.7206 156.26 29.7206C156.249 29.7056 156.244 29.6942 156.236 29.6866C155.828 29.3217 155.601 28.8548 155.507 28.3251C155.44 27.9449 155.406 27.5586 155.358 27.1749C155.349 27.1025 155.343 27.03 155.335 26.9564C155.648 26.5325 155.959 26.1104 156.27 25.6883C156.579 25.6883 156.885 25.6867 157.19 25.6886C157.658 25.6915 158.126 25.6848 158.593 25.7046C159.116 25.7269 159.622 25.8357 160.079 26.1094C160.536 26.3835 160.833 26.7718 160.887 27.3144C160.937 27.8261 160.829 28.3096 160.584 28.7614C160.39 29.118 160.131 29.4199 159.813 29.6711C159.798 29.6825 159.784 29.6944 159.756 29.7171C160.823 29.7171 161.874 29.7171 162.934 29.7171C162.934 27.5544 162.934 25.3907 162.934 23.2211C163.524 23.2211 164.463 23.2211 164.463 23.2211V23.6999V24.1358C164.463 24.1358 164.464 27.3303 164.465 28.9275C164.465 29.1449 164.453 29.3605 164.39 29.5698C164.238 30.0741 163.882 30.3462 163.381 30.4417C163.212 30.4739 163.037 30.4906 162.865 30.4908C159.162 30.4935 155.457 30.4928 151.753 30.4928C151.729 30.4928 151.705 30.4928 151.668 30.4928C151.668 30.4516 151.668 30.4153 151.668 30.3791C151.668 28.2621 151.666 24.0282 151.666 24.0282V23.8066V23.2197ZM156.814 26.465C156.815 26.4965 156.815 26.523 156.818 26.5492C156.853 26.8666 156.883 27.1845 156.924 27.501C156.964 27.8091 156.999 28.1194 157.066 28.4218C157.152 28.8065 157.318 29.1584 157.607 29.4392C157.762 29.5896 157.946 29.6863 158.157 29.7332C158.373 29.6105 158.556 29.4518 158.715 29.2655C159.169 28.7362 159.411 28.1304 159.364 27.4256C159.344 27.1244 159.23 26.864 158.984 26.675C158.773 26.5129 158.528 26.4605 158.268 26.4607C157.808 26.4608 157.348 26.4605 156.889 26.4608C156.865 26.461 156.842 26.4634 156.814 26.465Z" fill="white"/>
<path d="M146.627 30.4906C146.361 30.2213 146.091 29.9488 145.817 29.6729C145.762 29.7463 145.713 29.8171 145.657 29.8819C145.361 30.2293 144.969 30.3955 144.528 30.4565C144.371 30.4784 144.211 30.4889 144.052 30.4891C142.265 30.4913 140.478 30.4905 138.69 30.4905C138.666 30.4905 138.642 30.4905 138.616 30.4905C138.086 30.057 137.557 29.624 137.02 29.1841C137.028 28.6215 137.022 28.0554 137.05 27.4911C137.071 27.0798 137.2 26.6947 137.469 26.3694C137.751 26.0274 138.126 25.8466 138.551 25.7681C138.773 25.7271 139.002 25.703 139.227 25.7016C140.292 25.6947 142.249 25.6981 142.249 25.6981V26.0818V26.6804C142.249 26.6804 142.251 28.635 142.251 29.6121C142.251 29.6445 142.251 29.6767 142.251 29.7225C142.284 29.7225 142.312 29.7225 142.341 29.7225C142.651 29.7225 142.962 29.7225 143.273 29.7225C143.44 29.7225 143.608 29.7218 143.775 29.7227C144.057 29.7241 144.27 29.5988 144.382 29.3424C144.46 29.1636 144.514 28.9708 144.553 28.779C144.669 28.2042 144.762 27.6244 144.885 27.051C144.965 26.6789 145.143 26.3513 145.448 26.108C145.701 25.9068 145.998 25.8094 146.312 25.7665C146.523 25.7378 146.737 25.7202 146.95 25.7193C148.088 25.7148 150.221 25.7173 150.221 25.7173V25.8053V27.031C150.221 27.031 150.232 28.1139 150.215 28.655C150.201 29.1181 150.067 29.5457 149.737 29.89C149.447 30.1926 149.08 30.3521 148.675 30.4219C148.442 30.462 148.203 30.4825 147.966 30.4879C147.523 30.4979 147.08 30.4906 146.627 30.4906ZM148.694 26.4985C148.176 26.4985 147.669 26.4883 147.161 26.5019C146.798 26.5116 146.542 26.6921 146.441 27.0558C146.403 27.1935 146.376 27.3345 146.349 27.475C146.269 27.897 146.192 28.3193 146.121 28.7084C146.459 29.0585 146.782 29.3926 147.09 29.7111C147.351 29.7111 147.592 29.726 147.831 29.7077C148.188 29.6805 148.46 29.5068 148.588 29.1624C148.645 29.0078 148.686 28.8376 148.689 28.6737C148.701 27.9623 148.697 27.2505 148.698 26.5388C148.698 26.5259 148.695 26.5129 148.694 26.4985ZM140.72 29.7187C140.72 28.631 140.72 27.5524 140.72 26.4561C140.272 26.4662 139.829 26.4606 139.388 26.4919C139.077 26.514 138.826 26.6758 138.694 26.97C138.632 27.1082 138.577 27.2633 138.574 27.4118C138.561 28.0555 138.568 28.6996 138.568 29.3588C138.708 29.473 138.862 29.5995 139.008 29.7189C139.585 29.7187 140.15 29.7187 140.72 29.7187Z" fill="white"/>
<path d="M165.733 23.2158C166.318 23.2158 167.25 23.2158 167.25 23.2158V23.5856V24.2088C167.25 24.2088 167.252 28.3176 167.252 30.3721C167.252 30.4072 167.252 30.4424 167.252 30.4841C166.746 30.4841 166.242 30.4841 165.732 30.4841C165.733 28.0655 165.733 25.6447 165.733 23.2158Z" fill="white"/>
<path d="M139.081 23.0166C139.382 23.3205 139.679 23.6202 139.971 23.9145C140.279 23.6143 140.581 23.3211 140.881 23.0299C141.174 23.3243 141.472 23.6229 141.765 23.9165C141.469 24.2129 141.17 24.5125 140.876 24.807C140.582 24.5201 140.281 24.2277 139.976 23.931C139.685 24.2239 139.386 24.5239 139.083 24.8273C138.786 24.523 138.496 24.2253 138.199 23.9212C138.494 23.6188 138.786 23.3198 139.081 23.0166Z" fill="white"/>
<path d="M121.437 25.6831C121.595 25.6831 121.749 25.6822 121.903 25.6833C122.519 25.6872 123.136 25.6795 123.752 25.6996C124.278 25.7169 124.786 25.829 125.246 26.1038C125.703 26.3776 126.001 26.766 126.055 27.3086C126.106 27.8261 125.995 28.3144 125.744 28.77C125.551 29.1206 125.295 29.4178 124.981 29.6656C124.966 29.677 124.952 29.6889 124.924 29.7118C125.991 29.7118 127.041 29.7118 128.102 29.7118C128.102 27.5496 128.102 25.3857 128.102 23.2161C128.691 23.2161 129.631 23.2161 129.631 23.2161V23.6948V24.1307C129.631 24.1307 129.632 27.282 129.634 28.8575C129.634 29.1408 129.616 29.4199 129.512 29.6871C129.51 29.6939 129.512 29.7025 129.512 29.7149C130.328 29.7149 131.142 29.7149 131.966 29.7149C131.966 27.5467 131.966 25.3826 131.966 23.2144C132.554 23.2144 133.49 23.2144 133.49 23.2144V23.3987V24.4437C133.49 24.4437 133.494 27.4326 133.494 28.927C133.494 29.1444 133.481 29.3598 133.417 29.5691C133.265 30.0702 132.91 30.3403 132.413 30.436C132.239 30.4694 132.059 30.4856 131.882 30.4858C124.516 30.4882 117.151 30.4878 109.786 30.4878C109.76 30.4878 109.733 30.4878 109.697 30.4878C109.697 30.4432 109.697 30.4063 109.697 30.3693C109.697 28.2548 109.695 24.0261 109.695 24.0261V23.7968V23.2955V23.2139C109.695 23.2139 110.636 23.2139 111.223 23.2139C111.223 25.3802 111.223 27.5446 111.223 29.7142C112.274 29.7142 113.315 29.7142 114.343 29.7142C113.98 29.3417 113.611 28.9635 113.239 28.5815C113.251 28.1251 113.205 27.6637 113.312 27.2097C113.492 26.4462 113.985 26.0089 114.74 25.8614C114.974 25.8156 115.217 25.7947 115.456 25.793C116.489 25.7858 118.395 25.7897 118.395 25.7897V25.9002V27.0294C118.395 27.0294 118.399 28.123 118.4 28.6699C118.4 29.0186 118.414 29.3687 118.277 29.7116C119.331 29.7116 120.374 29.7116 121.424 29.7116C121.417 29.7009 121.413 29.6892 121.405 29.682C120.996 29.317 120.769 28.8503 120.676 28.3208C120.608 27.9378 120.574 27.5487 120.526 27.1624C120.517 27.0928 120.511 27.0229 120.503 26.9514C120.815 26.5279 121.126 26.1057 121.437 25.6831ZM123.324 29.7282C123.542 29.6058 123.725 29.4449 123.887 29.2564C124.338 28.7286 124.578 28.1251 124.532 27.4233C124.512 27.1158 124.395 26.8513 124.141 26.6617C123.933 26.5063 123.693 26.4555 123.439 26.4555C122.976 26.4557 122.514 26.4553 122.052 26.4557C122.028 26.4557 122.005 26.4589 121.978 26.461C121.992 26.5923 122.004 26.716 122.019 26.8396C122.072 27.2908 122.115 27.7436 122.184 28.1925C122.247 28.6034 122.394 28.9861 122.662 29.3133C122.835 29.5252 123.053 29.6663 123.324 29.7282ZM114.776 28.8587C115.068 29.151 115.348 29.4316 115.629 29.7128C115.919 29.7128 116.213 29.7192 116.507 29.7104C116.684 29.7052 116.796 29.5957 116.839 29.4271C116.862 29.3365 116.872 29.2404 116.872 29.1466C116.875 28.3108 116.874 27.4748 116.874 26.639C116.874 26.6106 116.871 26.582 116.87 26.5529C116.851 26.5501 116.841 26.547 116.831 26.547C116.45 26.5494 116.069 26.5415 115.688 26.5573C115.214 26.5771 114.896 26.852 114.819 27.3223C114.778 27.5684 114.784 27.8227 114.778 28.0736C114.771 28.3411 114.776 28.6089 114.776 28.8587Z" fill="white"/>
<path d="M105.232 32.4661C105.151 32.2783 105.071 32.0955 104.984 31.8956C105.108 31.8956 105.219 31.9072 105.326 31.8937C105.887 31.8236 106.269 31.5079 106.508 31.0067C106.64 30.7292 106.7 30.4314 106.702 30.1259C106.708 29.184 106.706 28.5466 106.706 27.6047C106.707 27.0037 106.706 26.4027 106.706 25.8019C106.706 25.7699 106.706 25.7376 106.706 25.6992C107.294 25.6992 108.229 25.6992 108.229 25.6992V25.9392C108.229 25.9392 108.226 26.5032 108.229 26.8061C108.237 27.9917 108.234 28.8726 108.229 30.0582C108.226 30.5122 108.147 30.9542 107.917 31.3534C107.594 31.9149 107.093 32.2421 106.477 32.4027C106.069 32.5087 105.655 32.5255 105.232 32.4661Z" fill="white"/>
<path d="M116.307 23.8871C116.007 24.1788 115.707 24.4705 115.414 24.7549C115.12 24.4701 114.82 24.1794 114.518 23.8872C114.827 23.5883 115.129 23.2966 115.446 22.9907C115.713 23.2676 116.005 23.5705 116.291 23.8669C116.605 23.5612 116.901 23.273 117.201 22.9814C117.49 23.2807 117.784 23.5854 118.069 23.88C117.793 24.1646 117.499 24.4691 117.212 24.7654C116.905 24.4674 116.603 24.1746 116.307 23.8871Z" fill="white"/>
<path d="M107.504 37.4588L106.753 36.3335H105.813V37.4588H105.184V34.0635H106.666C107.698 34.0635 108.129 34.4079 108.129 35.1693C108.129 35.732 107.901 36.0813 107.422 36.2365L108.245 37.4588H107.504ZM105.813 35.7901H106.7C107.257 35.7901 107.475 35.6252 107.475 35.2031C107.475 34.7809 107.257 34.616 106.7 34.616H105.813V35.7901Z" fill="white"/>
<path d="M111.498 34.6262H109.483V35.4701H111.348V36.0086H109.483V36.8962H111.537V37.4588H108.854V34.0635H111.499L111.498 34.6262Z" fill="white"/>
<path d="M114.624 36.7117H112.972L112.667 37.4588H111.955L113.384 34.0635H114.213L115.646 37.4588H114.929L114.624 36.7117ZM114.406 36.1879L113.796 34.6987L113.186 36.1879H114.406Z" fill="white"/>
<path d="M116.89 36.8912H118.682V37.4588H116.26V34.0635H116.89V36.8912Z" fill="white"/>
<path d="M123.153 34.6262H121.137V35.4701H123.003V36.0086H121.137V36.8962H123.192V37.4588H120.508V34.0635H123.153L123.153 34.6262Z" fill="white"/>
<path d="M126.232 34.8846C125.869 34.6906 125.423 34.5645 125.079 34.5645C124.716 34.5645 124.469 34.7003 124.469 34.9768C124.469 35.1564 124.566 35.2339 125.104 35.3795L125.472 35.4813C126.223 35.69 126.572 35.8742 126.591 36.4612C126.591 37.1402 126.048 37.5089 125.191 37.5089C124.634 37.5089 124.067 37.3489 123.641 37.0579L123.931 36.5825C124.333 36.8203 124.832 36.956 125.244 36.956C125.656 36.956 125.927 36.8106 125.927 36.4953C125.927 36.2625 125.796 36.1946 125.312 36.0733L124.929 35.9763C124.125 35.7727 123.805 35.5738 123.786 35.0208C123.786 34.691 123.912 34.4436 124.159 34.2737C124.406 34.104 124.731 34.0166 125.128 34.0166C125.617 34.0166 126.126 34.1524 126.509 34.3805L126.232 34.8846Z" fill="white"/>
<path d="M129.792 34.6164H128.707V37.459H128.077V34.6164H126.992V34.0635H129.792V34.6164Z" fill="white"/>
<path d="M132.437 36.7117H130.785L130.48 37.4588H129.768L131.197 34.0635H132.025L133.459 37.4588H132.742L132.437 36.7117ZM132.219 36.1879L131.608 34.6987L130.998 36.1879H132.219Z" fill="white"/>
<path d="M136.241 34.6164H135.156V37.459H134.527V34.6164H133.441V34.0635H136.241V34.6164Z" fill="white"/>
<path d="M139.491 34.6262H137.476V35.4701H139.341V36.0086H137.476V36.8962H139.53V37.4588H136.846V34.0635H139.491V34.6262Z" fill="white"/>
<path d="M144.003 34.9238C143.766 34.7103 143.466 34.5988 143.136 34.5988C142.497 34.5988 141.959 35.0839 141.959 35.7631C141.959 36.3985 142.458 36.9175 143.102 36.9175C143.442 36.9175 143.727 36.8349 143.955 36.6652V36.088H143.136V35.5787H144.551V36.9902C144.163 37.3201 143.645 37.5093 143.102 37.5093C142.129 37.5286 141.271 36.7042 141.295 35.7631C141.276 34.7396 142.172 34.0022 143.136 34.0168C143.616 34.0168 144.066 34.1867 144.415 34.497L144.003 34.9238Z" fill="white"/>
<path d="M148.069 34.6262H146.054V35.4701H147.919V36.0086H146.054V36.8962H148.108V37.4588H145.424V34.0635H148.069V34.6262Z" fill="white"/>
<path d="M151.865 34.0635V37.4588H151.202L149.409 35.0189V37.4588H148.789V34.0635H149.453L151.25 36.5034V34.0635H151.865Z" fill="white"/>
<path d="M155.418 34.6262H153.403V35.4701H155.268V36.0086H153.403V36.8962H155.457V37.4588H152.773V34.0635H155.418V34.6262Z" fill="white"/>
<path d="M158.455 37.4588L157.704 36.3335H156.765V37.4588H156.135V34.0635H157.617C158.649 34.0635 159.08 34.4079 159.08 35.1693C159.08 35.732 158.853 36.0813 158.373 36.2365L159.197 37.4588H158.455ZM156.765 35.7901H157.651C158.208 35.7901 158.426 35.6252 158.426 35.2031C158.426 34.7809 158.208 34.616 157.651 34.616H156.765V35.7901Z" fill="white"/>
<path d="M162.247 36.7117H160.595L160.29 37.4588H159.578L161.007 34.0635H161.836L163.27 37.4588H162.552L162.247 36.7117ZM162.029 36.1879L161.419 34.6987L160.808 36.1879H162.029Z" fill="white"/>
<path d="M164.517 36.8912H166.309V37.4588H163.887V34.0635H164.517V36.8912Z" fill="white"/>
<path d="M170.503 36.7117H168.851L168.546 37.4588H167.834L169.263 34.0635H170.091L171.525 37.4588H170.808L170.503 36.7117ZM170.285 36.1879L169.675 34.6987L169.065 36.1879H170.285Z" fill="white"/>
<path d="M175.034 35.9262C175.034 36.94 174.491 37.5076 173.522 37.5076C172.553 37.5076 172.006 36.9352 172.006 35.9262V34.0635H172.636V35.9262C172.636 36.5665 172.96 36.9254 173.522 36.9254C174.084 36.9254 174.404 36.5665 174.404 35.9262V34.0635H175.034V35.9262Z" fill="white"/>
<path d="M178.445 34.6164H177.359V37.459H176.73V34.6164H175.645V34.0635H178.445V34.6164Z" fill="white"/>
<path d="M182.129 37.4588H181.499V36.0327H179.683V37.4588H179.053V34.0635H179.683V35.4653H181.499V34.0635H182.129V37.4588Z" fill="white"/>
<path d="M184.72 37.5094C183.746 37.5287 182.888 36.7043 182.913 35.7632C182.888 34.8221 183.746 33.9975 184.72 34.0169C185.688 33.9975 186.536 34.8221 186.517 35.7632C186.536 36.7043 185.688 37.5289 184.72 37.5094ZM184.72 36.9176C185.359 36.9176 185.858 36.3986 185.858 35.7632C185.858 35.1278 185.359 34.6088 184.72 34.6088C184.075 34.6088 183.576 35.1278 183.576 35.7632C183.576 36.3986 184.075 36.9176 184.72 36.9176Z" fill="white"/>
<path d="M189.621 37.4588L188.87 36.3335H187.931V37.4588H187.301V34.0635H188.783C189.815 34.0635 190.246 34.4079 190.246 35.1693C190.246 35.732 190.019 36.0813 189.539 36.2365L190.363 37.4588H189.621ZM187.931 35.7901H188.817C189.374 35.7901 189.592 35.6252 189.592 35.2031C189.592 34.7809 189.374 34.616 188.817 34.616H187.931V35.7901Z" fill="white"/>
<path d="M191.597 37.4588H190.967V34.0635H191.597V37.4588Z" fill="white"/>
<path d="M195.011 34.6164H193.926V37.459H193.296V34.6164H192.211V34.0635H195.011V34.6164Z" fill="white"/>
<path d="M198.831 34.0635L197.426 36.256V37.459H196.792V36.2608L195.387 34.0635H196.142L197.111 35.5962L198.085 34.0635H198.831Z" fill="white"/>
<path d="M126.918 13.8544V11.7876H121.777V7.53203H128.882V5.43066H118.879V20.3316H130.414V18.2304H121.777V13.8544H126.918Z" fill="white"/>
<path d="M147.72 13.8343L152.351 20.3151H155.372V5.43848H148.295L144.43 13.4101L141.104 20.3336H144.251L147.532 13.5701L147.72 13.8343ZM150.451 7.51761H152.536V16.1243L148.971 10.8273L150.451 7.51761Z" fill="white"/>
<path d="M133.098 5.76574C132.1 6.13791 131.247 6.66859 130.562 7.34314C129.879 8.01597 129.351 8.83973 128.993 9.79168C128.631 10.7545 128.447 11.8436 128.447 13.0288C128.447 14.1328 128.63 15.1478 128.989 16.0458C129.346 16.9371 129.866 17.7109 130.533 18.3458C131.203 18.9838 132.033 19.4887 133.003 19.8465C133.979 20.2072 135.11 20.39 136.364 20.39C137.2 20.39 139.631 20.3562 140.799 20.34L141.108 20.3359V11.3431H135.718V13.6694H138.61V17.9992L138.291 18.1122C138.049 18.1987 137.899 18.1971 137.181 18.1894L137.148 18.189C137.029 18.1878 136.942 18.1868 136.881 18.1868C135.21 18.1868 133.789 17.6668 132.772 16.6831C131.826 15.7672 131.346 14.4158 131.346 12.6663C131.346 11.6374 131.494 11.1573 131.739 10.4893C132.006 9.76136 132.394 9.14969 132.892 8.67122C133.389 8.19378 133.993 7.83764 134.687 7.61296C135.36 7.39569 136.122 7.28542 136.952 7.28542C138.238 7.28542 139.052 7.48666 140.206 7.90862L140.556 5.95837C139.405 5.46559 138.404 5.19922 136.575 5.19922C135.275 5.19939 134.105 5.38995 133.098 5.76574Z" fill="white"/>
<path d="M111.135 14.9655L115.381 20.3316H118.876L114.446 14.9678L117.06 12.0573V8.73123C117.06 6.91123 115.581 5.43066 113.764 5.43066H105.84V20.3316H108.738V14.8921H111.078L111.135 14.9655ZM108.652 12.6531V7.24635H112.159C113.486 7.24635 114.446 8.26998 114.446 8.96004V11.1806L113.141 12.6531H108.652Z" fill="white"/>
<path d="M76.7949 25.6426L88.7465 37.6096V32.8397L81.5159 25.6426H76.7949Z" fill="white"/>
<path d="M89.9316 32.8397V37.6096L101.883 25.6426H97.1623L89.9316 32.8397Z" fill="white"/>
<path d="M88.7447 13.0477V12.7954V9.73334V9.72627V8.06858L83.9421 3.28883V3.29934L79.2213 3.26074L80.9204 4.96185L82.2922 6.33559L83.2949 7.34303L84.6668 8.71315L85.6728 9.72059L85.6785 9.72627H78.6349L78.6419 9.73334L75.2754 13.0477H88.7447Z" fill="white"/>
<path d="M80.9198 21.9967L82.2918 20.6229L83.2979 19.6191L84.6663 18.2454L85.6724 17.2381L87.0444 15.8644L88.7433 14.1631H84.0225L79.2489 18.9709H79.2596L79.2207 23.698L80.9198 21.9967Z" fill="white"/>
<path d="M100.035 9.73334L100.042 9.72627H93.2946L92.997 9.72679L93.0032 9.72059L94.0094 8.71315L95.3813 7.34303L96.3839 6.33559L97.7557 4.96185L99.4547 3.26074L94.734 3.29934V3.28883L89.9316 8.06858V9.73334V12.7954V13.0477H103.401L100.035 9.73334Z" fill="white"/>
<path d="M92.9382 17.2381L93.9444 18.2454L95.3127 19.6191L96.3189 20.6229L97.6909 21.9967L99.3899 23.698L99.3512 18.9709H99.3617L94.5881 14.1631H89.8672L91.5663 15.8644L92.9382 17.2381Z" fill="white"/>
<path d="M90.9694 17.2529H87.6967L85.7773 19.2144H92.9058L90.9694 17.2529Z" fill="white"/>
<path d="M90.9694 20.375H87.6967L85.7773 22.3365H92.9058L90.9694 20.375Z" fill="white"/>
<path d="M90.9694 23.4707H87.6967L85.7773 25.4322H92.9058L90.9694 23.4707Z" fill="white"/>
<path d="M85.7773 28.5415H92.9058L90.9694 26.5801H87.6967L85.7773 28.5415Z" fill="white"/>
<path d="M3.00157 15.5776C3.21683 15.7618 3.46962 15.9074 3.75251 16.0101C4.03558 16.1129 4.33379 16.165 4.63871 16.165C4.73215 16.165 4.82369 16.1601 4.91076 16.1508C4.99749 16.1415 5.08422 16.1307 5.17094 16.1183L5.18987 16.1155L5.50271 15.4577L5.4399 15.4642C5.32564 15.4763 5.20673 15.4761 5.08628 15.4642C4.96634 15.4522 4.84795 15.4248 4.73421 15.3829C4.6215 15.3414 4.51464 15.278 4.41656 15.1948C4.31778 15.1108 4.23157 15.0094 4.16016 14.8929C4.08806 14.7756 4.03179 14.6462 3.9929 14.5081C3.95384 14.3701 3.93405 14.2206 3.93405 14.064C3.93405 13.6785 4.0373 13.3525 4.24104 13.0948C4.44426 12.8374 4.77964 12.6609 5.23771 12.5705L6.91821 12.2321C7.07291 12.4311 7.26839 12.5906 7.49984 12.7064C7.73799 12.8256 8.04205 12.8861 8.40393 12.8861H9.07159H9.23506H10.6535H10.8168H12.2354H12.3987H13.8171H13.9806H15.399H15.5623H16.9808H17.1442H18.5627H18.726H19.3474C20.0771 12.8861 20.6106 12.6682 20.9336 12.2381L21.5806 12.8861H22.7887C23.4911 12.8861 24.0328 12.7259 24.3985 12.4097C24.7657 12.0925 24.9488 11.608 24.9426 10.9703V8.52643H21.8451C21.2295 8.52643 20.7618 8.64429 20.4545 8.87637C20.1465 9.10932 19.9427 9.48114 19.849 9.98219L19.6179 11.2789C19.5695 11.5444 19.5029 11.7391 19.42 11.8577C19.34 11.9721 19.2374 12.0279 19.1068 12.0279H18.726H18.5627H17.1442H16.9808H15.5623H15.399H13.9806H13.8171H12.3987H12.2354H10.8168H10.6535H9.23506H9.07159H8.83877C8.72589 12.0279 8.62849 12.0145 8.54933 11.9881C8.47328 11.9628 8.40737 11.9138 8.35351 11.8428C8.29776 11.7694 8.24665 11.6638 8.20157 11.5289C8.15579 11.3916 8.10486 11.2071 8.04979 10.9807L7.82782 10.0637C7.67243 9.41636 7.35512 8.90635 6.885 8.5478C6.41506 8.18959 5.83361 8.00781 5.15666 8.00781C4.83367 8.00781 4.48435 8.07087 4.11852 8.1951C3.75423 8.31864 3.3101 8.5285 2.79886 8.81848L2.78079 8.82865V9.70444L2.83637 9.66585C2.99417 9.55644 3.16573 9.45271 3.34624 9.35778C3.52623 9.26318 3.71328 9.1779 3.90222 9.10484C4.09047 9.03179 4.28474 8.9732 4.47988 8.93047C4.67433 8.88792 4.86465 8.86638 5.04584 8.86638C5.32375 8.86638 5.5638 8.97768 5.75945 9.19719C5.95785 9.41998 6.11083 9.75458 6.2139 10.1912L6.42659 11.0987C6.45429 11.2208 6.48733 11.3368 6.52485 11.4438L4.61307 11.8249C4.3097 11.887 4.01476 11.9795 3.73634 12.1003C3.45688 12.2216 3.20668 12.3746 2.99227 12.555C2.77649 12.7367 2.60235 12.9538 2.47484 13.2002C2.3463 13.4482 2.28125 13.7357 2.28125 14.0548C2.28125 14.3677 2.34784 14.6567 2.47948 14.9139C2.61078 15.1699 2.7863 15.3932 3.00157 15.5776ZM21.3102 11.1895L21.5105 10.0504C21.5582 9.79972 21.6339 9.62398 21.736 9.52784C21.8364 9.4329 22.0166 9.38465 22.2713 9.38465H23.2996V11.0628C23.2996 11.7121 23.051 12.0277 22.5396 12.0277H22.1563L21.3102 11.1895Z" fill="white"/>
<path d="M6.05639 12.9727L5.15625 13.9034L6.05639 14.8244L6.98595 13.9034L6.05639 12.9727Z" fill="white"/>
<path d="M28.705 12.8819H30.1236H30.2869H31.7054H31.8688H33.2873H33.4506H34.869H35.0325H36.4509H36.6142H38.0328H38.1961H39.428C40.4521 12.8819 40.9714 12.415 40.9714 11.4941V8.60563H39.337V12.0237H38.1961H38.0328H36.6142H36.4509H35.0325H34.869H33.4506H33.2873H31.8688H31.7054H30.2869H30.1236H28.705H28.5417H27.632V6.32715H25.9883V12.8821H28.5416L28.705 12.8819Z" fill="white"/>
<path d="M41.1287 6.92892L40.2088 6.00781L39.2988 6.92892L40.2088 7.85004L41.1287 6.92892Z" fill="white"/>
<path d="M41.0137 14.2104L41.3052 14.8775L41.3248 14.8803C41.4113 14.8925 41.4977 14.902 41.5817 14.9084C41.6669 14.9146 41.7533 14.9177 41.8386 14.9177C42.1119 14.9177 42.3843 14.8798 42.6484 14.8053C42.9132 14.7304 43.1645 14.607 43.3952 14.4385C43.6329 14.2631 43.8185 14.0455 43.9471 13.7915C44.0711 13.5458 44.1508 13.2393 44.1839 12.8801H45.3371H45.5006H46.919H47.0823H48.5008H48.6642H50.0827H50.246H51.4779C52.5019 12.8801 53.0212 12.4131 53.0212 11.4922V8.60378H51.3868V12.0219H50.246H50.0827H48.6642H48.5008H47.0823H46.919H45.5006H45.3371H44.2054V8.50195H42.5619V12.613C42.5619 13.0424 42.4641 13.4097 42.2719 13.7049C42.1525 13.8839 41.9907 14.0231 41.7911 14.1186C41.5915 14.214 41.3508 14.2473 41.0748 14.2171L41.0137 14.2104Z" fill="white"/>
<path d="M51.3767 13.3643L50.4668 14.295L51.3767 15.216L52.2965 14.295L51.3767 13.3643Z" fill="white"/>
<path d="M4.42969 18.4885L5.3398 19.4096L6.20948 18.5388L7.0697 19.4096L7.98962 18.4885L7.0697 17.5674L6.20948 18.4382L5.3398 17.5674L4.42969 18.4885Z" fill="white"/>
<path d="M3.04011 23.4276C3.28618 23.6147 3.59351 23.7631 3.9535 23.8689C4.31245 23.9743 4.72974 24.0277 5.19383 24.0277H10.0769V19.6494H8.43336V23.1693H5.35111C4.83453 23.1693 4.46405 23.0335 4.25016 22.766C4.03437 22.4958 3.92493 22.1138 3.92493 21.6302C3.92493 21.4467 3.93422 21.2577 3.95246 21.0685C3.97088 20.8786 3.99566 20.6925 4.02611 20.5152L4.03334 20.4737H2.46468L2.45815 20.5009C2.39017 20.7849 2.3432 21.0497 2.31859 21.2882C2.29381 21.5261 2.28125 21.7284 2.28125 21.8893C2.28125 22.2024 2.3463 22.4927 2.47466 22.7525C2.60286 23.0127 2.79301 23.2398 3.04011 23.4276Z" fill="white"/>
<path d="M12.7589 17.4697H11.1152V24.0247H12.7589V17.4697Z" fill="white"/>
<path d="M23.8434 19.9381C23.3674 19.5799 22.7767 19.3984 22.0875 19.3984C21.7645 19.3984 21.4152 19.4613 21.0494 19.5856C20.6849 19.7093 20.2409 19.919 19.7297 20.2089L19.7116 20.2191V21.0437L19.7655 21.0112C20.0893 20.8154 20.4349 20.6386 20.7925 20.4855C21.1473 20.3339 21.4928 20.2568 21.8192 20.2568C22.0104 20.2568 22.1797 20.2901 22.3224 20.3556C22.4652 20.4212 22.5907 20.5134 22.6948 20.6293C22.7997 20.7465 22.8896 20.8869 22.9618 21.0463C23.0344 21.2071 23.0928 21.3869 23.1355 21.582L23.3574 22.4897C23.4199 22.7457 23.5044 22.9738 23.609 23.1683H19.3849H19.2214H18.3211V21.8794C18.3211 21.562 18.2722 21.2634 18.1757 20.992C18.0784 20.7191 17.9244 20.4808 17.7181 20.2835C17.512 20.0866 17.2478 19.9296 16.9331 19.8173C16.6192 19.7053 16.2371 19.6484 15.7972 19.6484H14.1336V20.4975H15.418C15.6642 20.4975 15.8833 20.5416 16.0691 20.6285C16.2524 20.7145 16.4012 20.8576 16.5112 21.0537C16.6216 21.2512 16.6777 21.5258 16.6777 21.8701V23.1683H13.8008V24.0267H19.2219H19.3854H25.7407V23.3179L25.7066 23.3165C25.5619 23.3108 25.442 23.2643 25.3496 23.1771C25.2444 23.0837 25.1716 22.9618 25.1338 22.815L25.0183 22.3713L24.8055 21.4538C24.643 20.8066 24.3195 20.2966 23.8434 19.9381Z" fill="white"/>
<path d="M29.591 25.0216C29.3424 25.2163 28.9747 25.3152 28.4982 25.3152H28.4426L28.7714 26.0252H28.7941C28.8122 26.0252 28.8422 26.0268 28.8841 26.0299C28.9704 26.0361 29.0736 26.0327 29.1665 26.0392C29.2138 26.0423 29.2471 26.0439 29.266 26.0439C29.6506 26.0439 29.9925 25.9901 30.2819 25.8843C30.5717 25.7782 30.8198 25.6324 31.0198 25.4513C31.2199 25.2695 31.3755 25.0504 31.482 24.7997C31.5837 24.56 31.6431 24.2995 31.6589 24.0247H32.5611H32.7244H33.7159C34.7523 24.0247 35.2777 23.5484 35.2777 22.6091V17.4697H33.6342V23.1663H32.7244H32.5611H31.6606V19.665H28.9055C27.4946 19.665 26.7793 20.3313 26.7793 21.6457V22.2533L28.5381 24.0143L28.5486 24.0247H30.0056C29.9701 24.498 29.8309 24.8333 29.591 25.0216ZM29.114 23.1661L28.4226 22.4828V21.4695C28.4226 20.8327 28.6833 20.523 29.2197 20.523H30.0168V23.1661H29.114Z" fill="white"/>
<path d="M37.9601 17.4697H36.3164V24.0247H37.9601V17.4697Z" fill="white"/>
<path d="M41.3566 23.7605C41.3566 24.1897 41.2589 24.5572 41.0666 24.8523C40.9472 25.0314 40.7855 25.1706 40.5859 25.2662C40.3859 25.3616 40.1445 25.3947 39.8695 25.3647L39.8086 25.3582L40.1001 26.0253L40.1197 26.0281C40.2059 26.0403 40.2923 26.05 40.3764 26.0562C40.4611 26.0622 40.5475 26.0655 40.6334 26.0655C40.9066 26.0655 41.179 26.0276 41.4432 25.9532C41.708 25.8782 41.9592 25.7548 42.1898 25.5863C42.4655 25.3856 42.6718 25.1216 42.8031 24.8024C42.9337 24.4846 42.9999 24.0811 42.9999 23.6032V19.6494H41.3564L41.3566 23.7605Z" fill="white"/>
<path d="M42.1424 17.1396L41.2324 18.0702L42.1424 18.991L43.0718 18.0702L42.1424 17.1396Z" fill="white"/>
<path d="M50.3145 18.0499L51.2148 18.9708L52.1443 18.0499L51.2148 17.1191L50.3145 18.0499Z" fill="white"/>
<path d="M53.4086 22.6361V19.7661H50.7089C49.3227 19.7661 48.6197 20.4138 48.6197 21.6912V22.2987L49.4854 23.1654H48.0061H47.8428H46.711V19.6455H45.0675V23.7567C45.0675 24.1859 44.9698 24.5535 44.7776 24.8486C44.6582 25.0276 44.4964 25.1668 44.2968 25.2625C44.097 25.3579 43.8554 25.391 43.5804 25.361L43.5195 25.3545L43.811 26.0216L43.8306 26.0244C43.9169 26.0366 44.0032 26.0463 44.0874 26.0525C44.172 26.0585 44.2584 26.0618 44.3443 26.0618C44.6176 26.0618 44.89 26.0239 45.1541 25.9494C45.4189 25.8745 45.6702 25.7511 45.9009 25.5826C46.1385 25.407 46.3242 25.1894 46.4528 24.9354C46.5768 24.6897 46.6565 24.3832 46.6895 24.0241H47.8428H48.0061H51.8653C52.8895 24.024 53.4086 23.557 53.4086 22.6361ZM51.765 20.6059V22.7841C51.765 23.1654 51.6037 23.1654 51.5507 23.1654H50.9178L50.2632 22.51V21.5336C50.2632 20.9093 50.5148 20.6057 51.0326 20.6057L51.765 20.6059Z" fill="white"/>
<path d="M4.20308 28.29L3.29297 29.2111L4.20308 30.1323L5.07259 29.2615L5.93298 30.1323L6.8529 29.2111L5.93298 28.29L5.07259 29.1607L4.20308 28.29Z" fill="white"/>
<path d="M15.4378 36.5241L14.5683 35.6533L13.6582 36.5744L14.5683 37.4955L15.4378 36.6247L16.2982 37.4955L17.2181 36.5744L16.2982 35.6533L15.4378 36.5241Z" fill="white"/>
<path d="M14.5541 35.1664H15.7952C16.8194 35.1664 17.3385 34.6995 17.3385 33.7783V30.8899H15.7041V34.308H14.554H14.3998H12.9721H12.8088H11.3902H11.2269H9.80842H9.64495H8.22652H8.06322H7.16274V30.7881H4.39832C2.99365 30.7881 2.28125 31.4545 2.28125 32.7687V33.9618L3.75647 35.1662H8.06304H8.22635H9.64478H9.80825H11.2267H11.39H12.8086H12.9719H14.3996L14.5541 35.1664ZM5.51905 31.6465V34.308H4.24413L3.92476 34.0487V32.6022C3.92476 31.9592 4.18546 31.6467 4.72182 31.6467L5.51905 31.6465Z" fill="white"/>
<path d="M18.7843 34.8993C18.7843 35.3285 18.6866 35.696 18.4944 35.9912C18.375 36.1702 18.2132 36.3094 18.0136 36.405C17.8138 36.5005 17.5722 36.5336 17.2972 36.5036L17.2363 36.4969L17.5278 37.164L17.5474 37.1668C17.6337 37.1792 17.72 37.1887 17.8042 37.1949C17.8888 37.2011 17.9752 37.2042 18.0611 37.2042C18.3344 37.2042 18.6068 37.1663 18.8709 37.0918C19.1357 37.0169 19.3869 36.8935 19.6175 36.725C19.8932 36.5243 20.0995 36.2605 20.2308 35.941C20.3614 35.6233 20.4277 35.2198 20.4277 34.7418V30.7881H18.7842L18.7843 34.8993Z" fill="white"/>
<path d="M35.6198 29.2613L36.48 30.1319L37.4095 29.211L36.48 28.29L35.6287 29.1515L34.7497 28.29L33.8496 29.211L34.7501 30.1321L35.6198 29.2613Z" fill="white"/>
<path d="M49.325 34.3051H48.4154H48.2519H46.7827C47.0467 34.071 47.2582 33.8037 47.4122 33.5096C47.5807 33.1881 47.666 32.8382 47.666 32.4696C47.666 31.9408 47.4397 31.5209 46.9935 31.222C46.5515 30.9262 45.9286 30.7759 45.142 30.7759H43.3111L42.4223 31.9686L42.5257 32.8719C42.5963 33.4667 42.798 33.9483 43.1252 34.3051H41.6991H41.5356H40.1172H39.9539H38.5353H38.372H37.4288C37.4754 34.147 37.4992 33.9691 37.4992 33.7757V30.9055H34.7995C33.4132 30.9055 32.7103 31.5533 32.7103 32.8308V33.4383L33.576 34.3051H32.0966H31.9332H30.5147H30.3514H28.933H28.7695H27.3511H27.1878H25.7694H25.6059H24.1875H24.0242H23.1144V28.6084H21.4707V35.1635H24.024H24.1873H25.6057H25.7692H27.1876H27.3509H28.7694H28.9328H30.3513H30.5146H31.933H32.0965H38.3716H38.5349H39.9535H40.1168H41.5352H41.6987H48.2514H48.4149H49.4062C50.4427 35.1635 50.968 34.6873 50.968 33.7479V28.6084H49.3245V34.3051H49.325ZM46.0225 32.5251C46.0225 32.7062 45.9981 32.8885 45.9497 33.067C45.9012 33.246 45.8337 33.4164 45.7493 33.5735C45.6646 33.7307 45.5605 33.8763 45.44 34.006C45.3232 34.1318 45.1964 34.2374 45.0632 34.3205C44.9675 34.2905 44.8718 34.2424 44.7786 34.1769C44.6812 34.1091 44.5908 34.0126 44.5103 33.8902C44.4291 33.7667 44.3573 33.6121 44.2969 33.4307C44.2362 33.2482 44.1901 33.0265 44.1598 32.771L44.0345 31.6341H45.1792C45.4392 31.6341 45.6469 31.7131 45.7966 31.8688C45.9465 32.0249 46.0225 32.2458 46.0225 32.5251ZM35.8557 31.7455V33.9237C35.8557 34.305 35.6874 34.305 35.6321 34.305H35.0085L34.354 33.6495V32.6733C34.354 32.0489 34.6026 31.7455 35.114 31.7455H35.8557Z" fill="white"/>
<path d="M53.6495 28.6084H52.0059V35.1635H53.6495V28.6084Z" fill="white"/>
<path d="M64.7858 3.25879H64.4746V37.7415H64.7858V3.25879Z" fill="white"/>
</svg>
