<svg width="299" height="183" viewBox="0 0 299 183" fill="none" xmlns="http://www.w3.org/2000/svg">
<path d="M4.20163 55.6088C5.45263 56.6778 6.92162 57.5228 8.56562 58.1188C10.2106 58.7158 11.9436 59.0178 13.7156 59.0178C14.2586 59.0178 14.7906 58.9898 15.2966 58.9358C15.8006 58.8818 16.3046 58.8188 16.8086 58.7468L16.9186 58.7308L18.7366 54.9128L18.3716 54.9508C17.7076 55.0208 17.0166 55.0198 16.3166 54.9508C15.6196 54.8808 14.9316 54.7218 14.2706 54.4788C13.6156 54.2378 12.9946 53.8698 12.4246 53.3868C11.8506 52.8998 11.3496 52.3108 10.9346 51.6348C10.5156 50.9538 10.1886 50.2028 9.96262 49.4018C9.73562 48.6008 9.62062 47.7328 9.62062 46.8238C9.62062 44.5868 10.2206 42.6948 11.4046 41.1988C12.5856 39.7048 14.5346 38.6808 17.1966 38.1558L26.9626 36.1918C27.8616 37.3468 28.9976 38.2728 30.3426 38.9448C31.7266 39.6368 33.4936 39.9878 35.5966 39.9878H39.4766H40.4266H48.6696H49.6186H57.8626H58.8116H67.0546H68.0046H76.2476H77.1966H85.4396H86.3896H94.6326H95.5816H99.1926C103.434 39.9878 106.534 38.7228 108.411 36.2268L112.171 39.9878H119.192C123.274 39.9878 126.422 39.0578 128.547 37.2228C130.681 35.3818 131.745 32.5698 131.709 28.8688V14.6848H113.708C110.131 14.6848 107.413 15.3688 105.627 16.7158C103.837 18.0678 102.653 20.2258 102.108 23.1338L100.765 30.6598C100.484 32.2008 100.097 33.3308 99.6146 34.0188C99.1496 34.6828 98.5536 35.0068 97.7946 35.0068H95.5816H94.6326H86.3896H85.4396H77.1966H76.2476H68.0046H67.0546H58.8116H57.8626H49.6186H48.6696H40.4266H39.4766H38.1236C37.4676 35.0068 36.9016 34.9288 36.4416 34.7758C35.9996 34.6288 35.6166 34.3448 35.3036 33.9328C34.9796 33.5068 34.6826 32.8938 34.4206 32.1108C34.1546 31.3138 33.8586 30.2428 33.5386 28.9288L32.2486 23.6068C31.3456 19.8498 29.5016 16.8898 26.7696 14.8088C24.0386 12.7298 20.6596 11.6748 16.7256 11.6748C14.8486 11.6748 12.8186 12.0408 10.6926 12.7618C8.57563 13.4788 5.99462 14.6968 3.02362 16.3798L2.91862 16.4388V21.5218L3.24162 21.2978C4.15862 20.6628 5.15562 20.0608 6.20462 19.5098C7.25062 18.9608 8.33762 18.4658 9.43562 18.0418C10.5296 17.6178 11.6586 17.2778 12.7926 17.0298C13.9226 16.7828 15.0286 16.6578 16.0816 16.6578C17.6966 16.6578 19.0916 17.3038 20.2286 18.5778C21.3816 19.8708 22.2706 21.8128 22.8696 24.3468L24.1056 29.6138C24.2666 30.3228 24.4586 30.9958 24.6766 31.6168L13.5666 33.8288C11.8036 34.1888 10.0896 34.7258 8.47163 35.4268C6.84763 36.1308 5.39363 37.0188 4.14762 38.0658C2.89363 39.1208 1.88162 40.3808 1.14062 41.8108C0.393625 43.2498 0.015625 44.9188 0.015625 46.7708C0.015625 48.5868 0.402625 50.2638 1.16763 51.7568C1.93063 53.2428 2.95063 54.5388 4.20163 55.6088ZM110.6 30.1408L111.764 23.5298C112.041 22.0748 112.481 21.0548 113.074 20.4968C113.658 19.9458 114.705 19.6658 116.185 19.6658H122.161V29.4058C122.161 33.1738 120.716 35.0058 117.744 35.0058H115.517L110.6 30.1408Z" fill="#002F56"/>
<path d="M21.938 40.5078L16.707 45.9098L21.938 51.2548L27.34 45.9098L21.938 40.5078Z" fill="#002F56"/>
<path d="M153.593 39.9873H161.837H162.786H171.029H171.979H180.222H181.171H189.414H190.364H198.607H199.556H207.8H208.749H215.908C221.859 39.9873 224.877 37.2773 224.877 31.9323V15.1683H215.379V35.0063H208.749H207.8H199.556H198.607H190.364H189.414H181.171H180.222H171.979H171.029H162.786H161.837H153.593H152.644H147.357V1.94434H137.805V39.9883H152.643L153.593 39.9873Z" fill="#002F56"/>
<path d="M225.771 5.42803L220.425 0.0820312L215.137 5.42803L220.425 10.774L225.771 5.42803Z" fill="#002F56"/>
<path d="M225.094 47.7091L226.788 51.5811L226.902 51.5971C227.405 51.6681 227.907 51.7231 228.395 51.7601C228.89 51.7961 229.392 51.8141 229.888 51.8141C231.476 51.8141 233.059 51.5941 234.594 51.1621C236.133 50.7271 237.593 50.0111 238.934 49.0331C240.315 48.0151 241.394 46.7521 242.141 45.2781C242.862 43.8521 243.325 42.0731 243.517 39.9881H250.219H251.169H259.412H260.361H268.604H269.554H277.797H278.746H285.905C291.856 39.9881 294.874 37.2781 294.874 31.9331V15.1691H285.376V35.0071H278.746H277.797H269.554H268.604H260.361H259.412H251.169H250.219H243.642V14.5781H234.091V38.4381C234.091 40.9301 233.523 43.0621 232.406 44.7751C231.712 45.8141 230.772 46.6221 229.612 47.1761C228.452 47.7301 227.053 47.9231 225.449 47.7481L225.094 47.7091Z" fill="#002F56"/>
<path d="M285.311 42.7656L280.023 48.1676L285.311 53.5126L290.656 48.1676L285.311 42.7656Z" fill="#002F56"/>
<path d="M12.5117 72.5101L17.8007 77.8561L22.8547 72.8021L27.8537 77.8561L33.1997 72.5101L27.8537 67.1641L22.8547 72.2181L17.8007 67.1641L12.5117 72.5101Z" fill="#002F56"/>
<path d="M4.42562 101.167C5.85562 102.253 7.64162 103.114 9.73362 103.728C11.8196 104.34 14.2446 104.65 16.9416 104.65H45.3186V79.2393H35.7676V99.6683H17.8556C14.8536 99.6683 12.7006 98.8803 11.4576 97.3273C10.2036 95.7593 9.56763 93.5423 9.56763 90.7353C9.56763 89.6703 9.62163 88.5733 9.72763 87.4753C9.83463 86.3733 9.97862 85.2933 10.1556 84.2643L10.1976 84.0233H1.08162L1.04362 84.1813C0.648625 85.8293 0.375626 87.3663 0.232626 88.7503C0.088626 90.1313 0.015625 91.3053 0.015625 92.2393C0.015625 94.0563 0.393626 95.7413 1.13963 97.2493C1.88463 98.7593 2.98962 100.077 4.42562 101.167Z" fill="#002F56"/>
<path d="M60.9114 66.6055H51.3594V104.649H60.9114V66.6055Z" fill="#002F56"/>
<path d="M125.31 80.9201C122.544 78.8411 119.111 77.7881 115.106 77.7881C113.229 77.7881 111.199 78.1531 109.073 78.8741C106.955 79.5921 104.375 80.8091 101.404 82.4921L101.299 82.5511V87.3371L101.612 87.1481C103.494 86.0121 105.502 84.9861 107.58 84.0971C109.642 83.2171 111.65 82.7701 113.547 82.7701C114.658 82.7701 115.642 82.9631 116.471 83.3431C117.301 83.7241 118.03 84.2591 118.635 84.9321C119.245 85.6121 119.767 86.4271 120.187 87.3521C120.609 88.2851 120.948 89.3291 121.196 90.4611L122.486 95.7291C122.849 97.2151 123.34 98.5391 123.948 99.6681H99.4002H98.4502H93.2182V92.1871C93.2182 90.3451 92.9342 88.6121 92.3732 87.0371C91.8082 85.4531 90.9132 84.0701 89.7142 82.9251C88.5162 81.7821 86.9812 80.8711 85.1522 80.2191C83.3282 79.5691 81.1072 79.2391 78.5512 79.2391H68.8832V84.1671H76.3472C77.7782 84.1671 79.0512 84.4231 80.1312 84.9271C81.1962 85.4261 82.0612 86.2571 82.7002 87.3951C83.3422 88.5411 83.6682 90.1351 83.6682 92.1331V99.6681H66.9492V104.65H98.4532H99.4032H136.336V100.536L136.138 100.528C135.297 100.495 134.6 100.225 134.063 99.7191C133.452 99.1771 133.029 98.4691 132.809 97.6171L132.138 95.0421L130.901 89.7171C129.957 85.9611 128.077 83.0011 125.31 80.9201Z" fill="#002F56"/>
<path d="M158.715 110.437C157.27 111.567 155.133 112.141 152.364 112.141H152.041L153.952 116.262H154.084C154.189 116.262 154.363 116.271 154.607 116.289C155.108 116.325 155.708 116.305 156.248 116.343C156.523 116.361 156.716 116.37 156.826 116.37C159.061 116.37 161.048 116.058 162.73 115.444C164.414 114.828 165.856 113.982 167.018 112.931C168.181 111.876 169.085 110.604 169.704 109.149C170.295 107.758 170.64 106.246 170.732 104.651H175.975H176.924H182.686C188.709 104.651 191.762 101.887 191.762 96.4354V66.6074H182.211V99.6694H176.924H175.975H170.742V79.3484H154.731C146.532 79.3484 142.375 83.2154 142.375 90.8444V94.3704L152.596 104.591L152.657 104.651H161.124C160.918 107.398 160.109 109.344 158.715 110.437ZM155.943 99.6684L151.925 95.7024V89.8214C151.925 86.1254 153.44 84.3284 156.557 84.3284H161.189V99.6684H155.943Z" fill="#002F56"/>
<path d="M207.353 66.6055H197.801V104.649H207.353V66.6055Z" fill="#002F56"/>
<path d="M227.101 103.1C227.101 105.591 226.533 107.724 225.416 109.437C224.722 110.476 223.782 111.284 222.622 111.839C221.46 112.393 220.057 112.585 218.459 112.411L218.105 112.373L219.799 116.245L219.913 116.261C220.414 116.332 220.916 116.388 221.405 116.424C221.897 116.459 222.399 116.478 222.898 116.478C224.486 116.478 226.069 116.258 227.604 115.826C229.143 115.391 230.603 114.675 231.943 113.697C233.545 112.532 234.744 111 235.507 109.147C236.266 107.303 236.651 104.961 236.651 102.187V79.2402H227.1L227.101 103.1Z" fill="#002F56"/>
<path d="M231.659 64.6914L226.371 70.0924L231.659 75.4364L237.06 70.0924L231.659 64.6914Z" fill="#002F56"/>
<path d="M279.164 69.984L284.396 75.329L289.798 69.984L284.396 64.582L279.164 69.984Z" fill="#002F56"/>
<path d="M297.133 96.5953V79.9383H281.444C273.388 79.9383 269.303 83.6973 269.303 91.1113V94.6373L274.334 99.6673H265.737H264.788H258.211V79.2383H248.66V103.099C248.66 105.59 248.092 107.723 246.975 109.436C246.281 110.475 245.341 111.283 244.181 111.838C243.02 112.392 241.616 112.584 240.018 112.41L239.664 112.372L241.358 116.244L241.472 116.26C241.973 116.331 242.475 116.387 242.964 116.423C243.456 116.458 243.958 116.477 244.457 116.477C246.045 116.477 247.628 116.257 249.163 115.825C250.702 115.39 252.162 114.674 253.503 113.696C254.884 112.677 255.963 111.414 256.71 109.94C257.431 108.514 257.894 106.735 258.086 104.651H264.788H265.737H288.164C294.116 104.65 297.133 101.94 297.133 96.5953ZM287.581 84.8123V97.4543C287.581 99.6673 286.644 99.6673 286.336 99.6673H282.658L278.854 95.8633V90.1963C278.854 86.5733 280.316 84.8113 283.325 84.8113L287.581 84.8123Z" fill="#002F56"/>
<path d="M11.1913 129.408L5.90234 134.754L11.1913 140.1L16.2443 135.046L21.2443 140.1L26.5903 134.754L21.2443 129.408L16.2443 134.461L11.1913 129.408Z" fill="#002F56"/>
<path d="M76.4553 177.201L71.4023 172.147L66.1133 177.493L71.4023 182.839L76.4553 177.785L81.4553 182.839L86.8013 177.493L81.4553 172.147L76.4553 177.201Z" fill="#002F56"/>
<path d="M71.3376 169.313H78.5496C84.5016 169.313 87.5186 166.603 87.5186 161.257V144.493H78.0206V164.331H71.3366H70.4406H62.1436H61.1946H52.9506H52.0016H43.7586H42.8086H34.5656H33.6166H28.3836V143.902H12.3186C4.15563 143.902 0.015625 147.77 0.015625 155.397V162.322L8.58863 169.312H33.6156H34.5646H42.8076H43.7576H52.0006H52.9496H61.1936H62.1426H70.4396L71.3376 169.313ZM18.8316 148.884V164.331H11.4226L9.56663 162.826V154.431C9.56663 150.699 11.0816 148.885 14.1986 148.885L18.8316 148.884Z" fill="#002F56"/>
<path d="M95.9257 167.763C95.9257 170.254 95.3577 172.387 94.2407 174.1C93.5467 175.139 92.6067 175.947 91.4467 176.502C90.2857 177.056 88.8817 177.248 87.2837 177.074L86.9297 177.035L88.6237 180.907L88.7377 180.923C89.2387 180.995 89.7407 181.05 90.2297 181.086C90.7217 181.122 91.2237 181.14 91.7227 181.14C93.3107 181.14 94.8937 180.92 96.4287 180.488C97.9677 180.053 99.4277 179.337 100.768 178.359C102.37 177.194 103.569 175.663 104.332 173.809C105.091 171.965 105.476 169.623 105.476 166.849V143.902H95.9247L95.9257 167.763Z" fill="#002F56"/>
<path d="M193.76 135.046L198.759 140.099L204.161 134.754L198.759 129.409L193.812 134.409L188.704 129.409L183.473 134.754L188.706 140.1L193.76 135.046Z" fill="#002F56"/>
<path d="M273.387 164.331H268.101H267.151H258.613C260.147 162.972 261.376 161.421 262.271 159.714C263.25 157.848 263.746 155.817 263.746 153.678C263.746 150.609 262.431 148.172 259.838 146.437C257.269 144.72 253.649 143.848 249.078 143.848H238.438L233.273 150.77L233.874 156.013C234.284 159.465 235.456 162.26 237.358 164.331H229.07H228.12H219.877H218.928H210.684H209.735H204.254C204.525 163.413 204.663 162.381 204.663 161.258V144.6H188.974C180.918 144.6 176.833 148.36 176.833 155.774V159.3L181.864 164.331H173.267H172.317H164.074H163.125H154.882H153.932H145.689H144.74H136.497H135.547H127.304H126.355H121.068V131.268H111.516V169.313H126.354H127.303H135.546H136.496H144.739H145.688H153.931H154.881H163.124H164.073H172.316H173.266H209.733H210.682H218.926H219.875H228.118H229.068H267.148H268.098H273.859C279.882 169.313 282.935 166.549 282.935 161.097V131.268H273.384V164.331H273.387ZM254.195 154C254.195 155.051 254.053 156.109 253.772 157.145C253.49 158.184 253.098 159.173 252.607 160.085C252.115 160.997 251.51 161.842 250.81 162.595C250.131 163.325 249.394 163.938 248.62 164.42C248.064 164.246 247.508 163.967 246.966 163.587C246.4 163.193 245.875 162.633 245.407 161.923C244.935 161.206 244.518 160.309 244.167 159.256C243.814 158.197 243.546 156.91 243.37 155.427L242.642 148.829H249.294C250.805 148.829 252.012 149.287 252.882 150.191C253.753 151.097 254.195 152.379 254.195 154ZM195.112 149.475V162.117C195.112 164.33 194.134 164.33 193.813 164.33H190.189L186.385 160.526V154.86C186.385 151.236 187.83 149.475 190.802 149.475H195.112Z" fill="#002F56"/>
<path d="M298.529 131.268H288.977V169.313H298.529V131.268Z" fill="#002F56"/>
</svg>
