<svg width="19" height="19" viewBox="0 0 19 19" fill="none" xmlns="http://www.w3.org/2000/svg">
<path d="M9.2368 1.66319C11.7018 1.66319 11.9936 1.674 12.963 1.71724C13.8639 1.75688 14.3502 1.90823 14.6746 2.03435C15.1036 2.20012 15.4134 2.40192 15.7339 2.72263C16.0584 3.04695 16.2567 3.35325 16.4224 3.78208C16.5484 4.10638 16.6999 4.59647 16.7395 5.49376C16.7825 6.4667 16.7933 6.75859 16.7933 9.21984C16.7933 11.6847 16.7825 11.9765 16.7395 12.9459C16.6999 13.8468 16.5484 14.3333 16.4224 14.6576C16.2567 15.0864 16.0545 15.3963 15.7339 15.717C15.4095 16.0413 15.1036 16.2396 14.6746 16.4053C14.3502 16.5314 13.8601 16.6828 12.963 16.7224C11.9901 16.7657 11.698 16.7765 9.2368 16.7765C6.77216 16.7765 6.48004 16.7657 5.51064 16.7224C4.61004 16.6828 4.12341 16.5314 3.799 16.4053C3.37042 16.2396 3.06022 16.0378 2.73965 15.717C2.41524 15.3927 2.21728 15.0864 2.05123 14.6576C1.92515 14.3333 1.77371 13.8432 1.73412 12.9459C1.69107 11.973 1.68031 11.6811 1.68031 9.21984C1.68031 6.75502 1.69107 6.46312 1.73412 5.49376C1.77371 4.59285 1.92515 4.10638 2.05123 3.78208C2.21728 3.35325 2.41908 3.04335 2.73965 2.72263C3.06407 2.39831 3.37042 2.20012 3.799 2.03435C4.12341 1.90823 4.6135 1.75688 5.51064 1.71724C6.48004 1.674 6.77216 1.66319 9.2368 1.66319ZM9.2368 0.00195312C6.73219 0.00195312 6.41892 0.0127638 5.43491 0.0560063C4.45475 0.0992489 3.78093 0.257805 3.19744 0.484828C2.5882 0.722662 2.07314 1.03617 1.56115 1.55148C1.04608 2.06318 0.732427 2.57849 0.494497 3.18389C0.267713 3.77126 0.108969 4.44152 0.0659186 5.42169C0.0224838 6.40904 0.0117188 6.72258 0.0117188 9.22703C0.0117188 11.7315 0.0224838 12.045 0.0659186 13.0288C0.108969 14.0089 0.267713 14.6828 0.494497 15.2666C0.732427 15.8756 1.04608 16.3909 1.56115 16.9026C2.07314 17.4143 2.58821 17.7314 3.1936 17.9656C3.78093 18.1927 4.45129 18.3512 5.43146 18.3945C6.41508 18.4377 6.72873 18.4485 9.23334 18.4485C11.7376 18.4485 12.0512 18.4377 13.0348 18.3945C14.015 18.3512 14.6888 18.1927 15.2727 17.9656C15.8781 17.7314 16.3935 17.4143 16.9051 16.9026C17.4168 16.3909 17.7339 15.8756 17.9683 15.2702C18.1951 14.6828 18.3539 14.0125 18.3969 13.0324C18.4404 12.0486 18.4511 11.7351 18.4511 9.23065C18.4511 6.72619 18.4404 6.41265 18.3969 5.42891C18.3539 4.44875 18.1951 3.77487 17.9683 3.19109C17.7412 2.57849 17.4275 2.06318 16.9124 1.55148C16.4008 1.03977 15.8854 0.722662 15.28 0.48843C14.6927 0.261408 14.0223 0.102852 13.0421 0.0596099C12.0547 0.0127638 11.7414 0.00195312 9.2368 0.00195312Z" fill="white"/>
<path d="M9.23666 4.48828C6.62059 4.48828 4.49805 6.61078 4.49805 9.22694C4.49805 11.8431 6.62059 13.9656 9.23666 13.9656C11.8527 13.9656 13.9753 11.8431 13.9753 9.22694C13.9753 6.61078 11.8527 4.48828 9.23666 4.48828ZM9.23666 12.3008C7.53925 12.3008 6.16279 10.9242 6.16279 9.22694C6.16279 7.52967 7.53925 6.1531 9.23666 6.1531C10.9341 6.1531 12.3105 7.52967 12.3105 9.22694C12.3105 10.9242 10.9341 12.3008 9.23666 12.3008Z" fill="white"/>
<path d="M15.2691 4.3016C15.2691 4.91423 14.7717 5.40788 14.1629 5.40788C13.5502 5.40788 13.0566 4.91061 13.0566 4.3016C13.0566 3.689 13.5536 3.19531 14.1629 3.19531C14.7717 3.19531 15.2691 3.69261 15.2691 4.3016Z" fill="white"/>
</svg>
