<svg width="17" height="16" viewBox="0 0 17 16" fill="none" xmlns="http://www.w3.org/2000/svg">
<path d="M8.6642 15.7773C7.60646 15.7773 6.59539 15.5751 5.63098 15.1707C4.70805 14.7766 3.88623 14.2193 3.16552 13.4985C2.44481 12.7778 1.88742 11.956 1.49336 11.0331C1.08893 10.0687 0.886719 9.0576 0.886719 7.99986C0.886719 6.94213 1.08893 5.93105 1.49336 4.96665C1.88742 4.04372 2.44481 3.2219 3.16552 2.50118C3.88623 1.78047 4.70805 1.22309 5.63098 0.829026C6.59539 0.424597 7.60646 0.222383 8.6642 0.222383C9.72194 0.222383 10.733 0.424597 11.6974 0.829026C12.6203 1.22309 13.4422 1.78047 14.1629 2.50118C14.8836 3.2219 15.441 4.04372 15.835 4.96665C16.2395 5.93105 16.4417 6.94213 16.4417 7.99986C16.4417 9.0576 16.2395 10.0687 15.835 11.0331C15.441 11.956 14.8836 12.7778 14.1629 13.4985C13.4422 14.2193 12.6203 14.7766 11.6974 15.1707C10.733 15.5751 9.72194 15.7773 8.6642 15.7773ZM6.89093 13.9574C6.11319 12.319 5.67246 10.5924 5.56876 8.77761H2.48888C2.59258 9.58647 2.84405 10.3435 3.2433 11.0486C3.64254 11.7538 4.15585 12.3578 4.78324 12.8608C5.41062 13.3637 6.11319 13.7293 6.89093 13.9574ZM7.13981 8.77761C7.25388 10.6442 7.76201 12.3967 8.6642 14.0352C9.56639 12.3967 10.0745 10.6442 10.1886 8.77761H7.13981ZM14.8395 8.77761H11.7596C11.6559 10.5924 11.2204 12.319 10.453 13.9574C11.2204 13.7293 11.9178 13.3637 12.5452 12.8608C13.1725 12.3578 13.6859 11.7538 14.0851 11.0486C14.4843 10.3435 14.7358 9.58647 14.8395 8.77761ZM2.48888 7.22212H5.56876C5.67246 5.40737 6.11319 3.68077 6.89093 2.04231C6.11319 2.27045 5.41062 2.63599 4.78324 3.13894C4.15585 3.64188 3.64254 4.24593 3.2433 4.95109C2.84405 5.65625 2.59258 6.41326 2.48888 7.22212ZM7.13981 7.22212H10.1886C10.0745 5.35552 9.56639 3.60299 8.6642 1.96454C7.76201 3.60299 7.25388 5.35552 7.13981 7.22212ZM10.453 2.04231C11.2204 3.68077 11.6559 5.40737 11.7596 7.22212H14.8395C14.7358 6.41326 14.4843 5.65625 14.0851 4.95109C13.6859 4.24593 13.1725 3.64188 12.5452 3.13894C11.9178 2.63599 11.2204 2.27045 10.453 2.04231Z" fill="white"/>
</svg>
