<svg width="18" height="12" viewBox="0 0 18 12" fill="none" xmlns="http://www.w3.org/2000/svg">
<path d="M0.25 5.99951C0.250003 6.37307 0.415654 6.71963 0.572519 6.97986C0.741796 7.26068 0.969444 7.5506 1.21918 7.83328C1.72018 8.40035 2.37387 9.00933 3.00824 9.5602C3.64633 10.1143 4.28222 10.6245 4.75725 10.9953C4.99516 11.181 5.19364 11.3324 5.33304 11.4377C5.40276 11.4904 5.45776 11.5316 5.49558 11.5598L5.53915 11.5922L5.55071 11.6007L5.55472 11.6037C5.88822 11.8493 6.35816 11.7784 6.60382 11.4449C6.84947 11.1115 6.77828 10.642 6.44482 10.3963L6.43209 10.3869L6.39204 10.3571C6.35662 10.3307 6.3042 10.2915 6.2372 10.2409C6.10317 10.1396 5.91103 9.99302 5.68019 9.81284C5.21772 9.45187 4.60363 8.95898 3.99173 8.42762C3.37611 7.89303 2.77981 7.33421 2.34331 6.84014C2.3157 6.80889 2.28899 6.77818 2.26316 6.74802L17 6.74801C17.4142 6.74801 17.75 6.41223 17.75 5.99802C17.75 5.5838 17.4142 5.24801 17 5.24801L2.2657 5.24802C2.29073 5.21881 2.31661 5.18909 2.34331 5.15886C2.77981 4.66479 3.37611 4.10596 3.99173 3.57137C4.60363 3.04002 5.21772 2.54712 5.68019 2.18615C5.91102 2.00598 6.10317 1.85938 6.2372 1.75813C6.30419 1.70752 6.35662 1.66828 6.39203 1.64188L6.43208 1.61211L6.44481 1.60269C6.77828 1.35702 6.84947 0.887544 6.60382 0.554058C6.35815 0.220556 5.88822 0.149666 5.55472 0.395328L5.55071 0.398288L5.53915 0.406841L5.49558 0.439226C5.45776 0.467421 5.40276 0.508593 5.33304 0.561262C5.19363 0.666574 4.99516 0.818009 4.75725 1.00371C4.28222 1.37448 3.64633 1.88469 3.00823 2.4388C2.37387 2.98966 1.72018 3.59865 1.21918 4.16572C0.969444 4.4484 0.741796 4.73832 0.572519 5.01914C0.416597 5.2778 0.251992 5.62179 0.250017 5.99277" fill="#BCFFBB"/>
</svg>
