<svg width="14" height="14" viewBox="0 0 14 14" fill="none" xmlns="http://www.w3.org/2000/svg">
<path d="M6.99928 13.5H7C9.96262 13.5 11.4493 13.5 12.4747 12.4747C13.444 11.504 13.494 10.0633 13.4987 7.60065C13.4987 7.32465 13.2753 7.1 12.9993 7.1H12.998C12.722 7.1 12.498 7.32335 12.498 7.59935C12.4933 9.99335 12.4233 11.1113 11.7667 11.768C11.034 12.5 9.68602 12.5 6.99935 12.5C4.31268 12.5 2.964 12.5 2.232 11.768C1.5 11.0353 1.5 9.68667 1.5 7.00001C1.5 4.31335 1.50002 2.9647 2.23268 2.23203C2.88868 1.57536 4.00665 1.50467 6.40065 1.5C6.67732 1.5 6.9 1.27535 6.9 0.999349C6.89933 0.723349 6.676 0.5 6.4 0.5H6.39867C3.93533 0.504667 2.49466 0.554659 1.52533 1.52533C0.5 2.54998 0.5 4.03731 0.5 6.99993C0.5 9.96255 0.5 11.4493 1.52533 12.4747C2.54998 13.5 4.03733 13.5 6.99928 13.5Z" fill="#BCFFBB"/>
<path d="M6.0134 8.06007C6.1114 8.15674 6.23873 8.20539 6.36607 8.20539C6.49473 8.20539 6.62272 8.1554 6.72072 8.0574L12.4401 2.30473C12.4794 2.70873 12.51 3.34674 12.496 4.34341C12.492 4.62007 12.7127 4.8467 12.9887 4.8507C13.2661 4.85737 13.492 4.63406 13.496 4.35806C13.5374 1.4586 13.2257 1.14565 13.0583 0.977602C12.8902 0.809574 12.5774 0.496744 9.68006 0.538068C9.40406 0.542068 9.18339 0.76936 9.18739 1.04536C9.19139 1.31869 9.41472 1.53807 9.68739 1.53807H9.69471C10.6954 1.52407 11.334 1.55471 11.7367 1.59471L6.01138 7.35272C5.81671 7.54872 5.8174 7.86541 6.0134 8.06007Z" fill="#BCFFBB"/>
</svg>
