<svg width="15" height="18" viewBox="0 0 15 18" fill="none" xmlns="http://www.w3.org/2000/svg">
<path d="M7.4987 10.4582C7.84388 10.4582 8.1237 10.738 8.1237 11.0832V12.7498C8.1237 13.095 7.84388 13.3748 7.4987 13.3748C7.15352 13.3748 6.8737 13.095 6.8737 12.7498V11.0832C6.8737 10.738 7.15352 10.4582 7.4987 10.4582Z" fill="white"/>
<path fill-rule="evenodd" clip-rule="evenodd" d="M4.3737 4.4165C4.3737 2.69061 5.77281 1.2915 7.4987 1.2915C8.80568 1.2915 9.88806 2.31102 10.2391 3.36415C10.3483 3.69161 10.7022 3.86859 11.0297 3.75943C11.3571 3.65028 11.5341 3.29633 11.425 2.96886C10.9427 1.52199 9.45726 0.0415039 7.4987 0.0415039C5.08245 0.0415039 3.1237 2.00026 3.1237 4.4165V6.04908C1.71469 6.38554 0.632901 7.58187 0.435796 9.04582C0.312333 9.96281 0.207031 10.9264 0.207031 11.9165C0.207031 12.9066 0.312334 13.8702 0.435796 14.7872C0.662105 16.468 2.05466 17.7961 3.76971 17.8749C4.96007 17.9297 6.16883 17.9582 7.4987 17.9582C8.82856 17.9582 10.0373 17.9297 11.2277 17.8749C12.9427 17.7961 14.3353 16.468 14.5616 14.7872C14.6851 13.8702 14.7904 12.9066 14.7904 11.9165C14.7904 10.9264 14.6851 9.96281 14.5616 9.04582C14.3353 7.36498 12.9427 6.03692 11.2277 5.95808C10.0373 5.90335 8.82856 5.87484 7.4987 5.87484C6.39299 5.87484 5.371 5.89455 4.3737 5.93265V4.4165ZM7.4987 7.12484C6.1874 7.12484 4.99778 7.15294 3.82712 7.20676C2.73628 7.2569 1.82311 8.10973 1.67462 9.21262C1.55347 10.1124 1.45703 11.0106 1.45703 11.9165C1.45703 12.8224 1.55347 13.7206 1.67462 14.6204C1.82311 15.7233 2.73628 16.5761 3.82712 16.6263C4.99779 16.6801 6.1874 16.7082 7.4987 16.7082C8.80999 16.7082 9.99961 16.6801 11.1703 16.6263C12.2611 16.5761 13.1743 15.7233 13.3228 14.6204C13.4439 13.7206 13.5404 12.8224 13.5404 11.9165C13.5404 11.0106 13.4439 10.1124 13.3228 9.21262C13.1743 8.10973 12.2611 7.2569 11.1703 7.20676C9.99961 7.15294 8.80999 7.12484 7.4987 7.12484Z" fill="white"/>
</svg>
