<svg width="184" height="35" viewBox="0 0 184 35" fill="none" xmlns="http://www.w3.org/2000/svg">
<g clip-path="url(#clip0_275_348)">
<path d="M4.65547 10.085L3.7207 11.0515L4.65547 12.0078L5.62057 11.0515L4.65547 10.085Z" fill="white"/>
<path d="M11.2467 9.99079H12.8901H13.5361C14.2944 9.99079 14.8485 9.76427 15.1838 9.31736L15.8564 9.99079H17.1115C17.8411 9.99079 18.4037 9.82418 18.7836 9.49591C19.1651 9.16628 19.3554 8.66304 19.3489 8.00052V5.46194H16.1312C15.4917 5.46194 15.0056 5.58417 14.6867 5.82538C14.3667 6.06727 14.1551 6.45375 14.0576 6.97406L13.8174 8.32111C13.7673 8.59697 13.698 8.79943 13.6119 8.92268C13.5286 9.04183 13.4222 9.09953 13.2863 9.09953H12.8903H12.7212H11.2468H11.0777H9.60336H9.43424H7.95989H7.79077H7.54869C7.43139 9.09953 7.33013 9.08571 7.24778 9.05805C7.16868 9.03176 7.10031 8.98089 7.0444 8.90698C6.98626 8.83067 6.93324 8.72091 6.8867 8.58076C6.83913 8.43787 6.78594 8.24617 6.72883 8.01111L6.49817 7.05839C6.33672 6.38598 6.00717 5.85611 5.51891 5.48362C5.03064 5.11148 4.42662 4.92285 3.72354 4.92285C3.38803 4.92285 3.02524 4.98823 2.64489 5.11712C2.26642 5.24566 1.80509 5.46365 1.27386 5.76478L1.25528 5.77519V6.68437L1.31256 6.6446C1.4764 6.53108 1.65455 6.42336 1.84209 6.32452C2.02928 6.2262 2.22363 6.1376 2.41985 6.06164C2.6154 5.98584 2.81725 5.9249 3.01996 5.88052C3.22198 5.83647 3.41991 5.81411 3.60795 5.81411C3.89675 5.81411 4.14634 5.92968 4.34956 6.15792C4.55584 6.38956 4.71491 6.73712 4.8218 7.19086L5.04292 8.13385C5.07156 8.26068 5.10599 8.3812 5.14504 8.49267L3.15856 8.88854C2.84333 8.9529 2.53715 9.04918 2.24801 9.17464C1.95784 9.30063 1.69769 9.45955 1.47503 9.64699C1.25085 9.83579 1.06997 10.0613 0.937499 10.3174C0.804011 10.5748 0.736328 10.8735 0.736328 11.2052C0.736328 11.5301 0.805545 11.8303 0.942102 12.0977C1.07832 12.3638 1.26074 12.5958 1.48424 12.7873C1.70809 12.9787 1.97046 13.1299 2.26437 13.2366C2.55846 13.3435 2.86822 13.3976 3.18515 13.3976C3.28182 13.3976 3.37678 13.3926 3.46782 13.3829C3.558 13.3732 3.64802 13.3619 3.7382 13.3491L3.75764 13.3464L4.08241 12.6635L4.01763 12.6704C3.89863 12.6828 3.7752 12.6828 3.65023 12.6704C3.52578 12.6577 3.40269 12.6294 3.28438 12.5857C3.16708 12.5425 3.0561 12.4766 2.95415 12.3901C2.85186 12.303 2.76218 12.1975 2.68768 12.0763C2.61284 11.9546 2.55436 11.8199 2.51396 11.6765C2.47338 11.533 2.45293 11.3776 2.45293 11.2149C2.45293 10.8145 2.56016 10.4758 2.7719 10.2079C2.98313 9.94026 3.3316 9.75693 3.80759 9.66287L5.55369 9.31138C5.71428 9.51811 5.9175 9.68386 6.15805 9.80421C6.40525 9.92797 6.72116 9.99098 7.09708 9.99098H7.79094H7.96006H9.43441H9.60353H11.0779L11.2467 9.99079ZM15.5746 8.22859L15.7825 7.04508C15.832 6.78458 15.9107 6.60175 16.0168 6.50189C16.1213 6.40305 16.3085 6.35303 16.5731 6.35303H17.6418V8.0968C17.6418 8.77144 17.3834 9.09953 16.8518 9.09953H16.4536L15.5746 8.22859Z" fill="white"/>
<path d="M23.2613 9.99147H24.7356H24.9048H26.3791H26.5482H28.0226H28.1917H29.4719C30.5357 9.99147 31.0749 9.5065 31.0749 8.54986V5.54917H29.3776V9.10021H28.1915H28.0224H26.5481H26.3789H24.9046H24.7355H23.2611H23.092H22.1463V3.18164H20.4395V9.99147H23.0922H23.2613Z" fill="white"/>
<path d="M31.2344 3.80527L30.2791 2.84863L29.334 3.80527L30.2791 4.76157L31.2344 3.80527Z" fill="white"/>
<path d="M31.1133 11.3744L31.4159 12.067L31.436 12.0697C31.5253 12.0825 31.6152 12.0924 31.7026 12.0989C31.7906 12.1054 31.8803 12.1086 31.9696 12.1086C32.2535 12.1086 32.5365 12.0692 32.811 11.9917C33.0861 11.9138 33.3471 11.7856 33.5868 11.6107C33.8339 11.4283 34.0265 11.2023 34.16 10.9386C34.2889 10.6832 34.3716 10.3649 34.406 9.99152H35.6045H35.7736H37.248H37.4171H38.6973C39.7611 9.99152 40.3003 9.50652 40.3003 8.54988V5.5492H38.603V9.10024H37.4169H37.2478H35.7735H35.6043H34.428V5.44336H32.7211V9.71429C32.7211 10.1603 32.6197 10.5422 32.4197 10.8488C32.2958 11.0347 32.1277 11.1794 31.9202 11.2786C31.7125 11.3778 31.4623 11.4123 31.1757 11.3811L31.1133 11.3744Z" fill="white"/>
<path d="M37.6465 11.4558L38.5915 12.4121L39.5467 11.4558L38.5915 10.4893L37.6465 11.4558Z" fill="white"/>
<path d="M2.54857 17.9179L2.55607 17.875H0.926758L0.920109 17.903C0.849529 18.1985 0.800771 18.4735 0.775028 18.721C0.749285 18.9677 0.736328 19.1777 0.736328 19.3456C0.736328 19.6708 0.803839 19.9725 0.937158 20.2424C1.07031 20.5124 1.2679 20.7482 1.52447 20.9433C1.77986 21.1376 2.09917 21.2919 2.47339 21.4016C2.84623 21.5112 3.2796 21.5667 3.7619 21.5667H8.83465V17.0186H7.12776V20.6756H3.92523C3.38837 20.6756 3.00359 20.5344 2.78111 20.2564C2.55675 19.9756 2.44304 19.5785 2.44304 19.0763C2.44304 18.8859 2.45276 18.6896 2.47185 18.4928C2.49095 18.2949 2.51686 18.1017 2.54857 17.9179Z" fill="white"/>
<path d="M2.9707 15.8139L3.91569 16.7704L4.81926 15.8658L5.71311 16.7704L6.66833 15.8139L5.71311 14.8574L4.81926 15.762L3.91569 14.8574L2.9707 15.8139Z" fill="white"/>
<path d="M17.7353 23.0828L18.6291 23.9873L19.5843 23.0309L18.6291 22.0742L17.7353 22.979L16.8319 22.0742L15.8867 23.0309L16.8319 23.9873L17.7353 23.0828Z" fill="white"/>
<path d="M39.0094 23.0312L38.0441 22.0645L37.1094 23.0312L38.0441 23.9875L39.0094 23.0312Z" fill="white"/>
<path d="M41.3727 20.8299C41.2223 20.8239 41.0977 20.7754 41.0015 20.685C40.8921 20.5878 40.8167 20.461 40.7772 20.3086L40.6573 19.8477L40.436 18.8943C40.2681 18.2217 39.9321 17.692 39.4373 17.3197C38.9429 16.9475 38.3292 16.7589 37.6133 16.7589C37.2778 16.7589 36.915 16.8243 36.5348 16.9531C36.1562 17.0817 35.695 17.2997 35.1638 17.6008L35.1452 17.6114V18.4675L35.2006 18.4339C35.537 18.2305 35.896 18.0469 36.2679 17.8876C36.6366 17.7299 36.9955 17.65 37.3348 17.65C37.5334 17.65 37.7093 17.6845 37.8576 17.7524C38.0063 17.8209 38.1365 17.9164 38.2445 18.0371C38.3536 18.159 38.447 18.3048 38.522 18.4704C38.5974 18.6372 38.6581 18.8243 38.7024 19.0271L38.933 19.9702C38.998 20.2365 39.086 20.4735 39.1947 20.6754H34.8049H34.6357H33.4387C33.6054 20.3785 33.69 20.0091 33.69 19.5766V17.0378H30.4723C29.8328 17.0378 29.3467 17.16 29.0278 17.4013C28.7078 17.6431 28.4962 18.0296 28.3987 18.5499L28.1585 19.897C28.1083 20.1728 28.0391 20.3753 27.953 20.4986C27.8697 20.6177 27.7633 20.6754 27.6274 20.6754H27.2314H27.0623H25.5347C25.8094 20.432 26.0293 20.1542 26.1892 19.8485C26.3641 19.5144 26.4528 19.1508 26.4528 18.7681C26.4528 18.2188 26.2177 17.7828 25.7541 17.4721C25.2948 17.1647 24.6479 17.0088 23.8309 17.0088H21.9288L21.0058 18.2478L21.1132 19.1862C21.1865 19.8043 21.3961 20.3048 21.7367 20.6754H20.2538H20.0847H19.2754C19.0608 20.6754 18.9878 20.6344 18.9643 20.6C18.9271 20.5457 18.9082 20.4603 18.9082 20.3465V17.6056H17.2108V20.6754H16.0248H15.8557H14.3815H14.2122H12.738H12.5689H11.6232V14.7568H9.91602V21.5667H12.5687H12.7379H14.212H14.3813H15.8555H16.0246H17.3048C17.6838 21.5667 17.9969 21.5068 18.236 21.3888C18.4487 21.5069 18.7077 21.5667 19.0059 21.5667H20.0844H20.2535H27.2312H27.8772C28.6295 21.5667 29.1836 21.3369 29.5249 20.8835L30.2072 21.5667H34.6357H41.4078V20.8309L41.3727 20.8299ZM31.9831 17.9292V19.673C31.9831 20.3477 31.7246 20.6757 31.1931 20.6757H30.795L29.9156 19.7954L30.1236 18.6213C30.1731 18.3608 30.2518 18.178 30.3579 18.0781C30.4624 17.9793 30.6496 17.9292 30.9142 17.9292H31.9831ZM24.7459 18.8263C24.7459 19.0144 24.7203 19.2039 24.6702 19.3893C24.6197 19.5752 24.5497 19.7524 24.4619 19.9156C24.3739 20.079 24.2658 20.2304 24.1405 20.3652C24.0193 20.4958 23.8877 20.6056 23.7489 20.692C23.6495 20.6609 23.5499 20.6107 23.4528 20.5431C23.3513 20.4724 23.2577 20.3721 23.174 20.2449C23.0895 20.1165 23.015 19.9559 22.9524 19.7674C22.8893 19.5781 22.8412 19.3477 22.8099 19.0819L22.6798 17.9006H23.8693C24.1395 17.9006 24.3553 17.9825 24.5108 18.1443C24.6668 18.3065 24.7459 18.5359 24.7459 18.8263Z" fill="white"/>
<path d="M3.48438 29.4018V30.0525H6.20052V29.3036C6.20052 29.0252 6.11119 28.7978 5.93474 28.6277C5.75863 28.458 5.51893 28.3719 5.22212 28.3719H5.14676L5.51194 27.6406H4.44948L3.73192 29.1287H4.89547C5.05044 29.1287 5.07039 29.1964 5.07039 29.2555V29.4016H3.48438V29.4018Z" fill="white"/>
<path d="M7.28154 32.2504H3.98302C3.6741 32.2504 3.41582 32.2187 3.21533 32.1559C3.01723 32.0941 2.86073 32.005 2.75025 31.8911C2.63961 31.7771 2.56187 31.6402 2.51908 31.4834C2.47526 31.3238 2.4531 31.1475 2.4531 30.9589C2.4531 30.7885 2.46759 30.5992 2.49606 30.3962C2.5247 30.1912 2.55522 29.9862 2.58727 29.781L2.59392 29.7387H0.896241L0.890788 29.7689C0.839642 30.0567 0.800601 30.3148 0.775028 30.5362C0.749285 30.7574 0.736328 30.9481 0.736328 31.1035C0.736328 31.4034 0.802305 31.6827 0.932725 31.9336C1.06297 32.1849 1.2592 32.403 1.51612 32.5819C1.77133 32.7598 2.09048 32.8993 2.46503 32.9964C2.83788 33.0929 3.27415 33.1419 3.76207 33.1419H7.35672C8.43964 33.1419 8.98877 32.647 8.98877 31.6714V26.332H7.28171L7.28154 32.2504Z" fill="white"/>
<path d="M11.0623 31.219L10.7828 31.4341L11.4049 32.2129L12.1447 31.6524C12.7122 31.2199 13.0723 30.7538 13.2148 30.2672C13.3577 29.7789 13.2663 29.2129 12.9429 28.5847L11.9745 26.7236L10.4961 27.4992L10.8023 28.0509L11.4365 29.2537C11.6242 29.6171 11.6958 29.9741 11.6491 30.3144C11.6025 30.6524 11.4051 30.9568 11.0623 31.219Z" fill="white"/>
<path d="M34.9991 32.2504H34.0534H33.8843H32.4099H32.2408H30.7666H30.5973H29.4004C29.5671 31.9536 29.6517 31.5842 29.6517 31.1516V28.6128H26.434C25.7945 28.6128 25.3084 28.7351 24.9894 28.9763C24.6694 29.2182 24.4579 29.6046 24.3604 30.125L24.1201 31.472C24.07 31.7479 24.0008 31.9503 23.9147 32.0736C23.8313 32.1927 23.725 32.2504 23.5891 32.2504H23.1931H23.0239H21.5496H21.3805H19.9061H19.737H18.2627H18.0935H16.6192H16.4501H15.641C15.5567 32.2504 15.514 32.1398 15.514 31.9215V26.332H13.8071V32.2506H10.0684V33.1419H13.8916C14.2648 33.1419 14.5841 33.0787 14.8412 32.9546C15.0487 33.0789 15.3176 33.1419 15.641 33.1419H16.4501H16.6192H18.0935H18.2627H19.737H19.9061H21.3805H21.5496H23.1931H23.839C24.5914 33.1419 25.1454 32.9121 25.4867 32.4587L26.169 33.1419H30.5975H32.241H32.4101H33.8844H34.0536H35.0838C36.1604 33.1419 36.7063 32.647 36.7063 31.6714V26.332H34.9991V32.2504ZM27.9444 29.5039V31.2477C27.9444 31.9223 27.686 32.2504 27.1544 32.2504H26.7563L25.877 31.3701L26.085 30.196C26.1344 29.9355 26.2132 29.7527 26.3192 29.6528C26.4237 29.5539 26.6109 29.5039 26.8755 29.5039H27.9444Z" fill="white"/>
<path d="M39.494 26.332H37.7871V33.1419H39.494V26.332Z" fill="white"/>
<path d="M167.451 27.3508C167.167 27.541 166.849 27.6008 166.522 27.603C165.633 27.6088 164.744 27.6078 163.854 27.6033C163.573 27.6019 163.308 27.5333 163.082 27.35C162.774 27.5538 162.43 27.6049 162.075 27.6052C160.047 27.6069 158.019 27.606 155.991 27.6062C155.975 27.6062 155.959 27.6062 155.94 27.6062C155.416 27.1777 154.892 26.7488 154.366 26.3186C154.366 25.9705 154.367 25.6247 154.366 25.279C154.364 24.9516 154.364 24.6247 154.437 24.3027C154.614 23.5234 155.11 23.075 155.882 22.9263C156.101 22.884 156.328 22.8628 156.552 22.8613C157.604 22.8546 159.537 22.858 159.537 22.858V23.1472V23.927C159.537 23.927 159.541 25.7993 159.541 26.7353C159.541 26.7674 159.541 26.7993 159.541 26.8382C160.4 26.8382 161.255 26.8382 162.119 26.8382C162.119 25.7192 162.119 24.5994 162.119 23.4732C162.706 23.4732 163.623 23.4732 163.623 23.4732V23.9417V24.3636C163.623 24.3636 163.624 25.6887 163.625 26.3512C163.625 26.4207 163.63 26.4906 163.641 26.5593C163.669 26.7325 163.753 26.8119 163.927 26.8327C163.983 26.8394 164.039 26.8444 164.095 26.8445C164.872 26.8454 165.648 26.845 166.424 26.845C166.443 26.845 166.462 26.8432 166.492 26.8414C166.492 25.7189 166.492 24.5973 166.492 23.4714C167.08 23.4714 167.993 23.4714 167.993 23.4714V23.7209V24.5949C167.993 24.5949 167.996 25.7643 167.997 26.3491C167.997 26.4186 168.002 26.4886 168.013 26.5572C168.04 26.7313 168.124 26.8114 168.297 26.8326C168.358 26.8401 168.419 26.8447 168.481 26.8447C169.348 26.8455 170.216 26.8452 171.083 26.8452C171.104 26.8452 171.125 26.8433 171.151 26.8421C171.146 26.8268 171.144 26.8162 171.139 26.8085C170.903 26.4765 170.798 26.0978 170.78 25.6992C170.76 25.2655 170.762 24.3962 170.762 24.3962V24.2394V23.7039V23.619C170.762 23.619 171.647 23.619 172.202 23.619C172.202 22.993 172.202 22.3749 172.202 21.7523C172.231 21.75 172.252 21.7467 172.272 21.7467C173.05 21.7469 173.827 21.7375 174.603 21.7508C175.305 21.7629 175.967 21.9328 176.543 22.3544C177.16 22.8061 177.505 23.4219 177.59 24.1805C177.614 24.3903 177.612 24.6026 177.622 24.8082C177.148 25.2307 176.685 25.6439 176.216 26.0613C176.367 26.2959 176.517 26.5253 176.739 26.6917C176.904 26.8143 177.097 26.8445 177.295 26.8444C177.52 26.8442 177.745 26.8368 177.97 26.8372C178.323 26.8377 178.676 26.8421 179.03 26.845C179.056 26.8452 179.083 26.845 179.119 26.845C179.119 24.6946 179.119 22.5509 179.119 20.4014C179.704 20.4014 180.635 20.4014 180.635 20.4014V20.93V21.2522C180.635 21.2522 180.635 24.4548 180.636 26.0562C180.636 26.2716 180.623 26.4852 180.561 26.6926C180.411 27.189 180.06 27.4587 179.567 27.554C179.39 27.5883 179.206 27.6025 179.025 27.6037C178.251 27.6089 177.477 27.598 176.703 27.6084C176.134 27.6161 175.658 27.4143 175.252 27.0289C175.237 27.0142 175.22 26.9994 175.205 26.9848C175.201 26.9813 175.196 26.9794 175.183 26.9719C174.951 27.1805 174.715 27.3911 174.477 27.6059C174.451 27.6059 174.422 27.6059 174.393 27.6059C172.373 27.6059 170.354 27.6057 168.334 27.606C168.063 27.606 167.8 27.5716 167.563 27.4266C167.526 27.4044 167.492 27.3787 167.451 27.3508ZM158.026 23.6299C158.015 23.6247 158.01 23.6207 158.005 23.6207C157.585 23.6243 157.164 23.6115 156.745 23.6369C156.323 23.6625 156.043 23.915 155.938 24.3261C155.902 24.4649 155.882 24.6113 155.881 24.7546C155.874 25.315 155.878 25.8754 155.878 26.436C155.878 26.449 155.88 26.462 155.881 26.4753C156.034 26.6002 156.185 26.7238 156.326 26.8391C156.901 26.8391 157.462 26.8391 158.026 26.8391C158.026 25.7662 158.026 24.6994 158.026 23.6299ZM174.661 26.3088C174.289 25.6573 173.924 25.0159 173.56 24.3773C173.135 24.3773 172.712 24.3773 172.289 24.3773C172.289 24.3988 172.288 24.4147 172.288 24.4306C172.288 24.8568 172.284 25.2831 172.289 25.7093C172.289 25.8213 172.303 25.9345 172.324 26.0444C172.416 26.5296 172.716 26.8049 173.208 26.8339C173.488 26.8503 173.769 26.8368 174.064 26.8368C174.259 26.6648 174.461 26.4842 174.661 26.3088ZM174.816 23.6194C175.142 24.1817 175.466 24.7419 175.795 25.3087C175.9 25.2163 176.001 25.1293 176.093 25.0487C176.093 24.7781 176.103 24.5176 176.091 24.2583C176.076 23.9488 176.008 23.6472 175.87 23.3674C175.639 22.9017 175.285 22.5803 174.755 22.5262C174.419 22.4917 174.076 22.5123 173.735 22.5087C173.732 22.5087 173.727 22.5142 173.723 22.5169C173.723 22.8829 173.723 23.2486 173.723 23.6194C174.09 23.6194 174.451 23.6194 174.816 23.6194Z" fill="white"/>
<path d="M183.391 27.6024C183.391 27.6024 182.39 27.6024 181.889 27.6024C181.889 25.2021 181.889 22.8056 181.889 20.4023C182.463 20.4023 183.391 20.4023 183.391 20.4023V20.4967V21.6683V27.5012V27.6024Z" fill="white"/>
<path d="M164.024 20.8734V21.3705V21.655V21.8421C164.024 21.8421 163.597 21.8421 163.27 21.8421C163.27 21.6547 163.27 21.4686 163.27 21.2853C162.948 21.2011 162.73 21.3609 162.724 21.68C162.721 21.8621 162.724 22.0444 162.724 22.23C162.8 22.3005 162.877 22.371 162.958 22.4452C163.381 22.4452 164.243 22.4452 164.243 22.4452V22.9481H161.693V22.4451C161.693 22.4451 162.034 22.4451 162.225 22.4451C162.101 22.3346 161.995 22.24 161.904 22.1588C161.904 21.942 161.887 21.7395 161.908 21.5408C161.945 21.1825 162.176 20.9533 162.532 20.8956C162.629 20.8799 162.729 20.8705 162.827 20.8698C163.226 20.8669 164.024 20.8688 164.024 20.8688V20.8734Z" fill="white"/>
<path d="M158.182 20.2143C158.474 20.5071 158.769 20.8024 159.058 21.0921C158.767 21.3835 158.471 21.6802 158.18 21.9714C157.891 21.691 157.593 21.4018 157.293 21.1102C157.004 21.3994 156.709 21.6964 156.408 21.9977C156.112 21.6937 155.824 21.3989 155.529 21.0969C155.821 20.7978 156.11 20.5016 156.4 20.2041C156.698 20.5032 156.993 20.799 157.282 21.0885C157.587 20.7917 157.886 20.5013 158.182 20.2143Z" fill="white"/>
<path d="M165.254 29.2894C165.56 28.9934 165.859 28.7051 166.149 28.4248C166.428 28.7041 166.724 29.0006 167.013 29.2899C166.729 29.574 166.433 29.8705 166.149 30.1544C165.856 29.8719 165.558 29.5836 165.254 29.2894Z" fill="white"/>
<path d="M168.799 29.2925C168.515 29.5764 168.22 29.8713 167.933 30.158C167.639 29.8739 167.339 29.5842 167.035 29.2901C167.342 28.9927 167.639 28.7037 167.93 28.4219C168.21 28.7027 168.506 28.9992 168.799 29.2925Z" fill="white"/>
<path d="M136.658 20.4004C136.658 20.4004 137.591 20.4004 138.173 20.4004C138.173 22.5486 138.173 24.6926 138.173 26.8412C139.189 26.8412 140.194 26.8412 141.209 26.8412C141.199 26.8263 141.194 26.815 141.186 26.8075C140.781 26.446 140.557 25.9834 140.464 25.4586C140.397 25.0819 140.364 24.6991 140.316 24.319C140.307 24.2473 140.301 24.1754 140.293 24.1025C140.603 23.6826 140.911 23.2643 141.219 22.8461C141.526 22.8461 141.829 22.8446 142.131 22.8464C142.595 22.8494 143.058 22.8427 143.521 22.8623C144.039 22.8843 144.54 22.9922 144.993 23.2633C145.446 23.5349 145.741 23.9197 145.794 24.4572C145.844 24.9642 145.737 25.4432 145.493 25.8908C145.301 26.2442 145.045 26.5433 144.729 26.7922C144.715 26.8034 144.701 26.8152 144.673 26.8377C145.731 26.8377 146.771 26.8377 147.822 26.8377C147.822 24.695 147.822 22.5513 147.822 20.4018C148.406 20.4018 149.337 20.4018 149.337 20.4018V20.8762V21.308C149.337 21.308 149.338 24.4729 149.339 26.0554C149.339 26.2708 149.326 26.4844 149.264 26.6918C149.114 27.1914 148.761 27.461 148.264 27.5556C148.097 27.5875 147.924 27.604 147.754 27.6042C144.084 27.6069 140.414 27.6063 136.745 27.6063C136.721 27.6063 136.697 27.6063 136.66 27.6063C136.66 27.5655 136.66 27.5294 136.66 27.4936C136.66 25.3961 136.658 21.2013 136.658 21.2013V20.9818V20.4004ZM141.758 23.6158C141.76 23.6471 141.76 23.6734 141.763 23.6993C141.797 24.0137 141.827 24.3287 141.868 24.6423C141.907 24.9475 141.942 25.2549 142.008 25.5545C142.094 25.9357 142.258 26.2843 142.544 26.5626C142.697 26.7116 142.88 26.8074 143.089 26.8538C143.303 26.7322 143.484 26.575 143.642 26.3905C144.092 25.8661 144.331 25.2659 144.285 24.5675C144.265 24.2691 144.152 24.0112 143.908 23.8239C143.699 23.6633 143.457 23.6114 143.199 23.6116C142.743 23.6117 142.288 23.6114 141.833 23.6117C141.809 23.6117 141.786 23.6143 141.758 23.6158Z" fill="white"/>
<path d="M131.663 27.6065C131.399 27.3397 131.132 27.0696 130.861 26.7963C130.806 26.869 130.758 26.9392 130.702 27.0034C130.408 27.3475 130.021 27.5123 129.584 27.5727C129.428 27.5944 129.269 27.6048 129.112 27.6049C127.341 27.6072 125.571 27.6063 123.8 27.6063C123.776 27.6063 123.752 27.6063 123.727 27.6063C123.202 27.1768 122.677 26.7478 122.145 26.312C122.153 25.7547 122.147 25.1937 122.175 24.6347C122.195 24.2272 122.324 23.8456 122.589 23.5234C122.869 23.1845 123.241 23.0054 123.662 22.9276C123.882 22.887 124.108 22.8631 124.332 22.8617C125.387 22.8549 127.325 22.8583 127.325 22.8583V23.2384V23.8315C127.325 23.8315 127.328 25.768 127.328 26.736C127.328 26.7681 127.328 26.8001 127.328 26.8455C127.36 26.8455 127.388 26.8455 127.416 26.8455C127.724 26.8455 128.032 26.8455 128.34 26.8455C128.506 26.8455 128.672 26.8448 128.837 26.8456C129.117 26.847 129.328 26.7229 129.439 26.4689C129.516 26.2917 129.57 26.1007 129.608 25.9107C129.723 25.3412 129.815 24.7668 129.937 24.1987C130.016 23.8299 130.192 23.5054 130.495 23.2644C130.745 23.065 131.04 22.9686 131.351 22.926C131.56 22.8975 131.772 22.8801 131.983 22.8793C133.11 22.8748 135.223 22.8772 135.223 22.8772V22.9645V24.1789C135.223 24.1789 135.234 25.2518 135.218 25.7878C135.204 26.2466 135.071 26.6703 134.744 27.0114C134.457 27.3112 134.093 27.4692 133.692 27.5384C133.461 27.5781 133.225 27.5985 132.99 27.6038C132.551 27.6135 132.112 27.6065 131.663 27.6065ZM133.71 23.6512C133.198 23.6512 132.695 23.6411 132.192 23.6546C131.833 23.6642 131.578 23.8431 131.479 24.2034C131.441 24.3398 131.414 24.4796 131.388 24.6188C131.309 25.0368 131.233 25.4552 131.161 25.8407C131.497 26.1876 131.816 26.5186 132.122 26.8342C132.38 26.8342 132.619 26.8489 132.856 26.8308C133.209 26.8038 133.479 26.6317 133.606 26.2905C133.663 26.1374 133.703 25.9687 133.706 25.8064C133.718 25.1015 133.713 24.3963 133.715 23.6912C133.715 23.6784 133.712 23.6654 133.71 23.6512ZM125.811 26.8417C125.811 25.764 125.811 24.6954 125.811 23.6092C125.367 23.6193 124.928 23.6137 124.491 23.6447C124.183 23.6666 123.934 23.8269 123.803 24.1184C123.742 24.2553 123.687 24.409 123.685 24.5561C123.672 25.1939 123.679 25.832 123.679 26.4851C123.817 26.5983 123.97 26.7236 124.115 26.8419C124.686 26.8417 125.246 26.8417 125.811 26.8417Z" fill="white"/>
<path d="M150.592 20.3984C151.172 20.3984 152.095 20.3984 152.095 20.3984V20.7648V21.3822C152.095 21.3822 152.098 25.4531 152.098 27.4886C152.098 27.5234 152.098 27.5582 152.098 27.5995C151.596 27.5995 151.097 27.5995 150.592 27.5995C150.592 25.2033 150.592 22.8049 150.592 20.3984Z" fill="white"/>
<path d="M124.189 20.2002C124.487 20.5013 124.781 20.7982 125.069 21.0897C125.375 20.7924 125.674 20.5018 125.971 20.2133C126.262 20.5051 126.557 20.8009 126.848 21.0918C126.554 21.3854 126.258 21.6823 125.967 21.974C125.675 21.6898 125.377 21.4001 125.075 21.1061C124.786 21.3963 124.49 21.6935 124.19 21.9942C123.896 21.6927 123.608 21.3977 123.314 21.0964C123.606 20.7968 123.895 20.5006 124.189 20.2002Z" fill="white"/>
<path d="M106.709 22.8458C106.866 22.8458 107.018 22.845 107.171 22.846C107.781 22.8499 108.392 22.8422 109.002 22.8622C109.524 22.8793 110.027 22.9904 110.483 23.2627C110.936 23.5339 111.231 23.9187 111.284 24.4563C111.335 24.9691 111.225 25.4528 110.976 25.9042C110.785 26.2516 110.531 26.546 110.22 26.7915C110.206 26.8028 110.192 26.8146 110.164 26.8373C111.221 26.8373 112.262 26.8373 113.312 26.8373C113.312 24.6951 113.312 22.5513 113.312 20.4016C113.896 20.4016 114.827 20.4016 114.827 20.4016V20.8759V21.3077C114.827 21.3077 114.828 24.43 114.83 25.9909C114.83 26.2716 114.813 26.5481 114.71 26.8129C114.707 26.8195 114.709 26.8281 114.709 26.8403C115.518 26.8403 116.324 26.8403 117.141 26.8403C117.141 24.6922 117.141 22.5481 117.141 20.3999C117.723 20.3999 118.65 20.3999 118.65 20.3999V20.5826V21.6179C118.65 21.6179 118.654 24.5792 118.655 26.0597C118.655 26.2751 118.641 26.4885 118.578 26.6959C118.428 27.1923 118.076 27.46 117.583 27.5548C117.411 27.5879 117.233 27.6039 117.057 27.6041C109.76 27.6065 102.463 27.6061 95.1662 27.6061C95.1399 27.6061 95.1139 27.6061 95.0777 27.6061C95.0777 27.5619 95.0777 27.5254 95.0777 27.4887C95.0777 25.3938 95.0762 21.2041 95.0762 21.2041V20.9769V20.4803V20.3994C95.0762 20.3994 96.0077 20.3994 96.5896 20.3994C96.5896 22.5457 96.5896 24.6901 96.5896 26.8397C97.6309 26.8397 98.6626 26.8397 99.6813 26.8397C99.3212 26.4706 98.9559 26.0959 98.5868 25.7174C98.5985 25.2652 98.553 24.8081 98.6592 24.3583C98.8379 23.6019 99.326 23.1686 100.074 23.0225C100.306 22.9771 100.547 22.9564 100.784 22.9547C101.807 22.9476 103.696 22.9515 103.696 22.9515V23.0609V24.1797C103.696 24.1797 103.7 25.2632 103.7 25.805C103.701 26.1505 103.714 26.4974 103.579 26.8371C104.622 26.8371 105.656 26.8371 106.697 26.8371C106.69 26.8265 106.685 26.8149 106.677 26.8077C106.272 26.4462 106.047 25.9837 105.955 25.4592C105.888 25.0797 105.854 24.6942 105.806 24.3115C105.798 24.2425 105.791 24.1732 105.784 24.1024C106.093 23.683 106.401 23.2647 106.709 22.8458ZM108.578 26.8537C108.794 26.7325 108.976 26.573 109.136 26.3863C109.583 25.8634 109.821 25.2654 109.775 24.5701C109.756 24.2654 109.64 24.0034 109.388 23.8156C109.182 23.6616 108.944 23.6113 108.692 23.6113C108.234 23.6114 107.776 23.6111 107.318 23.6114C107.295 23.6114 107.272 23.6147 107.245 23.6167C107.259 23.7468 107.271 23.8694 107.285 23.9918C107.338 24.4388 107.381 24.8875 107.449 25.3322C107.512 25.7393 107.658 26.1184 107.923 26.4426C108.095 26.6526 108.31 26.7922 108.578 26.8537ZM100.11 25.9923C100.399 26.2818 100.677 26.5599 100.955 26.8385C101.242 26.8385 101.533 26.8448 101.825 26.8361C102 26.831 102.111 26.7224 102.154 26.5554C102.177 26.4656 102.186 26.3704 102.187 26.2775C102.189 25.4494 102.188 24.6212 102.188 23.7931C102.188 23.7649 102.186 23.7366 102.184 23.7077C102.166 23.705 102.156 23.7019 102.145 23.7019C101.768 23.7043 101.39 23.6964 101.013 23.7121C100.544 23.7318 100.229 24.0041 100.152 24.4701C100.112 24.7139 100.117 24.9658 100.111 25.2144C100.105 25.4795 100.11 25.7448 100.11 25.9923Z" fill="white"/>
<path d="M90.6539 29.5686C90.5731 29.3825 90.4943 29.2014 90.4082 29.0034C90.5304 29.0034 90.6402 29.0148 90.747 29.0015C91.3027 28.932 91.6814 28.6193 91.9177 28.1227C92.0486 27.8477 92.1083 27.5527 92.1101 27.2501C92.1156 26.3168 92.1135 25.6854 92.1141 24.7521C92.1144 24.1567 92.1141 23.5613 92.1141 22.966C92.1141 22.9342 92.1141 22.9023 92.1141 22.8643C92.6963 22.8643 93.6223 22.8643 93.6223 22.8643V23.1021C93.6223 23.1021 93.6201 23.6608 93.6223 23.9609C93.631 25.1355 93.6281 26.0083 93.6223 27.183C93.6201 27.6328 93.5419 28.0706 93.3139 28.4662C92.9933 29.0225 92.4971 29.3467 91.8868 29.5058C91.4831 29.6108 91.0731 29.6277 90.6539 29.5686Z" fill="white"/>
<path d="M101.626 21.0672C101.329 21.3562 101.032 21.6452 100.742 21.927C100.45 21.6448 100.153 21.3568 99.8535 21.0673C100.16 20.7712 100.46 20.4821 100.774 20.1791C101.038 20.4535 101.327 20.7536 101.61 21.0472C101.922 20.7444 102.215 20.4588 102.512 20.1699C102.798 20.4664 103.09 20.7682 103.372 21.0602C103.099 21.3422 102.807 21.6438 102.523 21.9374C102.219 21.6421 101.92 21.3521 101.626 21.0672Z" fill="white"/>
<path d="M92.9103 34.5145L92.1663 33.3996H91.2353V34.5145H90.6113V31.1504H92.08C93.1024 31.1504 93.5295 31.4916 93.5295 32.2462C93.5295 32.8037 93.3039 33.1497 92.8288 33.3035L93.6447 34.5145H92.9103ZM91.2353 32.8614H92.1136C92.6655 32.8614 92.8815 32.698 92.8815 32.2798C92.8815 31.8617 92.6655 31.6982 92.1136 31.6982H91.2353V32.8614Z" fill="white"/>
<path d="M96.8645 31.7081H94.8679V32.5442H96.7158V33.0777H94.8679V33.9572H96.903V34.5145H94.2441V31.1504H96.8646L96.8645 31.7081Z" fill="white"/>
<path d="M99.9629 33.7745H98.3263L98.0238 34.5145H97.3184L98.7342 31.1504H99.5549L100.976 34.5145H100.265L99.9629 33.7745ZM99.7469 33.2554L99.1422 31.78L98.5375 33.2554H99.7469Z" fill="white"/>
<path d="M102.208 33.9522H103.984V34.5145H101.584V31.1504H102.208V33.9522Z" fill="white"/>
<path d="M108.413 31.7081H106.417V32.5442H108.265V33.0777H106.417V33.9572H108.452V34.5145H105.793V31.1504H108.413L108.413 31.7081Z" fill="white"/>
<path d="M111.464 31.9626C111.104 31.7703 110.663 31.6454 110.322 31.6454C109.962 31.6454 109.717 31.7799 109.717 32.0539C109.717 32.2318 109.813 32.3086 110.346 32.4528L110.711 32.5537C111.455 32.7604 111.8 32.9429 111.819 33.5245C111.819 34.1973 111.282 34.5626 110.432 34.5626C109.881 34.5626 109.319 34.404 108.896 34.1157L109.184 33.6447C109.583 33.8803 110.077 34.0148 110.485 34.0148C110.893 34.0148 111.162 33.8707 111.162 33.5583C111.162 33.3277 111.032 33.2604 110.552 33.1403L110.173 33.0442C109.377 32.8424 109.06 32.6454 109.041 32.0974C109.041 31.7707 109.165 31.5255 109.41 31.3572C109.655 31.1891 109.977 31.1025 110.37 31.1025C110.855 31.1025 111.359 31.2371 111.738 31.4631L111.464 31.9626Z" fill="white"/>
<path d="M114.991 31.6982H113.916V34.5145H113.292V31.6982H112.217V31.1504H114.991V31.6982Z" fill="white"/>
<path d="M117.611 33.7743H115.975L115.672 34.5145H114.967L116.383 31.1504H117.203L118.624 34.5145H117.914L117.611 33.7743ZM117.395 33.2552L116.79 31.7798L116.186 33.2552H117.395Z" fill="white"/>
<path d="M121.383 31.6982H120.308V34.5145H119.684V31.6982H118.609V31.1504H121.383V31.6982Z" fill="white"/>
<path d="M124.603 31.7081H122.606V32.5442H124.454V33.0777H122.606V33.9572H124.641V34.5145H121.982V31.1504H124.603V31.7081Z" fill="white"/>
<path d="M129.07 32.0014C128.835 31.7898 128.537 31.6794 128.211 31.6794C127.578 31.6794 127.045 32.1599 127.045 32.8329C127.045 33.4624 127.539 33.9766 128.177 33.9766C128.513 33.9766 128.796 33.8948 129.022 33.7267V33.1548H128.211V32.6502H129.613V34.0486C129.229 34.3755 128.715 34.563 128.177 34.563C127.213 34.5821 126.363 33.7653 126.387 32.8329C126.368 31.8189 127.256 31.0882 128.211 31.1028C128.686 31.1028 129.133 31.2711 129.478 31.5785L129.07 32.0014Z" fill="white"/>
<path d="M133.099 31.7081H131.102V32.5442H132.95V33.0777H131.102V33.9572H133.138V34.5145H130.479V31.1504H133.099V31.7081Z" fill="white"/>
<path d="M136.857 31.1504V34.5145H136.199L134.423 32.0971V34.5145H133.809V31.1504H134.466L136.247 33.5678V31.1504H136.857Z" fill="white"/>
<path d="M140.378 31.7081H138.382V32.5442H140.23V33.0777H138.382V33.9572H140.417V34.5145H137.758V31.1504H140.378V31.7081Z" fill="white"/>
<path d="M143.387 34.5145L142.643 33.3996H141.712V34.5145H141.088V31.1504H142.557C143.579 31.1504 144.006 31.4916 144.006 32.2462C144.006 32.8037 143.781 33.1497 143.305 33.3035L144.121 34.5145H143.387ZM141.712 32.8614H142.59C143.142 32.8614 143.358 32.698 143.358 32.2798C143.358 31.8617 143.142 31.6982 142.59 31.6982H141.712V32.8614Z" fill="white"/>
<path d="M147.144 33.7743H145.508L145.205 34.5145H144.5L145.916 31.1504H146.737L148.157 34.5145H147.447L147.144 33.7743ZM146.928 33.2552L146.324 31.7798L145.719 33.2552H146.928Z" fill="white"/>
<path d="M149.39 33.9522H151.165V34.5145H148.766V31.1504H149.39V33.9522Z" fill="white"/>
<path d="M155.326 33.7743H153.689L153.387 34.5145H152.682L154.098 31.1504H154.918L156.339 34.5145H155.628L155.326 33.7743ZM155.11 33.2552L154.505 31.7798L153.901 33.2552H155.11Z" fill="white"/>
<path d="M159.812 32.9959C159.812 34.0003 159.275 34.5626 158.315 34.5626C157.355 34.5626 156.812 33.9956 156.812 32.9959V31.1504H157.436V32.9959C157.436 33.6302 157.758 33.9858 158.315 33.9858C158.872 33.9858 159.188 33.6302 159.188 32.9959V31.1504H159.812V32.9959Z" fill="white"/>
<path d="M163.194 31.6982H162.119V34.5145H161.495V31.6982H160.42V31.1504H163.194V31.6982Z" fill="white"/>
<path d="M166.841 34.5145H166.217V33.1016H164.417V34.5145H163.793V31.1504H164.417V32.5393H166.217V31.1504H166.841V34.5145Z" fill="white"/>
<path d="M169.408 34.5631C168.443 34.5822 167.594 33.7654 167.618 32.833C167.594 31.9006 168.443 31.0836 169.408 31.1029C170.368 31.0836 171.208 31.9006 171.189 32.833C171.208 33.7654 170.368 34.5822 169.408 34.5631ZM169.408 33.9767C170.041 33.9767 170.536 33.4626 170.536 32.833C170.536 32.2034 170.041 31.6893 169.408 31.6893C168.77 31.6893 168.275 32.2034 168.275 32.833C168.275 33.4626 168.77 33.9767 169.408 33.9767Z" fill="white"/>
<path d="M174.265 34.5145L173.52 33.3996H172.589V34.5145H171.965V31.1504H173.434C174.456 31.1504 174.884 31.4916 174.884 32.2462C174.884 32.8037 174.658 33.1497 174.183 33.3035L174.999 34.5145H174.265ZM172.589 32.8614H173.469C174.019 32.8614 174.236 32.698 174.236 32.2798C174.236 31.8617 174.019 31.6982 173.469 31.6982H172.589V32.8614Z" fill="white"/>
<path d="M176.222 34.5145H175.598V31.1504H176.222V34.5145Z" fill="white"/>
<path d="M179.604 31.6982H178.53V34.5145H177.906V31.6982H176.83V31.1504H179.604V31.6982Z" fill="white"/>
<path d="M183.392 31.1504L182 33.3226V34.5145H181.371V33.3274L179.979 31.1504H180.729L181.688 32.669L182.653 31.1504H183.392Z" fill="white"/>
<path d="M112.139 11.132V9.08434H107.045V4.8679H114.085V2.78613H104.174V17.5493H115.602V15.4676H107.045V11.132H112.139Z" fill="white"/>
<path d="M132.75 11.1102L137.339 17.5311H140.332V2.79199H133.32L129.491 10.6899L126.195 17.5494H129.314L132.564 10.8485L132.75 11.1102ZM135.456 4.85191H137.522V13.3791L133.99 8.13102L135.456 4.85191Z" fill="white"/>
<path d="M118.264 3.11678C117.276 3.4855 116.43 4.01128 115.752 4.6796C115.075 5.34621 114.551 6.16236 114.197 7.10568C113.838 8.05959 113.656 9.13863 113.656 10.3129C113.656 11.4066 113.837 12.4123 114.193 13.302C114.547 14.1851 115.061 14.9517 115.723 15.5808C116.386 16.2129 117.209 16.7131 118.169 17.0676C119.137 17.4249 120.257 17.606 121.499 17.606C122.328 17.606 124.736 17.5726 125.894 17.5565L126.2 17.5524V8.64272H120.86V10.9476H123.725V15.2373L123.409 15.3493C123.169 15.435 123.021 15.4334 122.309 15.4258L122.276 15.4254C122.158 15.4242 122.072 15.4232 122.012 15.4232C120.356 15.4232 118.948 14.908 117.941 13.9334C117.003 13.026 116.528 11.6871 116.528 9.95375C116.528 8.93429 116.675 8.4587 116.918 7.79687C117.182 7.07564 117.566 6.46963 118.06 5.99558C118.552 5.52255 119.15 5.1697 119.838 4.94709C120.505 4.73183 121.26 4.62258 122.082 4.62258C123.356 4.62258 124.162 4.82197 125.306 5.24003L125.653 3.3078C124.513 2.81958 123.521 2.55566 121.709 2.55566C120.421 2.55566 119.262 2.74447 118.264 3.11678Z" fill="white"/>
<path d="M96.5043 12.2329L100.711 17.5493H104.173L99.7841 12.2351L102.374 9.3515V6.05619C102.374 4.25302 100.909 2.78613 99.1086 2.78613H91.2578V17.5493H94.1293V12.1601H96.447L96.5043 12.2329ZM94.0435 9.94182V4.58502H97.5187C98.8329 4.58502 99.7842 5.59921 99.7842 6.28289V8.48296L98.4914 9.94182H94.0435Z" fill="white"/>
<path d="M62.4824 22.8105L74.3232 34.6668V29.9411L67.1595 22.8105H62.4824Z" fill="white"/>
<path d="M75.502 29.9411V34.6668L87.3429 22.8105H82.6657L75.502 29.9411Z" fill="white"/>
<path d="M74.3233 10.3285V10.0786V7.04461V7.03778V5.39541L69.5651 0.659832V0.670245L64.8879 0.631836L66.5712 2.3174L67.9305 3.67844L68.9237 4.67639L70.283 6.03402L71.2797 7.03197L71.2855 7.03778H64.3069L64.3139 7.04461L60.9785 10.3285H74.3233Z" fill="white"/>
<path d="M66.572 19.1977L67.9313 17.8367L68.9279 16.8421L70.2838 15.4811L71.2806 14.483L72.6397 13.1221L74.3231 11.4365H69.6458L64.9165 16.1999H64.927L64.8887 20.8833L66.572 19.1977Z" fill="white"/>
<path d="M85.5114 7.04461L85.5184 7.03778H78.8337L78.539 7.03829L78.5453 7.03197L79.5419 6.03402L80.9012 4.67639L81.8946 3.67844L83.2537 2.3174L84.937 0.631836L80.26 0.670245V0.659832L75.502 5.39541V7.04461V10.0786V10.3285H88.8467L85.5114 7.04461Z" fill="white"/>
<path d="M78.478 14.483L79.4748 15.4811L80.8307 16.8421L81.8273 17.8367L83.1866 19.1977L84.8699 20.8833L84.8318 16.1999H84.8422L80.1128 11.4365H75.4355L77.1189 13.1221L78.478 14.483Z" fill="white"/>
<path d="M76.525 14.4961H73.2824L71.3809 16.4394H78.4433L76.525 14.4961Z" fill="white"/>
<path d="M76.525 17.5879H73.2824L71.3809 19.5312H78.4433L76.525 17.5879Z" fill="white"/>
<path d="M76.525 20.6572H73.2824L71.3809 22.6006H78.4433L76.525 20.6572Z" fill="white"/>
<path d="M71.3809 25.6824H78.4433L76.525 23.7393H73.2824L71.3809 25.6824Z" fill="white"/>
<path d="M51.222 0.356445H50.9141V34.5205H51.222V0.356445Z" fill="white"/>
</g>
<defs>
<clipPath id="clip0_275_348">
<rect width="182.759" height="34.4828" fill="white" transform="translate(0.677734 0.258789)"/>
</clipPath>
</defs>
</svg>
