<svg width="239" height="178" viewBox="0 0 239 178" fill="none" xmlns="http://www.w3.org/2000/svg">
<g clip-path="url(#clip0_253_3047)">
<path d="M23.3307 42.5645L17.8477 48.2265L23.3307 53.8285L28.9917 48.2265L23.3307 42.5645Z" fill="#002F56"/>
<path d="M61.9937 42.0142H71.6337H75.4227C79.8707 42.0142 83.1207 40.6872 85.0877 38.0692L89.0327 42.0142H96.3947C100.675 42.0142 103.975 41.0382 106.203 39.1152C108.441 37.1842 109.557 34.2362 109.519 30.3552V15.4842H90.6447C86.8937 15.4842 84.0427 16.2002 82.1717 17.6132C80.2947 19.0302 79.0537 21.2942 78.4817 24.3422L77.0727 32.2332C76.7787 33.8492 76.3727 35.0352 75.8677 35.7572C75.3787 36.4552 74.7547 36.7932 73.9577 36.7932H71.6347H70.6427H61.9947H61.0027H52.3547H51.3627H42.7147H41.7227H40.3027C39.6147 36.7932 39.0207 36.7122 38.5377 36.5502C38.0737 36.3962 37.6727 36.0982 37.3447 35.6652C37.0037 35.2182 36.6927 34.5752 36.4197 33.7542C36.1407 32.9172 35.8287 31.7942 35.4937 30.4172L34.1407 24.8362C33.1937 20.8972 31.2607 17.7932 28.3967 15.6112C25.5327 13.4312 21.9897 12.3262 17.8657 12.3262C15.8977 12.3262 13.7697 12.7092 11.5387 13.4642C9.31875 14.2172 6.61275 15.4942 3.49675 17.2582L3.38775 17.3192V22.6452L3.72375 22.4122C4.68475 21.7472 5.72975 21.1162 6.82975 20.5372C7.92775 19.9612 9.06775 19.4422 10.2187 18.9972C11.3657 18.5532 12.5497 18.1962 13.7387 17.9362C14.9237 17.6782 16.0847 17.5472 17.1877 17.5472C18.8817 17.5472 20.3457 18.2242 21.5377 19.5612C22.7477 20.9182 23.6807 22.9542 24.3077 25.6122L25.6047 31.1362C25.7727 31.8792 25.9747 32.5852 26.2037 33.2382L14.5517 35.5572C12.7027 35.9342 10.9067 36.4982 9.21075 37.2332C7.50875 37.9712 5.98275 38.9022 4.67675 40.0002C3.36175 41.1062 2.30075 42.4272 1.52375 43.9272C0.740754 45.4352 0.34375 47.1852 0.34375 49.1282C0.34375 51.0312 0.749754 52.7902 1.55075 54.3562C2.34975 55.9152 3.41975 57.2742 4.73075 58.3962C6.04375 59.5172 7.58275 60.4033 9.30675 61.0283C11.0317 61.6543 12.8487 61.9712 14.7077 61.9712C15.2747 61.9712 15.8317 61.9422 16.3657 61.8852C16.8947 61.8282 17.4227 61.7623 17.9517 61.6873L18.0657 61.6712L19.9707 57.6712L19.5907 57.7112C18.8927 57.7842 18.1687 57.7842 17.4357 57.7112C16.7057 57.6372 15.9837 57.4712 15.2897 57.2152C14.6017 56.9622 13.9507 56.5762 13.3527 56.0692C12.7527 55.5592 12.2267 54.9412 11.7897 54.2312C11.3507 53.5182 11.0077 52.7292 10.7707 51.8892C10.5327 51.0482 10.4127 50.1382 10.4127 49.1852C10.4127 46.8392 11.0417 44.8552 12.2837 43.2862C13.5227 41.7182 15.5667 40.6442 18.3587 40.0932L28.6007 38.0342C29.5427 39.2452 30.7347 40.2162 32.1457 40.9212C33.5957 41.6462 35.4487 42.0153 37.6537 42.0153H41.7237H42.7157H51.3637H52.3557H61.0037L61.9937 42.0142ZM87.3797 31.6912L88.5997 24.7582C88.8897 23.2322 89.3517 22.1612 89.9737 21.5762C90.5867 20.9972 91.6847 20.7042 93.2367 20.7042H99.5057V30.9192C99.5057 34.8712 97.9897 36.7932 94.8717 36.7932H92.5357L87.3797 31.6912Z" fill="#002F56"/>
<path d="M132.462 42.0141H141.11H142.102H150.75H151.742H160.39H161.382H168.891C175.131 42.0141 178.294 39.1731 178.294 33.5691V15.9911H168.338V36.7931H161.381H160.389H151.741H150.749H142.101H141.109H132.461H131.469H125.922V2.12207H115.91V42.0141H131.47H132.462Z" fill="#002F56"/>
<path d="M179.233 5.77588L173.63 0.171875L168.086 5.77588L173.63 11.3779L179.233 5.77588Z" fill="#002F56"/>
<path d="M178.527 50.1151L180.302 54.1721L180.42 54.1881C180.944 54.2631 181.471 54.3212 181.984 54.3592C182.5 54.3972 183.026 54.4161 183.55 54.4161C185.215 54.4161 186.875 54.1851 188.485 53.7311C190.099 53.2751 191.63 52.5241 193.036 51.4991C194.485 50.4311 195.615 49.1072 196.398 47.5622C197.154 46.0662 197.639 44.2012 197.841 42.0142H204.871H205.863H214.511H215.503H223.012C229.252 42.0142 232.415 39.1731 232.415 33.5691V15.9911H222.459V36.7931H215.502H214.51H205.862H204.87H197.97V15.3711H187.958V40.3902C187.958 43.0032 187.363 45.2402 186.19 47.0362C185.463 48.1252 184.477 48.9731 183.26 49.5541C182.042 50.1351 180.574 50.3371 178.893 50.1541L178.527 50.1151Z" fill="#002F56"/>
<path d="M216.848 50.5945L222.391 56.1965L227.994 50.5945L222.391 44.9326L216.848 50.5945Z" fill="#002F56"/>
<path d="M10.9698 88.4478L11.0138 88.1968H1.45684L1.41784 88.3608C1.00384 90.0918 0.717846 91.7028 0.566846 93.1528C0.415846 94.5978 0.339844 95.8278 0.339844 96.8118C0.339844 98.7168 0.735842 100.484 1.51784 102.065C2.29884 103.647 3.45784 105.028 4.96284 106.171C6.46084 107.309 8.33384 108.213 10.5288 108.856C12.7158 109.498 15.2578 109.823 18.0868 109.823H47.8418V83.1797H37.8298V104.603H19.0448C15.8958 104.603 13.6388 103.776 12.3338 102.147C11.0178 100.502 10.3508 98.1758 10.3508 95.2338C10.3508 94.1188 10.4078 92.9688 10.5198 91.8158C10.6318 90.6568 10.7838 89.5248 10.9698 88.4478Z" fill="#002F56"/>
<path d="M13.4453 76.1206L18.9883 81.7236L24.2883 76.4246L29.5313 81.7236L35.1343 76.1206L29.5313 70.5176L24.2883 75.8166L18.9883 70.5176L13.4453 76.1206Z" fill="#002F56"/>
<path d="M100.058 118.707L105.301 124.006L110.904 118.403L105.301 112.799L100.058 118.099L94.7589 112.799L89.2148 118.403L94.7589 124.006L100.058 118.707Z" fill="#002F56"/>
<path d="M224.84 118.404L219.178 112.741L213.695 118.404L219.178 124.006L224.84 118.404Z" fill="#002F56"/>
<path d="M238.694 105.504C237.812 105.469 237.081 105.185 236.517 104.655C235.875 104.086 235.433 103.343 235.201 102.45L234.498 99.7497L233.2 94.1647C232.215 90.2247 230.244 87.1217 227.342 84.9407C224.442 82.7607 220.842 81.6557 216.643 81.6557C214.675 81.6557 212.547 82.0387 210.317 82.7937C208.096 83.5467 205.391 84.8237 202.275 86.5877L202.166 86.6497V91.6647L202.491 91.4677C204.464 90.2767 206.57 89.2007 208.751 88.2677C210.914 87.3437 213.019 86.8757 215.009 86.8757C216.174 86.8757 217.206 87.0777 218.076 87.4757C218.948 87.8767 219.712 88.4367 220.345 89.1437C220.985 89.8577 221.533 90.7117 221.973 91.6817C222.415 92.6587 222.771 93.7547 223.031 94.9427L224.384 100.468C224.765 102.028 225.281 103.416 225.919 104.599H200.17H199.177H192.156C193.134 102.86 193.63 100.696 193.63 98.1617V83.2897H174.756C171.005 83.2897 168.154 84.0057 166.283 85.4187C164.406 86.8357 163.165 89.0997 162.593 92.1477L161.184 100.039C160.89 101.655 160.484 102.841 159.979 103.563C159.49 104.261 158.866 104.599 158.069 104.599H155.746H154.754H145.794C147.405 103.173 148.695 101.546 149.633 99.7547C150.659 97.7977 151.179 95.6677 151.179 93.4257C151.179 90.2077 149.8 87.6537 147.081 85.8337C144.387 84.0327 140.592 83.1197 135.8 83.1197H124.643L119.229 90.3777L119.859 95.8747C120.289 99.4957 121.518 102.428 123.516 104.599H114.818H113.826H109.079C107.82 104.599 107.392 104.359 107.254 104.157C107.036 103.839 106.925 103.339 106.925 102.672V86.6157H96.9687V104.599H90.0117H89.0197H80.3727H79.3797H70.7327H69.7407H64.1937V69.9277H54.1797V109.82H69.7397H70.7317H79.3787H80.3717H89.0187H90.0107H97.5197C99.7427 109.82 101.58 109.469 102.982 108.778C104.23 109.47 105.749 109.82 107.498 109.82H113.824H114.816H155.745H159.534C163.947 109.82 167.197 108.474 169.199 105.818L173.201 109.82H199.177H238.9V105.51L238.694 105.504ZM183.618 88.5117V98.7267C183.618 102.679 182.102 104.601 178.984 104.601H176.649L171.491 99.4437L172.711 92.5657C173.001 91.0397 173.463 89.9687 174.085 89.3837C174.698 88.8047 175.796 88.5117 177.348 88.5117H183.618ZM141.167 93.7667C141.167 94.8687 141.017 95.9787 140.723 97.0647C140.427 98.1537 140.016 99.1917 139.501 100.148C138.985 101.105 138.351 101.992 137.616 102.782C136.905 103.547 136.133 104.19 135.319 104.696C134.736 104.514 134.152 104.22 133.582 103.824C132.987 103.41 132.438 102.822 131.947 102.077C131.451 101.325 131.014 100.384 130.647 99.2797C130.277 98.1707 129.995 96.8207 129.811 95.2637L129.048 88.3437H136.025C137.61 88.3437 138.876 88.8237 139.788 89.7717C140.703 90.7217 141.167 92.0657 141.167 93.7667Z" fill="#002F56"/>
<path d="M16.4648 155.723V159.535H32.3968V155.148C32.3968 153.517 31.8728 152.185 30.8378 151.188C29.8048 150.194 28.3988 149.69 26.6578 149.69H26.2158L28.3578 145.406H22.1258L17.9168 154.123H24.7418C25.6508 154.123 25.7678 154.52 25.7678 154.866V155.722H16.4648V155.723Z" fill="#002F56"/>
<path d="M38.7318 172.41H19.3838C17.5718 172.41 16.0568 172.224 14.8808 171.856C13.7188 171.494 12.8008 170.972 12.1528 170.305C11.5038 169.637 11.0478 168.835 10.7968 167.917C10.5398 166.982 10.4098 165.949 10.4098 164.844C10.4098 163.846 10.4948 162.737 10.6618 161.548C10.8298 160.347 11.0088 159.146 11.1968 157.944L11.2358 157.696H1.27784L1.24585 157.873C0.945846 159.559 0.716846 161.071 0.566846 162.368C0.415846 163.664 0.339844 164.781 0.339844 165.691C0.339844 167.448 0.726841 169.084 1.49184 170.554C2.25584 172.026 3.40684 173.304 4.91384 174.352C6.41084 175.394 8.28285 176.211 10.4798 176.78C12.6668 177.345 15.2258 177.632 18.0878 177.632H39.1728C45.5248 177.632 48.7458 174.733 48.7458 169.018V137.74H38.7328L38.7318 172.41Z" fill="#002F56"/>
<path d="M60.9147 166.366L59.2757 167.626L62.9247 172.188L67.2637 168.905C70.5927 166.371 72.7047 163.641 73.5407 160.79C74.3787 157.93 73.8427 154.614 71.9457 150.934L66.2657 140.032L57.5938 144.575L59.3897 147.807L63.1097 154.853C64.2107 156.982 64.6308 159.073 64.3568 161.067C64.0838 163.047 62.9257 164.83 60.9147 166.366Z" fill="#002F56"/>
<path d="M201.321 172.41H195.774H194.782H186.134H185.142H176.495H175.502H168.481C169.459 170.671 169.955 168.507 169.955 165.973V151.101H151.081C147.33 151.101 144.479 151.817 142.608 153.23C140.731 154.647 139.49 156.911 138.918 159.959L137.509 167.85C137.215 169.466 136.809 170.652 136.304 171.374C135.815 172.072 135.191 172.41 134.394 172.41H132.071H131.079H122.431H121.439H112.791H111.799H103.151H102.159H93.5109H92.5189H87.7729C87.2789 172.41 87.0279 171.762 87.0279 170.483V137.74H77.0159V172.411H55.0859V177.632H77.5119C79.7009 177.632 81.5739 177.262 83.0819 176.535C84.2989 177.263 85.8759 177.632 87.7729 177.632H92.5189H93.5109H102.159H103.151H111.799H112.791H121.439H122.431H132.071H135.86C140.273 177.632 143.523 176.286 145.525 173.63L149.527 177.632H175.503H185.143H186.135H194.783H195.775H201.818C208.133 177.632 211.335 174.733 211.335 169.018V137.74H201.321V172.41ZM159.941 156.321V166.536C159.941 170.488 158.425 172.41 155.307 172.41H152.972L147.814 167.253L149.034 160.375C149.324 158.849 149.786 157.778 150.408 157.193C151.021 156.614 152.119 156.321 153.671 156.321H159.941Z" fill="#002F56"/>
<path d="M227.68 137.739H217.668V177.631H227.68V137.739Z" fill="#002F56"/>
</g>
<defs>
<clipPath id="clip0_253_3047">
<rect width="239" height="178" fill="white"/>
</clipPath>
</defs>
</svg>
