<svg width="26" height="26" viewBox="0 0 26 26" fill="none" xmlns="http://www.w3.org/2000/svg">
<path fill-rule="evenodd" clip-rule="evenodd" d="M5.20412 0.50067C5.86526 0.637315 6.39177 1.08151 6.71889 1.66838L7.76097 3.53789C8.14481 4.22647 8.46784 4.80594 8.67879 5.30967C8.90256 5.84402 9.03546 6.37096 8.97471 6.95355C8.91395 7.53613 8.67519 8.02431 8.34599 8.501C8.03564 8.95037 7.60002 9.45072 7.08236 10.0453L4.4832 13.0308C6.54451 16.4095 9.58827 19.4546 12.9704 21.518L15.9559 18.9188C16.5505 18.4012 17.0508 17.9656 17.5002 17.6552C17.9769 17.326 18.4651 17.0873 19.0477 17.0265C19.6302 16.9657 20.1572 17.0987 20.6915 17.3224C21.1953 17.5334 21.7747 17.8564 22.4633 18.2402L24.3328 19.2823C24.9197 19.6094 25.3639 20.1359 25.5005 20.7971C25.6386 21.4651 25.4349 22.1366 24.9851 22.6885C23.3531 24.6909 20.7383 25.9659 17.9952 25.4125C16.309 25.0724 14.6454 24.5057 12.6332 23.3517C8.5903 21.0331 4.96538 17.4062 2.64946 13.368C1.49549 11.3558 0.928824 9.69218 0.58869 8.00604C0.0353445 5.26295 1.31032 2.64812 3.31274 1.01606C3.86462 0.566265 4.53609 0.362598 5.20412 0.50067ZM14.6004 22.4192C15.9611 23.0897 17.1447 23.4557 18.3412 23.6971C20.3199 24.0962 22.3176 23.1914 23.6286 21.5829C23.8008 21.3716 23.8018 21.2242 23.7868 21.1513C23.7703 21.0715 23.7034 20.935 23.4808 20.8109L21.6532 19.7922C20.9116 19.3788 20.4179 19.1051 20.0156 18.9366C19.6336 18.7767 19.4145 18.7477 19.2292 18.7671C19.0439 18.7864 18.8354 18.8599 18.4947 19.0952C18.1357 19.3431 17.7091 19.7128 17.0688 20.2702L14.6004 22.4192ZM3.58198 11.4008L5.73096 8.9324C6.28843 8.29206 6.65813 7.86546 6.90601 7.50653C7.1413 7.16583 7.21482 6.95735 7.23414 6.77204C7.25347 6.58673 7.22455 6.36756 7.06461 5.98564C6.89612 5.58329 6.62239 5.08959 6.20903 4.34801L5.19032 2.52042C5.06621 2.29776 4.92973 2.23095 4.84991 2.21445C4.777 2.19938 4.62956 2.20044 4.41835 2.37258C2.80978 3.68363 1.90498 5.68127 2.30414 7.65999C2.5455 8.85651 2.91147 10.0401 3.58198 11.4008Z" fill="white"/>
</svg>
