<svg width="190" height="60" viewBox="0 0 190 60" fill="none" xmlns="http://www.w3.org/2000/svg">
<path d="M164.191 44.8439C163.756 45.135 163.269 45.2266 162.768 45.2296C161.406 45.2386 160.043 45.2371 158.681 45.2296C158.25 45.2281 157.845 45.123 157.497 44.8424C157.026 45.1545 156.497 45.2326 155.954 45.2326C152.821 45.2356 149.689 45.2326 146.556 45.2326C145.753 44.5768 144.951 43.9211 144.145 43.2623C144.178 42.2314 144.055 41.1946 144.253 40.1787C144.524 38.9872 145.284 38.3 146.466 38.0734C146.802 38.0089 147.15 37.9758 147.492 37.9743C149.106 37.9638 152.066 37.9698 152.066 37.9698C152.065 39.718 152.071 41.2591 152.072 44.0591H156.022V38.9107H158.325C158.325 39.2528 158.325 39.9326 158.325 40.2732C158.325 40.2732 158.327 42.3005 158.328 43.3134C158.321 43.8656 158.475 44.0816 159.048 44.0681C160.273 44.0636 161.496 44.0786 162.72 44.0636V38.9077H165.018C165.018 40.4368 165.019 41.2276 165.025 43.3103C165.019 43.8866 165.178 44.0816 165.766 44.0681C167.13 44.0651 168.493 44.0771 169.857 44.0636C169.51 43.5279 169.305 42.9517 169.288 42.3155C169.258 41.6522 169.26 40.3227 169.26 40.3227C169.26 40.0721 169.26 39.3879 169.26 39.1343H171.468V36.2787C172.694 36.2562 173.919 36.2637 175.145 36.2772C177.931 36.3207 179.89 38.0959 179.77 40.9545C179.043 41.6012 178.334 42.2329 177.616 42.8722C177.991 43.4814 178.478 44.1327 179.27 44.0696C180.202 44.0531 181.131 44.0636 182.064 44.0696V34.2109H184.385C184.385 35.833 184.387 39.0683 184.387 42.8617C184.433 44.5003 183.5 45.2506 181.92 45.2296C180.734 45.2371 179.547 45.2206 178.362 45.2371C177.438 45.2611 176.687 44.8814 176.033 44.2632C175.678 44.5828 175.317 44.9054 174.951 45.2326C171.815 45.2326 168.677 45.2326 165.54 45.2326C165.055 45.2386 164.579 45.1485 164.188 44.8424L164.191 44.8439ZM149.754 39.1508C149.109 39.1163 148.441 39.1358 147.791 39.1613C146.865 39.1958 146.465 40.0316 146.468 40.8719C146.462 41.7498 146.456 42.6276 146.468 43.5039C146.702 43.6945 146.933 43.8836 147.149 44.0606H149.754V39.1508ZM175.236 43.2488C174.668 42.2525 174.108 41.2711 173.55 40.2942H171.605C171.595 40.974 171.601 41.6522 171.605 42.332C171.601 43.2368 172.034 44.0201 173.013 44.0531C173.442 44.0786 173.872 44.0576 174.323 44.0576C174.621 43.795 174.933 43.5174 175.238 43.2503L175.236 43.2488ZM175.475 39.1343C175.973 39.9941 176.47 40.8524 176.973 41.7183C177.136 41.5772 177.289 41.4436 177.432 41.3206C177.438 40.4383 177.502 39.5514 177.088 38.7486C176.735 38.0359 176.192 37.5452 175.38 37.4612C174.861 37.4206 174.315 37.4176 173.8 37.4477V39.1343H175.475Z" fill="white"/>
<path d="M188.608 45.2275H186.307V34.2119H188.608V45.2275Z" fill="white"/>
<path d="M158.939 34.9346V36.4171H157.784V35.5648C157.29 35.4357 156.957 35.6803 156.948 36.168C156.944 36.4471 156.948 36.7262 156.948 37.0098C157.065 37.1179 157.182 37.2259 157.307 37.3385H159.277V38.1082H155.371V37.3385H156.186C155.997 37.1689 155.835 37.0248 155.695 36.9003C155.667 36.0315 155.596 35.1566 156.657 34.9676C157.214 34.882 158.869 34.9436 158.944 34.9271V34.9346H158.939Z" fill="white"/>
<path d="M149.993 33.9246C150.44 34.3718 150.894 34.825 151.336 35.2676C150.891 35.7133 150.436 36.168 149.99 36.6136C149.548 36.1845 149.091 35.7418 148.631 35.2962C148.19 35.7388 147.736 36.1935 147.276 36.6542C146.821 36.189 146.381 35.7388 145.93 35.2766C146.377 34.819 146.82 34.3658 147.264 33.9111C147.72 34.3688 148.172 34.822 148.614 35.2646C149.082 34.81 149.542 34.3658 149.993 33.9276V33.9246Z" fill="white"/>
<path d="M160.826 47.8079C161.296 47.3547 161.752 46.9135 162.198 46.4844C162.625 46.912 163.079 47.3652 163.521 47.8079C163.086 48.243 162.633 48.6962 162.198 49.1299C161.751 48.6977 161.293 48.2565 160.826 47.8064V47.8079Z" fill="white"/>
<path d="M166.256 47.813C165.821 48.2481 165.367 48.6983 164.929 49.1365C164.479 48.7013 164.02 48.2586 163.555 47.8085C164.024 47.3538 164.481 46.9111 164.925 46.4805C165.354 46.9096 165.807 47.3628 166.256 47.813Z" fill="white"/>
<path d="M117.018 34.21H119.339V44.0642H123.989C123.374 43.4804 122.982 42.7827 122.847 41.9499C122.732 41.2626 122.664 40.5678 122.586 39.8746C123.06 39.2323 123.532 38.5916 124.004 37.9524C125.185 37.9569 126.354 37.9374 127.531 37.9779C128.324 38.0109 129.093 38.1759 129.786 38.5916C131.277 39.4064 131.298 41.2581 130.553 42.6116C130.241 43.1878 129.816 43.6605 129.297 44.0612H134.121V34.2145H136.441C136.441 35.9356 136.444 39.0223 136.444 42.8637C136.489 43.9996 135.98 44.9645 134.798 45.1581C128.884 45.3666 122.943 45.1701 117.021 45.2361C117.021 40.7824 117.018 35.7285 117.018 34.2115V34.21ZM124.83 39.1288C124.87 39.6555 124.935 40.1762 124.998 40.6999C125.059 41.1666 125.11 41.6377 125.214 42.0954C125.404 42.9552 125.941 43.8841 126.869 44.0837C128.066 43.3514 128.796 41.9919 128.701 40.5858C128.671 40.1297 128.497 39.735 128.125 39.4484C127.804 39.2023 127.433 39.1228 127.038 39.1228C126.302 39.1288 125.568 39.1123 124.831 39.1288H124.83Z" fill="white"/>
<path d="M109.366 45.2347C108.961 44.8265 108.551 44.4139 108.137 43.9952C107.688 44.6885 106.986 45.0876 106.18 45.1837C103.196 45.3157 100.198 45.1957 97.2086 45.2347C96.4043 44.5774 95.6015 43.9217 94.7852 43.2539C94.7987 42.4016 94.7882 41.5433 94.8317 40.688C94.8632 40.0652 95.0598 39.4815 95.4664 38.9878C96.1132 38.185 97.159 37.9915 98.1359 37.975C99.752 37.9645 102.722 37.9705 102.722 37.9705C102.722 39.6226 102.725 41.2927 102.726 44.0702C103.245 44.0702 103.76 44.0702 104.278 44.0702C104.915 44.0552 105.664 44.2158 105.96 43.494C106.078 43.2224 106.161 42.9313 106.219 42.6402C106.397 41.7684 106.536 40.8906 106.724 40.0217C106.845 39.4575 107.115 38.9608 107.579 38.5932C108.223 38.0785 109.068 38.0245 109.858 38.0035C111.585 37.996 114.822 38.0005 114.822 38.0005C114.81 39.5611 114.848 40.4479 114.813 42.4526C114.792 43.1549 114.588 43.8031 114.087 44.3238C112.903 45.5393 110.921 45.1762 109.368 45.2347H109.366ZM112.502 39.1829C111.718 39.1829 110.946 39.1679 110.176 39.1874C109.267 39.2069 109.066 39.8837 108.944 40.6625C108.823 41.3017 108.706 41.9424 108.598 42.5322C109.111 43.0634 109.602 43.5691 110.068 44.0522C110.936 44.0582 111.991 44.2143 112.342 43.2209C112.429 42.9868 112.49 42.7287 112.495 42.4796C112.508 41.3812 112.517 40.2798 112.502 39.1829ZM100.4 44.0642V39.1184C99.7205 39.1334 99.0468 39.1259 98.379 39.1724C97.6452 39.1949 97.1846 39.8777 97.144 40.5664C97.1245 41.5418 97.135 42.5187 97.135 43.518C97.3466 43.6906 97.5807 43.8827 97.8028 44.0642H100.4Z" fill="white"/>
<path d="M138.361 34.208H140.665C140.665 36.0777 140.669 40.5944 140.669 45.2251H138.363V34.208H138.361Z" fill="white"/>
<path d="M97.9166 33.9038C98.3728 34.3645 98.823 34.8192 99.2656 35.2649C99.7338 34.8102 100.193 34.366 100.648 33.9234C101.093 34.369 101.545 34.8222 101.991 35.2679C101.542 35.7165 101.087 36.1712 100.642 36.6169C100.194 36.1817 99.7383 35.739 99.2761 35.2889C98.8335 35.733 98.3788 36.1877 97.9196 36.6469C97.4695 36.1862 97.0283 35.7345 96.5781 35.2739C97.0253 34.8162 97.468 34.363 97.9166 33.9023V33.9038Z" fill="white"/>
<path d="M71.1386 37.9504C72.312 37.9549 73.4795 37.9414 74.6514 37.9759C75.4497 38.0014 76.221 38.1725 76.9188 38.5881C78.4193 39.4075 78.4313 41.2742 77.675 42.6292C77.3644 43.1964 76.9428 43.6616 76.4296 44.0562H81.2524V34.2095H83.5737C83.5737 34.5591 83.5737 35.2494 83.5737 35.596C83.5737 35.596 83.5738 40.3723 83.5783 42.7612C83.5933 43.2084 83.5227 43.6375 83.3937 44.0607H87.1181V34.208H89.4304C89.447 36.3898 89.4229 38.8342 89.438 42.8663C89.438 43.1964 89.4169 43.522 89.3209 43.8401C89.0898 44.5994 88.5511 45.0091 87.7963 45.1546C76.317 45.3722 64.8092 45.1621 53.3194 45.2326C53.3194 40.7745 53.3164 35.7386 53.3164 34.208H55.6348V44.0607H60.3706C59.8183 43.4965 59.2586 42.9233 58.6944 42.3441C58.7124 41.6523 58.6419 40.953 58.8055 40.2643C59.0786 39.1073 59.8273 38.4441 60.9723 38.2205C61.3279 38.1515 61.6971 38.12 62.0587 38.117C63.6268 38.1065 66.5199 38.1125 66.5199 38.1125C66.5184 39.64 66.5229 40.4819 66.5274 42.4776C66.5274 43.0058 66.5484 43.537 66.3413 44.0562H71.1176C70.5054 43.474 70.1152 42.7777 69.9817 41.9479C69.8646 41.2607 69.8001 40.5659 69.7206 39.8726C70.1947 39.2304 70.6659 38.5911 71.1386 37.9504ZM74.0017 44.0832C75.1976 43.3554 75.9284 41.9929 75.8354 40.5899C75.8053 40.1232 75.6268 39.7226 75.2426 39.436C74.9275 39.2004 74.5629 39.1239 74.1757 39.1239C73.436 39.1314 72.6977 39.1103 71.9594 39.1314C72.0569 40.0122 72.1425 40.881 72.2715 41.7558C72.4261 42.7297 72.9513 43.8461 74.0017 44.0832ZM61.0293 42.7642C61.472 43.2069 61.8981 43.633 62.3228 44.0592C62.7624 44.0592 63.2096 44.0682 63.6553 44.0562C63.9239 44.0487 64.0934 43.8821 64.1595 43.627C64.194 43.4905 64.209 43.3434 64.2105 43.2024C64.2105 41.8924 64.2225 40.5809 64.206 39.2709C63.6088 39.2499 63.01 39.2604 62.4128 39.2784C61.6925 39.3084 61.2109 39.7256 61.0938 40.4383C60.9948 41.1946 61.0368 42.0169 61.0293 42.7672V42.7642Z" fill="white"/>
<path d="M46.5446 48.2364C46.4201 47.9513 46.3 47.6752 46.168 47.372C47.7541 47.5416 48.7834 46.1671 48.7744 44.689C48.7864 42.4067 48.7789 40.2669 48.7804 37.9785H51.0913C51.0883 40.0673 51.1108 42.4202 51.0913 44.5855C51.1453 47.1875 48.9815 48.586 46.5446 48.2349V48.2364Z" fill="white"/>
<path d="M63.3527 35.2319C62.8966 35.6745 62.4419 36.1157 61.9977 36.5479C61.5506 36.1157 61.0959 35.676 60.6367 35.2334C61.1064 34.7802 61.5656 34.3375 62.0457 33.8739C62.4509 34.294 62.8936 34.7532 63.3272 35.2019C63.8044 34.7382 64.2531 34.3015 64.7092 33.8604C65.1474 34.3135 65.5946 34.7757 66.0252 35.2229C65.6066 35.655 65.1609 36.1157 64.7258 36.5644C64.2591 36.1127 63.8014 35.6685 63.3512 35.2334L63.3527 35.2319Z" fill="white"/>
<path d="M49.9999 55.8032L48.8595 54.097H47.4324V55.8032H46.4766V50.6562H48.7259C50.2925 50.6562 50.9467 51.1784 50.9467 52.3324C50.9467 53.1847 50.6016 53.7144 49.8738 53.95L51.1238 55.8032H49.9984H49.9999ZM47.4339 53.2747H48.7799C49.6247 53.2747 49.9564 53.0241 49.9564 52.3849C49.9564 51.7457 49.6247 51.4951 48.7799 51.4951H47.4339V53.2747Z" fill="white"/>
<path d="M56.0574 51.5086H52.9993V52.7886H55.8293V53.6049H52.9993V54.9509H56.1175V55.8032H52.0449V50.6562H56.0589V51.5086H56.0574Z" fill="white"/>
<path d="M60.8054 54.6703H58.298L57.8343 55.8032H56.7539L58.9222 50.6562H60.1797L62.3555 55.8032H61.2676L60.8039 54.6703H60.8054ZM60.4753 53.8765L59.5495 51.6196L58.6236 53.8765H60.4768H60.4753Z" fill="white"/>
<path d="M64.243 54.9434H66.9635V55.8032H63.2871V50.6562H64.243V54.9434Z" fill="white"/>
<path d="M73.7508 51.5086H70.6926V52.7886H73.5227V53.6049H70.6926V54.9509H73.8108V55.8032H69.7383V50.6562H73.7523V51.5086H73.7508Z" fill="white"/>
<path d="M78.4252 51.9001C77.8729 51.606 77.1977 51.4154 76.6755 51.4154C76.1248 51.4154 75.7497 51.621 75.7497 52.0397C75.7497 52.3113 75.8967 52.4298 76.713 52.6504C77.8444 52.964 78.9894 53.1711 78.9699 54.2905C78.9954 56.3298 75.7437 56.1302 74.4922 55.1954L74.9333 54.4751C75.6476 54.9433 77.906 55.5405 77.963 54.343C77.963 53.9904 77.7649 53.8869 77.0296 53.7038C75.8397 53.4052 74.6963 53.2026 74.7143 52.1087C74.7533 50.143 77.6629 50.3921 78.8468 51.1378L78.4282 51.9031L78.4252 51.9001Z" fill="white"/>
<path d="M83.8273 51.4951H82.1796V55.8032H81.2238V51.4951H79.5762V50.6562H83.8258V51.4951H83.8273Z" fill="white"/>
<path d="M87.8406 54.6703H85.3331L84.8695 55.8032H83.7891L85.9574 50.6562H87.2149L89.3907 55.8032H88.3028L87.8391 54.6703H87.8406ZM87.509 53.8765L86.5831 51.6196L85.6573 53.8765H87.5105H87.509Z" fill="white"/>
<path d="M93.6163 51.4951H91.9687V55.8032H91.0128V51.4951H89.3652V50.6562H93.6148V51.4951H93.6163Z" fill="white"/>
<path d="M98.5511 51.5086H95.493V52.7886H98.323V53.6049H95.493V54.9509H98.6111V55.8032H94.5371V50.6562H98.5511V51.5086Z" fill="white"/>
<path d="M105.394 51.9578C104.273 50.9314 102.285 51.5872 102.291 53.2303C102.307 54.8479 104.125 55.4496 105.32 54.5973V53.7225H104.078V52.9512H106.225V55.091C105.637 55.5907 104.851 55.8773 104.027 55.8773C102.549 55.9073 101.248 54.6573 101.284 53.2303C101.254 50.7934 104.351 49.7775 106.018 51.3111L105.394 51.9578Z" fill="white"/>
<path d="M111.569 51.5086H108.511V52.7886H111.341V53.6049H108.511V54.9509H111.629V55.8032H107.555V50.6562H111.569V51.5086Z" fill="white"/>
<path d="M117.325 50.6562V55.8032H116.318L113.597 52.1043V55.8032H112.656V50.6562H113.663L116.391 54.3551V50.6562H117.325Z" fill="white"/>
<path d="M122.719 51.5086H119.661V52.7886H122.491V53.6049H119.661V54.9509H122.779V55.8032H118.705V50.6562H122.719V51.5086Z" fill="white"/>
<path d="M127.327 55.8032L126.188 54.097H124.761V55.8032H123.805V50.6562H126.054C127.621 50.6562 128.275 51.1784 128.275 52.3324C128.275 53.1847 127.93 53.7144 127.202 53.95L128.452 55.8032H127.327ZM124.761 53.2747H126.107C126.953 53.2747 127.283 53.0241 127.283 52.3849C127.283 51.7457 126.953 51.4951 126.107 51.4951H124.761V53.2747Z" fill="white"/>
<path d="M133.085 54.6703H130.577L130.114 55.8032H129.033L131.202 50.6562H132.459L134.635 55.8032H133.547L133.083 54.6703H133.085ZM132.753 53.8765L131.827 51.6196L130.901 53.8765H132.755H132.753Z" fill="white"/>
<path d="M136.524 54.9434H139.245V55.8032H135.568V50.6562H136.524V54.9434Z" fill="white"/>
<path d="M145.616 54.6703H143.109L142.645 55.8032H141.564L143.733 50.6562H144.99L147.166 55.8032H146.078L145.614 54.6703H145.616ZM145.284 53.8765L144.359 51.6196L143.433 53.8765H145.286H145.284Z" fill="white"/>
<path d="M152.489 53.4803C152.489 55.0169 151.665 55.8767 150.194 55.8767C148.724 55.8767 147.893 55.0094 147.893 53.4803V50.6562H148.848V53.4803C148.848 54.4512 149.341 54.9944 150.194 54.9944C151.048 54.9944 151.533 54.4497 151.533 53.4803V50.6562H152.489V53.4803Z" fill="white"/>
<path d="M157.669 51.4951H156.021V55.8032H155.066V51.4951H153.418V50.6562H157.668V51.4951H157.669Z" fill="white"/>
<path d="M163.256 55.8032H162.3V53.6409H159.544V55.8032H158.588V50.6562H159.544V52.781H162.3V50.6562H163.256V55.8032Z" fill="white"/>
<path d="M167.189 55.8746C165.711 55.9046 164.41 54.6546 164.446 53.2276C164.409 51.8006 165.711 50.5506 167.189 50.5806C168.66 50.5506 169.946 51.8006 169.917 53.2276C169.947 54.6546 168.66 55.9031 167.189 55.8746ZM167.189 54.9788C168.16 54.9788 168.916 54.1925 168.916 53.2291C168.84 50.9047 165.528 50.9122 165.453 53.2291C165.453 54.1925 166.211 54.9788 167.188 54.9788H167.189Z" fill="white"/>
<path d="M174.627 55.8032L173.488 54.097H172.061V55.8032H171.105V50.6562H173.355C174.921 50.6562 175.576 51.1784 175.576 52.3324C175.576 53.1847 175.231 53.7144 174.503 53.95L175.753 55.8032H174.627ZM172.061 53.2747H173.407C174.254 53.2747 174.584 53.0241 174.584 52.3849C174.584 51.7457 174.254 51.4951 173.407 51.4951H172.061V53.2747Z" fill="white"/>
<path d="M177.626 55.8032H176.67V50.6562H177.626V55.8032Z" fill="white"/>
<path d="M182.808 51.4951H181.16V55.8032H180.204V51.4951H178.557V50.6562H182.806V51.4951H182.808Z" fill="white"/>
<path d="M188.609 50.6562L186.477 53.98V55.8032H185.513V53.9875L183.381 50.6562H184.527L185.998 52.9791L187.476 50.6562H188.609Z" fill="white"/>
<path d="M79.8784 20.0261V16.5178H72.0754V10.4435H82.8585V7.25781H67.6758V29.8443H85.1828V26.6601H72.0754V20.0261H79.8784Z" fill="white"/>
<path d="M118.364 29.818H123.066V7.26758H112.325C109.593 12.8767 104.087 24.2539 101.41 29.845H106.188L111.269 19.3816L118.364 29.8165V29.818ZM115.596 10.4203H118.761V23.4662L113.352 15.4366L115.596 10.4203Z" fill="white"/>
<path d="M89.2611 7.7661C84.5253 9.44523 82.1379 13.8299 82.2024 18.7757C82.1394 23.4905 84.6379 27.536 89.1155 29.1101C90.5981 29.6563 92.3147 29.9339 94.216 29.9339C95.6685 29.9294 99.4994 29.8799 101.417 29.8514V16.2203H93.2361V19.7466H97.6252V26.3101C96.7939 26.6072 96.8764 26.6192 95.4569 26.5982C90.244 26.7557 86.467 23.7396 86.6006 18.2265C86.5736 15.8616 87.4679 13.6213 88.9475 12.1703C91.7385 9.50225 96.6319 9.65681 100.049 11.0148L100.58 8.05871C97.8443 6.65869 92.3883 6.51163 89.2626 7.7661H89.2611Z" fill="white"/>
<path d="M55.9272 21.7112L62.3706 29.8443H67.6751L60.9511 21.7142L64.9186 17.3026V12.2607C64.9186 9.50265 62.6737 7.25781 59.9157 7.25781H47.8887V29.8443H52.2868V21.5987H55.8372L55.9242 21.7097L55.9272 21.7112ZM52.1578 18.0754L52.2373 10.424H57.5613C59.5751 10.424 61.0321 11.9756 61.0321 13.0215L60.9526 15.844L58.9718 18.0754H52.1578Z" fill="white"/>
<path d="M3.80859 37.8984L21.9474 56.0372V48.8075L10.9738 37.8984H3.80859Z" fill="white"/>
<path d="M23.752 48.8075V56.0372L41.8908 37.8984H34.7271L23.752 48.8075Z" fill="white"/>
<path d="M21.948 18.8029V18.4202V13.779V13.767V11.255L14.6583 4.01031V4.02532L7.49461 3.9668L10.0726 6.54626L12.1554 8.62754L13.6769 10.1551L15.7582 12.2319L17.2858 13.7595L17.2948 13.767H6.60327L6.61528 13.779L1.50586 18.8029H21.948Z" fill="white"/>
<path d="M10.0721 32.371L12.1549 30.2882L13.681 28.7667L15.7577 26.6854L17.2853 25.1578L19.3681 23.0765L21.9461 20.4971H14.7809L7.53616 27.7853H7.55266L7.49414 34.9505L10.0721 32.371Z" fill="white"/>
<path d="M39.0862 13.779L39.0967 13.767H28.8569L28.4052 13.7685L28.4142 13.7595L29.9418 12.2319L32.0231 10.1551L33.5446 8.62754L35.6274 6.54626L38.2054 3.9668L31.0417 4.02532V4.01031L23.752 11.255V13.779V18.4202V18.8029H44.1956L39.0862 13.779Z" fill="white"/>
<path d="M28.3111 25.1578L29.8372 26.6854L31.914 28.7667L33.4416 30.2882L35.5243 32.371L38.1023 34.9505L38.0438 27.7853H38.0603L30.8141 20.4971H23.6504L26.2284 23.0765L28.3111 25.1578Z" fill="white"/>
<path d="M25.3224 25.1787H20.354L17.4414 28.1513H28.2605L25.3224 25.1787Z" fill="white"/>
<path d="M25.3224 29.9082H20.354L17.4414 32.8808H28.2605L25.3224 29.9082Z" fill="white"/>
<path d="M25.3224 34.6035H20.354L17.4414 37.5776H28.2605L25.3224 34.6035Z" fill="white"/>
<path d="M17.4414 42.291H28.2605L25.3224 39.3184H20.354L17.4414 42.291Z" fill="white"/>
</svg>
