<svg width="96" height="64" viewBox="0 0 96 64" fill="none" xmlns="http://www.w3.org/2000/svg">
<path d="M68.0576 23.5742L61.8369 29.4824C65.1744 30.0428 68.4442 31.7903 68.4443 36.3359V36.4053C68.4443 41.0215 65.0697 44.415 59.584 44.415C55.1529 44.415 52.093 42.6685 49.9844 40.1846L53.7119 36.6523C55.4003 38.5428 57.1582 39.5907 59.6533 39.5908C61.6923 39.5908 63.1336 38.4377 63.1338 36.6191V36.5498C63.1338 34.5564 61.3393 33.4355 58.3154 33.4355H56.0654L55.2197 30.0088L63.1162 22.1104L59.9531 24.1338H51.4248V19.5176H68.0576V23.5742ZM82.957 19.0967C90.5513 19.0968 96.001 24.7276 96.001 31.6865V31.7559C96.001 38.7148 90.4791 44.415 82.8848 44.415C75.2904 44.415 69.8408 38.7842 69.8408 31.8252V31.7559C69.8408 24.7969 75.3626 19.0967 82.957 19.0967ZM9.71777 19.1689C14.8168 19.169 18.1914 22.1408 18.1914 26.7236V26.793C18.1914 30.8851 16.0799 32.9121 11.7207 36.2695L6.34082 40.4004L5.29688 41.2012L9.05273 39.3467H18.4365V43.999H0.223633V39.7324L8.41895 33.0527C11.4757 30.5357 12.6717 29.2411 12.6719 27.1787C12.6719 25.116 11.2671 23.9951 9.36719 23.9951C7.4673 23.9951 6.1656 25.0438 4.33789 27.2812L0.540039 24.2393C2.96582 20.9511 5.3225 19.1689 9.71777 19.1689ZM82.8848 24.0625C78.5256 24.0625 75.502 27.4891 75.502 31.6865V31.7559C75.502 35.9533 78.5953 39.4492 82.957 39.4492C87.3187 39.4491 90.3428 36.0226 90.3428 31.8252H90.3398V31.7559C90.3398 27.5584 87.2439 24.0625 82.8848 24.0625ZM77.9268 15.583H76.8467V14.5088H77.9268V15.583ZM80.084 15.583H79.0039V14.5088H80.084V15.583ZM31.9756 3.12402C35.0613 3.12402 37.1318 5.52815 37.1318 8.30762V8.33594C37.1318 11.1154 35.033 13.5479 31.9473 13.5479C28.8617 13.5478 26.792 11.1437 26.792 8.36426V8.33594C26.792 5.55395 28.8926 3.1212 31.9756 3.12109V3.12402ZM93.2129 10.8223C93.2129 11.2409 93.1793 11.6186 93.1123 11.9551C93.0453 12.289 92.9319 12.5771 92.7695 12.8135C92.6071 13.0523 92.3934 13.2326 92.1279 13.3584V13.3604C91.8625 13.4862 91.5379 13.5478 91.1514 13.5479C90.8652 13.5479 90.5709 13.5099 90.2744 13.4277L90.5576 12.3945C90.6839 12.4305 90.7823 12.4542 90.8545 12.4619C90.924 12.4696 91.0116 12.4746 91.1094 12.4746C91.3156 12.4746 91.4838 12.4458 91.6152 12.3867C91.744 12.3276 91.8475 12.2329 91.9248 12.1045C92.0021 11.9735 92.056 11.8034 92.0869 11.5928C92.1178 11.3822 92.1328 11.1252 92.1328 10.8223V3.30566H93.2129V10.8223ZM88.4189 10.792C88.4189 11.6318 88.1819 12.2996 87.7051 12.7979C87.2282 13.2936 86.4627 13.5429 85.4111 13.543C85.0889 13.543 84.7659 13.5068 84.4463 13.4297C84.1267 13.3552 83.758 13.2394 83.3457 13.0879L83.6836 12.0557C84.0238 12.2072 84.3283 12.3153 84.5938 12.377C84.8591 12.4411 85.158 12.4717 85.4902 12.4717C86.0754 12.4717 86.5297 12.3508 86.8545 12.1094C87.1766 11.8679 87.3388 11.4647 87.3389 10.9023V9.83594L86.9756 10.5938H86.6895C86.0862 10.5938 85.5134 10.5245 84.9746 10.3857C84.5035 10.2644 84.0816 10.0842 83.709 9.84668L83.5547 9.74316C83.145 9.45295 82.8201 9.08085 82.583 8.62891C82.3433 8.17679 82.2246 7.63157 82.2246 6.99707C82.2247 6.47075 82.3324 5.98022 82.5488 5.52832C82.7628 5.07627 83.0672 4.68559 83.459 4.35938C83.8508 4.03318 84.3201 3.77639 84.8691 3.58887C85.4181 3.40139 86.0265 3.30571 86.6914 3.30566H88.4189V10.792ZM17.9219 3.1543C19.3989 3.1543 20.4559 3.57068 21.4844 4.39258L20.8193 5.27148C19.8784 4.50856 18.935 4.17676 17.8936 4.17676C16.5765 4.1768 15.7365 4.8961 15.7363 5.80273V5.83105C15.7363 6.7815 16.2566 7.31384 18.4863 7.78906L18.4844 7.79395C20.7449 8.2846 21.7861 9.10429 21.7861 10.6455V10.6738C21.786 12.4024 20.3402 13.5252 18.3271 13.5254C16.7212 13.5254 15.4033 12.9935 14.1865 11.9121L14.8955 11.0771C15.9523 12.0275 17.0093 12.5028 18.3701 12.5029C19.7312 12.5029 20.6289 11.7832 20.6289 10.7891V10.7607C20.6289 9.82321 20.1234 9.29168 17.9941 8.84473C15.6638 8.33867 14.5918 7.59049 14.5918 5.93359V5.90625C14.5918 4.32132 15.9963 3.15436 17.9219 3.1543ZM1.89746 4.7959L4.87988 11.9785L5.16602 12.667L5.05566 11.5596L8.49902 3.2959H9.73145L5.37207 13.4482H4.35938L0 3.2959H1.27344L1.89746 4.7959ZM59.7949 10.7119C59.7949 11.0149 59.8099 11.2718 59.8408 11.4824C59.8743 11.6931 59.9291 11.8631 60.0039 11.9941C60.0786 12.1248 60.1839 12.2173 60.3125 12.2764C60.4414 12.3355 60.6121 12.3643 60.8184 12.3643H79.3818V3.30566H80.4619V13.4346H60.7793C60.3927 13.4345 60.0682 13.3729 59.8027 13.2471C59.5372 13.1212 59.3226 12.9395 59.1602 12.7031C59.137 12.6698 59.1143 12.6312 59.0938 12.5928V13.3965H56.8486C53.8636 13.3965 51.8605 11.0693 51.8604 8.37988V8.35156C51.8604 5.66199 53.8918 3.30566 56.877 3.30566H59.7949V10.7119ZM12.4307 13.376H11.2861V3.2959H12.4307V13.376ZM24.8193 13.376H23.6748V3.2959H24.8193V13.376ZM46.9297 11.9678L46.4609 10.7305V3.2959H47.5742V13.376H46.6621L39.4824 4.30762L40.1162 5.77734V13.376H39.0029V3.2959H40.0752L46.9297 11.9678ZM31.9473 4.1748C29.6324 4.17489 27.9805 6.01885 27.9805 8.30762V8.33594C27.9805 10.6247 29.6582 12.497 31.9756 12.4971C34.2931 12.4971 35.9433 10.653 35.9434 8.36426V8.33594C35.9434 6.04711 34.2622 4.1748 31.9473 4.1748ZM56.8506 4.32324C54.6105 4.32337 53.0127 6.10642 53.0127 8.32324H53.0098V8.35156C53.0099 10.5658 54.6343 12.3789 56.877 12.3789H58.9824C58.9103 12.2172 58.8541 12.0398 58.8154 11.8447C58.7484 11.5108 58.7148 11.1332 58.7148 10.7119V4.65234L59.377 4.32324H56.8506ZM86.21 4.39746C85.8439 4.40003 85.4907 4.46228 85.1504 4.58301C84.7998 4.70888 84.4852 4.88368 84.2119 5.1123C83.9387 5.3409 83.7167 5.61549 83.5518 5.93652H83.5547C83.3872 6.26008 83.3047 6.59396 83.3047 6.99707C83.3047 7.40038 83.3821 7.75789 83.5342 8.07129C83.6862 8.38458 83.8974 8.64657 84.168 8.8623C84.4386 9.07809 84.7507 9.24306 85.1064 9.35352C85.4622 9.46653 85.8414 9.52246 86.2461 9.52246H87.3389V4.70117L87.9551 4.39746H86.21ZM57.6348 2.23242H56.5547V1.1582H57.6348V2.23242ZM59.7939 2.23242H58.7139V1.1582H59.7939V2.23242ZM88.0957 0.74707H87.3525C87.1853 0.747119 87.0695 0.778344 87.0205 0.839844C86.9612 0.91434 86.9326 1.0201 86.9326 1.15625V1.40527H88.415L88.418 1.40234V2.22949H86.0537V1.35352C86.0537 0.88357 86.1647 0.534465 86.3838 0.321289C86.6003 0.108076 86.9225 0 87.335 0H88.0957V0.74707Z" fill="white"/>
<path d="M33.1532 17.4883L34.3983 18.6777L33.2021 19.9158L31.957 18.7265L33.1532 17.4883Z" fill="white"/>
<path d="M36.0039 18.7265L37.2516 19.9158L38.4477 18.6777L37.2 17.4883L36.0039 18.7265Z" fill="white"/>
<path d="M34.248 20.2885L35.2199 21.2159L36.1505 20.25L35.1812 19.3252L34.248 20.2885Z" fill="white"/>
<path d="M37.8086 20.8204L38.7779 21.7452L39.7111 20.7818L38.7392 19.8545L37.8086 20.8204Z" fill="white"/>
<path d="M32.6621 21.7657L33.6314 22.693L34.562 21.7272L33.5927 20.7998L32.6621 21.7657Z" fill="white"/>
<path d="M35.9199 21.878L36.8892 22.8028L37.8224 21.8395L36.8505 20.9121L35.9199 21.878Z" fill="white"/>
<path d="M34.6445 22.9884L35.3277 23.6408L35.9824 22.9601L35.2993 22.3076L34.6445 22.9884Z" fill="white"/>
<path d="M37.2207 23.4995L37.9038 24.1519L38.5586 23.4712L37.8755 22.8213L37.2207 23.4995Z" fill="white"/>
<path d="M44.9629 17.9452L42.8457 18.332L43.2334 20.4393L45.3507 20.0525L44.9629 17.9452Z" fill="white"/>
<path d="M41.7809 18.9028L40.082 19.2129L40.3928 20.9033L42.0917 20.5932L41.7809 18.9028Z" fill="white"/>
<path d="M45.0641 21.2638L43.3652 21.5742L43.6763 23.2646L45.3751 22.9542L45.0641 21.2638Z" fill="white"/>
<path d="M42.3471 21.5797L41.0234 21.8213L41.2654 23.1377L42.5891 22.8961L42.3471 21.5797Z" fill="white"/>
<path d="M44.9193 24.0807L43.5957 24.3223L43.8377 25.6387L45.1613 25.3971L44.9193 24.0807Z" fill="white"/>
<path d="M40.3646 22.1148L39.041 22.3564L39.283 23.6729L40.6066 23.4313L40.3646 22.1148Z" fill="white"/>
<path d="M42.765 23.8395L41.4414 24.0811L41.6834 25.3975L43.007 25.1559L42.765 23.8395Z" fill="white"/>
<path d="M40.6884 24.0644L39.7578 24.2344L39.928 25.1592L40.8585 24.9891L40.6884 24.0644Z" fill="white"/>
<path d="M42.4736 25.9818L41.543 26.1514L41.7126 27.0762L42.6433 26.9067L42.4736 25.9818Z" fill="white"/>
<path d="M49.1423 25.2354L48.2168 27.1697L50.1631 28.0893L51.086 26.155L49.1423 25.2354Z" fill="white"/>
<path d="M46.3824 24.3418L45.6426 25.8934L47.2022 26.6306L47.9446 25.0791L46.3824 24.3418Z" fill="white"/>
<path d="M47.6604 28.1641L46.918 29.7156L48.4776 30.4529L49.22 28.9013L47.6604 28.1641Z" fill="white"/>
<path d="M45.6165 27.001L45.0391 28.2083L46.2532 28.7837L46.8307 27.5738L45.6165 27.001Z" fill="white"/>
<path d="M46.2317 30.5254L45.6543 31.7327L46.8685 32.3082L47.4459 31.1008L46.2317 30.5254Z" fill="white"/>
<path d="M43.6927 26.2812L43.1152 27.4886L44.3294 28.064L44.9069 26.8541L43.6927 26.2812Z" fill="white"/>
<path d="M44.6263 29.0762L44.0488 30.2835L45.263 30.8589L45.8405 29.649L44.6263 29.0762Z" fill="white"/>
<path d="M43.1645 28.2236L42.7598 29.0739L43.613 29.4772L44.0203 28.6295L43.1645 28.2236Z" fill="white"/>
<path d="M43.4894 30.8161L43.084 31.665L43.9383 32.0702L44.3437 31.2212L43.4894 30.8161Z" fill="white"/>
<path d="M50.1923 34.4961L48.3027 35.5262L49.339 37.404L51.226 36.3739L50.1923 34.4961Z" fill="white"/>
<path d="M48.4781 32.167L46.9648 32.9916L47.7949 34.4995L49.3107 33.6723L48.4781 32.167Z" fill="white"/>
<path d="M47.2658 36.0068L45.75 36.834L46.5827 38.3393L48.0959 37.5147L47.2658 36.0068Z" fill="white"/>
<path d="M46.2914 33.875L45.1133 34.5172L45.7603 35.6912L46.9384 35.0464L46.2914 33.875Z" fill="white"/>
<path d="M44.7178 37.0908L43.5371 37.7356L44.1842 38.907L45.3648 38.2648L44.7178 37.0908Z" fill="white"/>
<path d="M45.1572 32.1719L43.9766 32.8167L44.6236 33.988L45.8043 33.3458L45.1572 32.1719Z" fill="white"/>
<path d="M44.2699 34.9824L43.0918 35.6272L43.7388 36.7986L44.9169 36.1564L44.2699 34.9824Z" fill="white"/>
<path d="M43.584 33.4404L42.7539 33.8951L43.2102 34.7197L44.0403 34.2676L43.584 33.4404Z" fill="white"/>
<path d="M42.3242 35.7324L41.4941 36.1845L41.9478 37.0091L42.7779 36.557L42.3242 35.7324Z" fill="white"/>
<path d="M43.4611 42.3562L43.1973 44.4824L45.3335 44.7457L45.5974 42.6195L43.4611 42.3562Z" fill="white"/>
<path d="M43.8585 39.5142L43.6465 41.2197L45.3606 41.4313L45.5725 39.7257L43.8585 39.5142Z" fill="white"/>
<path d="M40.6124 41.9253L40.4004 43.6309L42.1145 43.8424L42.3264 42.1369L40.6124 41.9253Z" fill="white"/>
<path d="M41.4656 39.6825L41.3008 41.0107L42.6363 41.1753L42.8011 39.8471L41.4656 39.6825Z" fill="white"/>
<path d="M38.2937 41.3768L38.1289 42.7051L39.4644 42.8697L39.6292 41.5414L38.2937 41.3768Z" fill="white"/>
<path d="M41.5401 37.6337L41.375 38.9619L42.7104 39.1267L42.8755 37.7985L41.5401 37.6337Z" fill="white"/>
<path d="M39.1651 39.3974L39 40.7256L40.3355 40.8904L40.5005 39.5622L39.1651 39.3974Z" fill="white"/>
<path d="M39.9146 37.8003L39.7988 38.7334L40.7378 38.8491L40.8536 37.916L39.9146 37.8003Z" fill="white"/>
<path d="M37.5455 38.9253L37.4297 39.8584L38.3686 39.9741L38.4844 39.041L37.5455 38.9253Z" fill="white"/>
<path d="M37.0868 46.5265L35.5092 45.0674L34.0449 46.6395L35.6226 48.096L37.0868 46.5265Z" fill="white"/>
<path d="M36.7958 16.5275L35.2181 15.0684L33.7539 16.6379L35.3316 18.097L36.7958 16.5275Z" fill="white"/>
<path d="M38.7694 44.1737L37.5036 43.0049L36.3281 44.2662L37.5964 45.4324L38.7694 44.1737Z" fill="white"/>
<path d="M34.7205 44.2401L33.4548 43.0713L32.2793 44.3326L33.545 45.4988L34.7205 44.2401Z" fill="white"/>
<path d="M36.4487 42.6496L35.464 41.7402L34.5488 42.719L35.5336 43.6283L36.4487 42.6496Z" fill="white"/>
<path d="M32.8843 42.1769L31.8995 41.2676L30.9844 42.2489L31.9691 43.1582L32.8843 42.1769Z" fill="white"/>
<path d="M37.7144 41.0418L36.7296 40.1299L35.8145 41.1112L36.7992 42.0205L37.7144 41.0418Z" fill="white"/>
<path d="M34.756 41.0906L33.7687 40.1787L32.8535 41.16L33.8408 42.0694L34.756 41.0906Z" fill="white"/>
<path d="M36.0092 39.958L35.3157 39.3184L34.6738 40.0068L35.3673 40.649L36.0092 39.958Z" fill="white"/>
<path d="M33.4252 39.4873L32.7317 38.8477L32.0898 39.5387L32.7833 40.1783L33.4252 39.4873Z" fill="white"/>
<path d="M27.4641 42.646L25.3535 43.0674L25.7759 45.168L27.8865 44.7466L27.4641 42.646Z" fill="white"/>
<path d="M30.299 42.1316L28.6055 42.4697L28.9443 44.1548L30.6378 43.8167L30.299 42.1316Z" fill="white"/>
<path d="M26.9728 39.8335L25.2793 40.1719L25.6184 41.8569L27.3119 41.5185L26.9728 39.8335Z" fill="white"/>
<path d="M29.3936 39.9182L28.0742 40.1816L28.3381 41.4939L29.6575 41.2305L29.3936 39.9182Z" fill="white"/>
<path d="M31.3643 39.3479L30.0449 39.6113L30.3088 40.9236L31.6282 40.6602L31.3643 39.3479Z" fill="white"/>
<path d="M28.9327 37.6672L27.6133 37.9307L27.8771 39.2429L29.1966 38.9795L28.9327 37.6672Z" fill="white"/>
<path d="M30.6953 37.8687L29.7676 38.0537L29.9528 38.9756L30.8805 38.7906L30.6953 37.8687Z" fill="white"/>
<path d="M28.871 35.9914L27.9434 36.1768L28.1289 37.0986L29.0565 36.9132L28.871 35.9914Z" fill="white"/>
<path d="M21.4774 37.9493L22.3693 36.0021L20.4101 35.1133L19.5156 37.063L21.4774 37.9493Z" fill="white"/>
<path d="M24.2522 38.7994L24.9688 37.235L23.3963 36.5234L22.6797 38.0853L24.2522 38.7994Z" fill="white"/>
<path d="M22.9104 34.9977L23.627 33.4358L22.0545 32.7217L21.3379 34.2861L22.9104 34.9977Z" fill="white"/>
<path d="M24.3093 34.3566L23.752 35.5742L24.9762 36.1307L25.5336 34.9131L24.3093 34.3566Z" fill="white"/>
<path d="M26.6112 39.1719L27.168 37.9543L25.9435 37.3994L25.3867 38.617L26.6112 39.1719Z" fill="white"/>
<path d="M23.6336 30.837L23.0762 32.0547L24.3005 32.6112L24.8579 31.3935L23.6336 30.837Z" fill="white"/>
<path d="M26.2429 35.0401L25.6855 36.2578L26.9098 36.8143L27.4672 35.5966L26.2429 35.0401Z" fill="white"/>
<path d="M25.2629 32.261L24.7051 33.4785L25.9292 34.0354L26.487 32.818L25.2629 32.261Z" fill="white"/>
<path d="M27.402 34.8637L27.7939 34.0057L26.9329 33.6152L26.541 34.4732L27.402 34.8637Z" fill="white"/>
<path d="M27.0374 32.2771L27.4293 31.4191L26.5682 31.0312L26.1738 31.8867L27.0374 32.2771Z" fill="white"/>
<path d="M20.2743 28.7059L22.1458 27.6476L21.0786 25.7852L19.207 26.8461L20.2743 28.7059Z" fill="white"/>
<path d="M22.0258 31.0104L23.5261 30.1575L22.6702 28.665L21.1699 29.5179L22.0258 31.0104Z" fill="white"/>
<path d="M23.1742 27.1475L24.6771 26.2972L23.8187 24.8047L22.3184 25.655L23.1742 27.1475Z" fill="white"/>
<path d="M24.1833 29.2659L25.3511 28.6006L24.6834 27.4395L23.5156 28.1022L24.1833 29.2659Z" fill="white"/>
<path d="M25.7048 26.0221L26.8726 25.3594L26.2049 24.1982L25.0371 24.861L25.7048 26.0221Z" fill="white"/>
<path d="M25.3467 30.9485L26.5171 30.2858L25.8494 29.1221L24.6816 29.7848L25.3467 30.9485Z" fill="white"/>
<path d="M26.1866 28.1237L27.3544 27.4609L26.6893 26.2998L25.5215 26.9626L26.1866 28.1237Z" fill="white"/>
<path d="M26.895 29.6545L27.7173 29.187L27.2481 28.3701L26.4258 28.8351L26.895 29.6545Z" fill="white"/>
<path d="M28.1215 27.342L28.9439 26.8771L28.4747 26.0576L27.6523 26.5251L28.1215 27.342Z" fill="white"/>
<path d="M24.9648 18.3824L24.7363 20.5127L26.8767 20.7406L27.1051 18.6104L24.9648 18.3824Z" fill="white"/>
<path d="M24.9863 21.6906L24.8027 23.3994L26.5201 23.5826L26.7037 21.8738L24.9863 21.6906Z" fill="white"/>
<path d="M28.1914 19.2268L28.0078 20.9355L29.7252 21.1187L29.9087 19.41L28.1914 19.2268Z" fill="white"/>
<path d="M27.723 21.9075L27.5801 23.2383L28.9181 23.381L29.061 22.0502L27.723 21.9075Z" fill="white"/>
<path d="M30.8612 20.1614L30.7188 21.4922L32.0568 21.6344L32.1993 20.3036L30.8612 20.1614Z" fill="white"/>
<path d="M27.6742 23.9485L27.5312 25.2793L28.8693 25.422L29.0122 24.0913L27.6742 23.9485Z" fill="white"/>
<path d="M30.0199 22.1468L29.877 23.4775L31.215 23.6203L31.3579 22.2895L30.0199 22.1468Z" fill="white"/>
<path d="M29.6532 24.1999L29.5527 25.1348L30.4934 25.2351L30.5939 24.3003L29.6532 24.1999Z" fill="white"/>
<path d="M32.0021 23.0368L31.9023 23.9717L32.8431 24.0714L32.9429 23.1364L32.0021 23.0368Z" fill="white"/>
<path d="M42.0634 32.8988C41.9036 32.8089 41.6123 32.6573 41.2101 32.5315C40.6301 32.3465 39.8207 32.2078 38.8617 32.3594C38.5394 32.4107 38.1992 32.4955 37.846 32.6214C37.8125 32.6342 37.779 32.6445 37.7455 32.6573C37.565 32.7241 37.3871 32.8063 37.2067 32.8962C37.0546 32.9733 36.8999 33.0581 36.7478 33.1506C36.3998 33.3586 36.057 33.595 35.7244 33.8519C35.3455 31.5682 35.5311 29.4489 35.6187 28.4085C35.6187 28.4034 35.6265 28.4008 35.6316 28.4034C36.4436 28.912 36.2168 30.3325 36.0441 30.741C36.0415 30.7487 36.0518 30.7538 36.0595 30.7487C37.0701 29.5593 36.5777 28.2441 36.3689 27.9127C36.3637 27.905 36.374 27.8973 36.3818 27.9024C36.5287 28.0206 36.6473 28.1465 36.7478 28.2749C37.0598 28.6731 37.1758 29.1021 37.2067 29.4823C37.2222 29.6826 37.217 29.8676 37.2067 30.0269C37.2041 30.0705 37.2015 30.1091 37.1964 30.1476C37.1964 30.1527 37.2015 30.1553 37.2067 30.1527H37.2118C37.4851 29.6184 37.6166 28.8118 37.2067 28.0283C37.0958 27.8151 36.9463 27.6044 36.7478 27.4015C36.6911 27.3424 36.6292 27.2859 36.5648 27.2268C36.5596 27.2217 36.5648 27.2114 36.5725 27.214C36.6344 27.2294 36.6911 27.2474 36.7478 27.2654C36.9205 27.3244 37.0726 27.4066 37.2067 27.5068C37.5135 27.7329 37.7223 28.0411 37.846 28.3648C37.9491 28.632 37.9955 28.9068 37.9955 29.1509C37.9955 29.1612 38.0084 29.1612 38.011 29.1509C38.2017 28.4547 38.0857 27.9281 37.846 27.5454C37.6759 27.2705 37.4413 27.0701 37.2067 26.9288C37.0469 26.8338 36.887 26.767 36.7478 26.7259C36.6653 26.7002 36.5932 26.6848 36.5287 26.6771C36.5184 26.6771 36.521 26.6617 36.5287 26.6617C36.6035 26.654 36.6756 26.6514 36.7452 26.6488C36.9154 26.6463 37.0675 26.6617 37.2041 26.6848C37.4748 26.7362 37.6862 26.8287 37.8434 26.9365C38.1012 27.1087 38.2301 27.3116 38.2739 27.3938C38.2791 27.4015 38.2894 27.3964 38.2894 27.3887C38.2533 27.0213 38.0832 26.7336 37.846 26.5281C37.663 26.3688 37.4387 26.2584 37.2067 26.1916C37.0546 26.1505 36.8999 26.1274 36.7478 26.1248C36.5416 26.1248 36.3431 26.1556 36.1755 26.2275C36.1678 26.2301 36.1626 26.2224 36.1652 26.2147C36.3147 26.0015 36.5261 25.873 36.7478 25.8037C36.9025 25.7575 37.0598 25.7395 37.2067 25.7497C37.3485 25.7575 37.4774 25.7883 37.5831 25.8371C37.5908 25.8397 37.596 25.8319 37.5908 25.8242C37.4748 25.6932 37.3433 25.5905 37.2067 25.5134C37.0598 25.4312 36.9051 25.3824 36.7478 25.3644C36.3379 25.3182 35.9203 25.4929 35.6419 25.9116C35.6393 25.9167 35.6316 25.9167 35.629 25.9116C35.5749 25.8165 35.5233 25.7112 35.4769 25.6008C35.3661 25.3439 35.2759 25.0562 35.2269 24.7684C35.2269 24.7582 35.214 24.7582 35.214 24.7684C35.165 25.0562 35.0722 25.3464 34.9614 25.6033C34.9124 25.7138 34.8634 25.8165 34.8093 25.909C34.8067 25.9142 34.799 25.9142 34.7964 25.909C34.3117 25.1769 33.4017 25.1923 32.8475 25.8242C32.8423 25.8294 32.8475 25.8397 32.8552 25.8371C33.2239 25.6624 33.9225 25.7138 34.2731 26.2147C34.2782 26.2224 34.2731 26.2301 34.2628 26.2275C33.724 26.0015 32.8888 26.1479 32.4428 26.6771C32.283 26.8646 32.1747 27.1035 32.1463 27.3887C32.1463 27.3964 32.1566 27.4015 32.1618 27.3938C32.1953 27.3296 32.283 27.1909 32.4428 27.0496C32.7031 26.8209 33.1568 26.5898 33.907 26.6591C33.9173 26.6591 33.9173 26.6745 33.907 26.6745C33.5229 26.7208 32.7315 27.0624 32.4402 27.8433C32.3113 28.1876 32.2778 28.6191 32.4222 29.1483C32.4222 29.156 32.4376 29.156 32.4376 29.1483C32.4376 29.1355 32.4376 29.1252 32.4376 29.1124C32.4454 28.4034 32.8527 27.4529 33.8606 27.2114C33.8683 27.2114 33.8735 27.2191 33.8683 27.2243C32.7418 28.2107 32.8527 29.4283 33.2213 30.1476C33.2265 30.1553 33.2368 30.1527 33.2368 30.1425C33.1878 29.5979 33.1491 28.6294 34.0514 27.8973C34.0591 27.8922 34.0694 27.8973 34.0643 27.9076C33.8555 28.2415 33.3631 29.5542 34.3736 30.7436C34.3788 30.7513 34.3917 30.7436 34.3891 30.7359C34.2189 30.33 33.9921 28.9068 34.8015 28.3982C34.8067 28.3956 34.8144 28.3982 34.8144 28.4034C34.9021 29.4437 35.0877 31.563 34.7087 33.8467C34.0565 33.3484 33.3682 32.9117 32.6877 32.6548C32.6026 32.624 32.5201 32.5957 32.4402 32.5674C31.7364 32.3362 31.092 32.272 30.53 32.2977C29.6277 32.3362 28.9369 32.606 28.5579 32.7935C28.4806 32.832 28.4161 32.868 28.3672 32.8962C28.3465 32.9091 28.362 32.9373 28.3826 32.9296C28.4419 32.9117 28.4986 32.8937 28.5579 32.8783C29.2514 32.683 29.9087 32.6317 30.53 32.6856C31.208 32.7447 31.8447 32.9296 32.4402 33.1968C33.2754 33.5718 34.0308 34.1062 34.7139 34.6713C33.7498 35.5088 32.9352 36.3231 32.4402 36.6082C32.4144 36.6211 32.3912 36.6365 32.368 36.6493C32.2494 36.4875 32.0432 36.395 31.8189 36.4438C31.623 36.4875 31.4632 36.6442 31.4194 36.8368C31.3807 37.009 31.4245 37.1965 31.5225 37.2941C31.7854 37.5561 32.0896 37.5741 32.4402 37.4277C33.1079 37.1477 33.9379 36.2691 34.9562 35.3392C35.0413 35.2621 35.1263 35.1825 35.214 35.1054C35.3016 35.1825 35.3867 35.2596 35.4718 35.3366C35.9332 35.7579 36.356 36.1689 36.7427 36.5183C36.9025 36.6622 37.0546 36.7957 37.2015 36.9139C37.4284 37.0989 37.6423 37.2504 37.8408 37.3557C38.2301 37.5613 38.5678 37.5869 38.8565 37.3326C38.872 37.3198 38.8875 37.3069 38.9029 37.2915C38.97 37.2247 39.0473 37.0064 39.006 36.8343C38.9828 36.7341 38.9287 36.6442 38.854 36.5748C38.7869 36.5106 38.6993 36.4618 38.6065 36.4412C38.3822 36.3924 38.176 36.4849 38.0574 36.6467C37.9904 36.6134 37.9182 36.5671 37.8383 36.5132C37.6552 36.3873 37.4413 36.21 37.199 35.9994C37.0546 35.8735 36.9025 35.7348 36.7401 35.5884C36.4256 35.3032 36.0802 34.9898 35.7141 34.6687C36.0389 34.399 36.3818 34.137 36.7401 33.8955C36.8896 33.7953 37.0417 33.6977 37.199 33.6052C37.4078 33.4819 37.6191 33.3689 37.8383 33.2636C38.1657 33.1069 38.5034 32.9759 38.854 32.8757C39.5809 32.6676 40.362 32.5983 41.2024 32.7318C41.4756 32.7755 41.7541 32.8397 42.0402 32.9271C42.0634 32.9348 42.0763 32.904 42.0582 32.8937" fill="white"/>
<path d="M14.2725 59.459C15.0406 59.459 15.5151 59.672 15.9688 60.0547L15.4766 60.6377C15.1364 60.3501 14.804 60.168 14.2422 60.168C13.4276 60.168 12.8115 60.8768 12.8115 61.7168V61.7295C12.8116 62.6311 13.4093 63.2959 14.3115 63.2959C14.7265 63.2959 15.1053 63.1652 15.376 62.9648V62.1426H14.2471V61.4727H16.126V63.3174C15.693 63.6871 15.0668 63.9999 14.2861 64C12.9044 64 11.9971 63.0215 11.9971 61.7422V61.7295C11.9971 60.4992 12.9425 59.4592 14.2725 59.459ZM24.2314 59.459C25.5872 59.4592 26.5332 60.4813 26.5332 61.7168V61.7295C26.5331 62.9651 25.5737 64 24.2178 64C22.862 63.9998 21.916 62.9777 21.916 61.7422V61.7295C21.916 60.4939 22.8726 59.459 24.2285 59.459H24.2314ZM36.9824 59.459C38.3381 59.4592 39.2842 60.4813 39.2842 61.7168V61.7295C39.2841 62.9651 38.3247 64 36.9688 64C35.613 63.9998 34.667 62.9777 34.667 61.7422V61.7295C34.667 60.4939 35.6235 59.459 36.9795 59.459H36.9824ZM55.6621 62.0322C55.6621 62.8465 56.0901 63.2861 56.7783 63.2861C57.4666 63.2861 57.8896 62.8726 57.8896 62.0635L57.8867 62.0654V59.5381H58.6631V62.0273C58.6631 63.3374 57.9128 63.9951 56.7656 63.9951C55.6185 63.9951 54.8868 63.335 54.8867 62.0635V59.5352H55.6621V62.0322ZM47.6592 59.4717C48.3011 59.4717 48.8122 59.6664 49.2607 60.0234L48.8457 60.6064C48.4487 60.311 48.0512 60.1543 47.6465 60.1543C47.193 60.1543 46.928 60.3883 46.9277 60.6758V60.6895C46.9279 61.0256 47.1286 61.1777 47.9736 61.3779H47.9717C48.9046 61.604 49.3887 61.9352 49.3887 62.6621V62.6748C49.3886 63.4941 48.7423 63.9842 47.8145 63.9844C47.139 63.9844 46.5047 63.7533 45.9736 63.2832L46.4404 62.7314C46.8631 63.0935 47.286 63.3018 47.835 63.3018C48.3143 63.3017 48.6162 63.0829 48.6162 62.749V62.7363C48.6162 62.423 48.4406 62.2529 47.6211 62.0654C46.6828 61.8394 46.1514 61.565 46.1514 60.7559V60.7432C46.1514 59.9931 46.7828 59.4718 47.6592 59.4717ZM5.99707 63.9258H5.2207V59.5352H5.99707V63.9258ZM18.8447 59.5352C20.2314 59.5353 21.1904 60.4813 21.1904 61.7168V61.7295C21.1904 62.9675 20.2314 63.9256 18.8447 63.9258H17.1992V59.5352H18.8447ZM54.4316 63.9258H53.6113L53.1631 62.8652H51.0752L50.6211 63.9258H49.8271L51.7686 59.5049H52.4902L54.4316 63.9258ZM61.4443 59.5352C62.8312 59.5352 63.79 60.4812 63.79 61.7168V61.7295C63.79 62.9676 62.8312 63.9257 61.4443 63.9258H59.7998V59.5352H61.4443ZM65.5488 63.9258H64.7725V59.5352H65.5488V63.9258ZM72.8457 63.9258H72.0254L71.5771 62.8652H69.4893L69.0352 63.9258H68.2412L70.1826 59.5049H70.9043L72.8457 63.9258ZM82.4951 63.9258H81.6748L81.2266 62.8652H79.1387L78.6846 63.9258H77.8906L79.832 59.5049H80.5537L82.4951 63.9258ZM85.2061 59.5352C85.7113 59.5352 86.1087 59.6721 86.3613 59.9238C86.5571 60.119 86.6572 60.3551 86.6572 60.6504V60.6631C86.6572 61.1895 86.3536 61.472 86.0264 61.6416H86.0234C86.5416 61.8163 86.9003 62.1121 86.9004 62.708V62.7207C86.9004 63.5067 86.2531 63.9257 85.2686 63.9258H83.2266V59.5352H85.2061ZM88.6367 63.9258H87.8613V59.5352H88.6367V63.9258ZM92.0391 59.5049L93.9805 63.9258H93.1611L92.7119 62.8652H90.624L90.1699 63.9258H89.376L91.3174 59.5049H92.0391ZM1.38184 61.7422L3.48047 59.5352H4.43164L2.59863 61.4238L4.51465 63.9229H3.57617L2.06738 61.9502L1.38184 62.6514V63.9229H0.606445V59.5352H1.38184V61.7422ZM10.2725 62.5693V59.5352H11.0352V63.9229H10.3887L7.95508 60.8018V63.9229H7.19141V59.5352H7.9082L10.2725 62.5693ZM29.6631 61.6113L31.0068 59.5352H31.8311V63.9229H31.0557V60.7764L29.6631 62.8467H29.6377L28.2559 60.7891V63.9229H27.4932V59.5352H28.3203L29.6631 61.6113ZM43.5283 60.2373H41.0195V61.4336H43.2441V62.1377H41.0195V63.9229H40.2441V59.5352H43.5283V60.2373ZM75.542 59.5332C76.0961 59.5333 76.5319 59.6978 76.8154 59.9727C77.0498 60.2115 77.1816 60.5374 77.1816 60.9199V60.9326L77.1836 60.9307C77.1835 61.6522 76.7483 62.0834 76.1299 62.2607L77.3203 63.9229H76.4053L75.3203 62.3926H74.3506V63.9229H73.5752V59.5332H75.542ZM24.2158 60.168C23.3393 60.168 22.7285 60.8639 22.7285 61.7168V61.7295C22.7286 62.5823 23.3521 63.291 24.2285 63.291C25.1049 63.291 25.7158 62.595 25.7158 61.7422V61.7295C25.7158 60.8767 25.0921 60.1681 24.2158 60.168ZM36.9668 60.168C36.0903 60.168 35.4795 60.8639 35.4795 61.7168V61.7295C35.4795 62.5823 36.1031 63.291 36.9795 63.291C37.8559 63.291 38.4668 62.595 38.4668 61.7422V61.7295C38.4668 60.8767 37.8431 60.1681 36.9668 60.168ZM83.9893 63.2402H85.2764C85.8046 63.2401 86.127 63.0342 86.127 62.6387V62.626C86.127 62.2561 85.8297 62.0352 85.2188 62.0352H83.9893V63.2402ZM17.9756 63.2217H18.8447C19.77 63.2215 20.376 62.6001 20.376 61.7422V61.7295C20.376 60.8716 19.7726 60.2375 18.8447 60.2373H17.9756V63.2217ZM60.5752 63.2217H61.4443C62.3697 63.2216 62.9756 62.6002 62.9756 61.7422V61.7295C62.9756 60.8715 62.3723 60.2373 61.4443 60.2373H60.5752V63.2217ZM51.3584 62.1816H52.8789L52.1162 60.4248L51.3584 62.1816ZM69.7725 62.1816H71.293L70.5303 60.4248L69.7725 62.1816ZM79.4219 62.1816H80.9434L80.1797 60.4248L79.4219 62.1816ZM90.9072 62.1816H92.4287L91.666 60.4248L90.9072 62.1816ZM74.3506 61.7109H75.4873C76.0415 61.7109 76.3945 61.421 76.3945 60.9766V60.9639C76.3945 60.4938 76.0543 60.2373 75.4795 60.2373H74.3506V61.7109ZM83.9893 61.3848H85.0488C85.5464 61.3848 85.8818 61.1898 85.8818 60.7891V60.7764C85.8818 60.4321 85.603 60.2188 85.1055 60.2188H83.9893V61.3848ZM58.1094 55.4951H50.1621V55.626C50.1621 55.8673 50.1412 56.0828 50.1025 56.2754L50.0947 56.2783C50.0561 56.4682 49.9921 56.6325 49.8994 56.7686C49.8066 56.9047 49.6853 57.0082 49.5332 57.0801C49.3811 57.152 49.1953 57.1875 48.9736 57.1875C48.8087 57.1875 48.6408 57.1644 48.4707 57.1182L48.6338 56.5273C48.7058 56.5478 48.7625 56.5613 48.8037 56.5664C48.8448 56.5715 48.8937 56.5742 48.9502 56.5742C49.0688 56.5742 49.1645 56.5559 49.2393 56.5225C49.314 56.4891 49.3732 56.4348 49.417 56.3604C49.4608 56.2859 49.4917 56.1881 49.5098 56.0674C49.5278 55.9467 49.5361 55.8005 49.5361 55.626V51.3232H50.1543V54.8779H52.4561L51.3682 52.3047C51.528 52.1608 51.6988 52.0269 51.8818 51.8984C52.0648 51.7701 52.2557 51.6598 52.4541 51.5674C52.6525 51.4749 52.8508 51.4026 53.0518 51.3486C53.2528 51.2973 53.4594 51.2695 53.6553 51.2695C53.8511 51.2695 54.05 51.2947 54.251 51.3486C54.4518 51.4025 54.65 51.4773 54.8457 51.5723C55.0415 51.6672 55.2325 51.7776 55.418 51.9033C55.6035 52.0292 55.7794 52.1628 55.9443 52.3066L54.8643 54.8809H57.4912V49.9824H58.1094V55.4951ZM32.6641 55.4922H30.8799V55.4844C30.715 55.4767 30.5627 55.4615 30.4365 55.4307C30.2717 55.3896 30.1273 55.3353 30.0088 55.2686C29.8903 55.2018 29.7944 55.1277 29.7197 55.043C29.6451 54.9583 29.5837 54.8733 29.5322 54.7861C29.393 55.0532 29.1939 55.2485 28.9336 55.377C28.6734 55.5052 28.3437 55.5693 27.9883 55.5693C27.6325 55.5693 27.3252 55.5 27.0674 55.3613C26.8098 55.2253 26.6065 55.0325 26.457 54.7861C26.3127 54.9993 26.1242 55.1714 25.8896 55.2998C25.6552 55.4282 25.3897 55.4921 25.0908 55.4922H15.4902V55.6074C15.4902 56.0878 15.3533 56.4707 15.0801 56.7559C14.8069 57.0409 14.3716 57.1826 13.7686 57.1826C13.583 57.1826 13.3997 57.1598 13.2168 57.1162C13.0339 57.0726 12.8249 57.0082 12.5879 56.9209L12.7812 56.3301C12.977 56.4173 13.1498 56.4787 13.3018 56.5146C13.4538 56.5506 13.6238 56.5683 13.8145 56.5684C14.1496 56.5684 14.4101 56.4991 14.5957 56.3604C14.7812 56.2217 14.8739 55.9934 14.874 55.6699V55.4922H14.5029C14.1575 55.4922 13.8298 55.4537 13.5205 55.374C13.2113 55.297 12.9406 55.1738 12.7061 55.0068C12.4716 54.8425 12.286 54.6294 12.1494 54.3701C12.0128 54.1133 11.9453 53.8022 11.9453 53.4375C11.9453 53.1344 12.0081 52.8542 12.1318 52.5947C12.2556 52.3379 12.4281 52.1143 12.6523 51.9268C12.8766 51.7393 13.1446 51.5932 13.459 51.4854C13.7735 51.3775 14.1214 51.3232 14.5029 51.3232H15.4902V54.8779H17.6299L16.542 52.3047C16.7017 52.1609 16.8718 52.0268 17.0547 51.8984C17.2376 51.7701 17.4286 51.6598 17.627 51.5674C17.8254 51.4749 18.0245 51.4026 18.2256 51.3486C18.4266 51.2973 18.6332 51.2695 18.8291 51.2695C19.0248 51.2696 19.223 51.2948 19.4238 51.3486C19.6249 51.4026 19.8236 51.4772 20.0195 51.5723C20.2154 51.6673 20.4063 51.7775 20.5918 51.9033C20.7774 52.0292 20.9532 52.1628 21.1182 52.3066L20.0381 54.8809H23.2803V51.708H23.8994V54.8809H25.0957C25.2348 54.8808 25.3666 54.8627 25.4902 54.8242C25.6137 54.7857 25.7245 54.7242 25.8223 54.6396C25.9202 54.5549 25.998 54.4464 26.0547 54.3154C26.1113 54.1845 26.1396 54.0249 26.1396 53.835V51.708H26.7578V53.8818C26.763 54.0308 26.7966 54.1698 26.8584 54.3008C26.9203 54.4317 27.0061 54.544 27.1143 54.6416C27.2225 54.7392 27.3515 54.8165 27.501 54.873C27.6503 54.9295 27.815 54.958 27.9951 54.958C28.3816 54.958 28.6706 54.8526 28.8613 54.6396C29.0521 54.4264 29.1475 54.1436 29.1475 53.7891V51.708H29.7666V53.6914C29.7666 53.9147 29.7489 54.1074 29.7129 54.2666C29.8314 54.4694 29.9932 54.6238 30.1992 54.7266C30.4054 54.8293 30.6899 54.8809 31.0508 54.8809H32.0605L32.0459 54.8779V49.9795H32.6641V55.4922ZM5.63574 56.8584H5.00195V56.2266H5.63574V56.8584ZM6.71582 56.8584H6.08105V56.2266H6.71582V56.8584ZM44.3623 56.8584H43.7285V56.2266H44.3623V56.8584ZM45.4463 56.8584H44.8125V56.2266H45.4463V56.8584ZM47.7031 56.8516H47.0684V56.2197H47.7031V56.8516ZM90.7979 55.5049H87.6553C87.4491 55.7231 87.204 55.8953 86.918 56.0186C86.6319 56.1418 86.3198 56.2041 85.9951 56.2041C85.6703 56.2041 85.3706 56.1425 85.0947 56.0166C84.819 55.8907 84.5819 55.7206 84.3809 55.5049H81.6611C81.4549 55.7232 81.21 55.8953 80.9238 56.0186C80.6377 56.1418 80.3257 56.2041 80.001 56.2041C79.6763 56.2041 79.3773 56.1424 79.1016 56.0166C78.8257 55.8907 78.5888 55.7207 78.3877 55.5049H66.1299C65.7923 55.5049 65.4674 55.464 65.1582 55.3818C64.8489 55.3022 64.5777 55.1764 64.3457 55.0068C64.1138 54.8374 63.9282 54.6242 63.7891 54.3623C63.6499 54.1004 63.5801 53.7894 63.5801 53.4248C63.5801 53.1268 63.6396 52.8516 63.7607 52.5947C63.8818 52.338 64.0519 52.1172 64.2734 51.9297C64.4951 51.7447 64.7636 51.5975 65.0781 51.4922C65.3899 51.3869 65.7405 51.336 66.127 51.3359H67.1016V54.8916H72.8164V53.9512C72.8164 53.7895 72.8014 53.6403 72.7705 53.5068C72.7396 53.3734 72.6803 53.255 72.5928 53.1523C72.5052 53.0496 72.3917 52.9692 72.25 52.9102C72.1082 52.8485 71.9401 52.8203 71.7441 52.8203H68.5938C68.5166 52.7331 68.4604 52.6404 68.4141 52.543C68.3677 52.4454 68.336 52.3298 68.3154 52.1963L69.502 49.9902H70.1748L69.0117 52.2041H71.7471C72.0563 52.2041 72.3117 52.2476 72.5127 52.335C72.7137 52.4223 72.8939 52.5565 73.0537 52.7363C73.1877 52.8853 73.2858 53.0652 73.3477 53.2783C73.4095 53.4914 73.4404 53.715 73.4404 53.9512V54.8916H75.4102V49.9922H76.0283V54.8916H77.9902C77.9335 54.7529 77.89 54.6086 77.8564 54.457C77.8229 54.3055 77.8047 54.1488 77.8047 53.9844C77.8047 53.671 77.8612 53.3806 77.9746 53.1084C78.088 52.8361 78.2429 52.5994 78.4414 52.3965C78.6399 52.1936 78.8726 52.0342 79.1406 51.916C79.4086 51.798 79.6844 51.7393 80.0039 51.7393C80.3234 51.7393 80.6198 51.7956 80.8955 51.9111C81.1712 52.0267 81.4084 52.1836 81.6094 52.3838C81.8104 52.5815 81.968 52.818 82.084 53.0928C82.1974 53.3651 82.2568 53.6558 82.2568 53.9795C82.2568 54.303 82.1923 54.6033 82.0635 54.8857H83.9785C83.9219 54.7472 83.8782 54.6035 83.8447 54.4521C83.8112 54.3007 83.793 54.1438 83.793 53.9795C83.793 53.6661 83.8505 53.3758 83.9639 53.1035C84.0773 52.8313 84.2312 52.5945 84.4297 52.3916C84.6282 52.1887 84.8608 52.0293 85.1289 51.9111C85.3969 51.7931 85.6756 51.7344 85.9951 51.7344C86.3147 51.7344 86.611 51.7907 86.8867 51.9062C87.1625 52.0218 87.3995 52.1786 87.6006 52.3789C87.8017 52.5767 87.9592 52.813 88.0752 53.0879C88.1886 53.36 88.248 53.6502 88.248 53.9736C88.248 54.2973 88.1836 54.5983 88.0547 54.8809H90.1787V49.9824H90.7979V55.5049ZM79.999 52.3457C79.7671 52.3457 79.5556 52.3893 79.3623 52.4766C79.169 52.5639 79.0035 52.6797 78.8643 52.8262C78.7252 52.9725 78.614 53.1422 78.5342 53.3398C78.4569 53.5376 78.416 53.7486 78.416 53.9668C78.4161 54.1849 78.4544 54.3928 78.5342 54.5879C78.6141 54.7831 78.7254 54.9532 78.8672 55.0996C79.0089 55.2459 79.1769 55.3616 79.3701 55.4463C79.5633 55.5284 79.7672 55.5723 79.999 55.5723C80.2309 55.5722 80.4452 55.5337 80.6436 55.4541C80.8418 55.3745 81.0143 55.2638 81.1611 55.1201C81.3081 54.9763 81.4247 54.8062 81.5098 54.6084V54.6113C81.5948 54.4135 81.6357 54.2051 81.6357 53.9688C81.6357 53.7326 81.5941 53.517 81.5117 53.3193C81.4292 53.1215 81.3159 52.9515 81.1689 52.8076C81.022 52.6638 80.8488 52.5509 80.6504 52.4688C80.4521 52.3867 80.2307 52.3457 79.999 52.3457ZM85.9893 52.3457C85.7574 52.3458 85.5458 52.3893 85.3525 52.4766C85.1593 52.5639 84.9946 52.6798 84.8555 52.8262C84.7163 52.9726 84.6082 53.1421 84.5283 53.3398C84.4484 53.5376 84.4072 53.7485 84.4072 53.9668C84.4073 54.185 84.4485 54.3928 84.5283 54.5879C84.6082 54.7831 84.7186 54.9532 84.8604 55.0996C85.0021 55.246 85.17 55.3615 85.3633 55.4463C85.5566 55.5284 85.7602 55.5723 85.9922 55.5723C86.2242 55.5723 86.4382 55.5337 86.6367 55.4541C86.8352 55.3745 87.0083 55.264 87.1553 55.1201C87.3022 54.9763 87.4179 54.8062 87.5029 54.6084L87.498 54.6113C87.5831 54.4135 87.627 54.2051 87.627 53.9688C87.6269 53.7326 87.5853 53.517 87.5029 53.3193C87.4204 53.1215 87.3071 52.9515 87.1602 52.8076C87.0132 52.6638 86.8401 52.5509 86.6416 52.4688C86.4432 52.3866 86.2212 52.3457 85.9893 52.3457ZM3.52148 54.8809H5.97559V51.3252H6.59375V55.4971H2.54688C2.20923 55.4971 1.88449 55.4562 1.5752 55.374L1.57812 55.3711C1.26878 55.2915 0.997634 55.1656 0.765625 54.9961C0.5337 54.8266 0.348154 54.6135 0.208984 54.3516C0.0697881 54.0895 3.47918e-07 53.7788 0 53.4141C0 53.1161 0.059504 52.8409 0.180664 52.584C0.301809 52.3273 0.471779 52.1064 0.693359 51.9189C0.915057 51.734 1.18355 51.5877 1.49805 51.4824C1.81247 51.3772 2.16032 51.3252 2.54688 51.3252H3.52148V54.8809ZM9.28613 51.3281C9.57995 51.3281 9.82762 51.372 10.0312 51.4619C10.2349 51.5518 10.418 51.6854 10.583 51.8652C10.717 52.0142 10.8154 52.1917 10.8799 52.4023C10.9468 52.6127 10.9775 52.836 10.9775 53.0771V55.4971H7.46387V54.8838H10.3613V53.1006C10.3613 52.9234 10.3431 52.769 10.3096 52.6406C10.276 52.5123 10.2174 52.3939 10.1299 52.2861C10.0422 52.1834 9.93092 52.1013 9.79688 52.0371C9.66284 51.9755 9.5206 51.9424 9.37109 51.9424H8.83008V51.3281H9.28613ZM35.0977 55.4951H34.4785V49.9824H35.0977V55.4951ZM41.668 54.8809H44.125V51.3252H44.7432V54.8809H47.0762V51.3252H47.6953V55.4951H40.6992C40.359 55.4951 40.0339 55.4533 39.7246 55.3711C39.4153 55.2915 39.1441 55.1656 38.9121 54.9961C38.6803 54.8266 38.4946 54.6134 38.3555 54.3516C38.2163 54.0896 38.1465 53.7788 38.1465 53.4141C38.1465 53.1161 38.206 52.8409 38.3271 52.584C38.4483 52.3273 38.6183 52.1064 38.8398 51.9189C39.0615 51.734 39.33 51.5877 39.6445 51.4824C39.959 51.3771 40.3096 51.3252 40.6963 51.3252H41.668V54.8809ZM60.5264 55.4951H59.9082V49.9824H60.5264V55.4951ZM93.2158 55.4951H92.5977V49.9824H93.2158V55.4951ZM40.4434 51.9424C40.2321 51.9424 40.0261 51.9756 39.8252 52.0449C39.6241 52.1143 39.4463 52.2147 39.2891 52.3457C39.132 52.4766 39.0055 52.6303 38.9102 52.8125C38.8148 52.9949 38.7656 53.1858 38.7656 53.417C38.7657 53.648 38.8089 53.8538 38.8965 54.0361C38.984 54.2157 39.103 54.3693 39.2549 54.4951C39.407 54.621 39.5854 54.7164 39.7891 54.7832H39.791C39.9946 54.85 40.2115 54.8838 40.4434 54.8838H41.0547V51.9424H40.4434ZM2.29395 51.9395C2.08277 51.9395 1.87666 51.9727 1.67578 52.042C1.47478 52.1113 1.29686 52.2118 1.13965 52.3428C0.982398 52.4738 0.856124 52.6282 0.760742 52.8105C0.665366 52.9929 0.616211 53.1931 0.616211 53.4141H0.619141C0.619141 53.6452 0.662359 53.8508 0.75 54.0332C0.837648 54.213 0.956304 54.3673 1.1084 54.4932C1.26048 54.619 1.43894 54.7135 1.64258 54.7803C1.84604 54.847 2.06219 54.8808 2.29395 54.8809H2.90527V51.9395H2.29395ZM14.2578 51.9502C14.0414 51.9502 13.8328 51.9858 13.6318 52.0576C13.4308 52.1295 13.253 52.2303 13.0957 52.3613C12.9385 52.4923 12.8122 52.6491 12.7168 52.834C12.6215 53.0188 12.5752 53.2111 12.5752 53.4395C12.5752 53.668 12.6184 53.8739 12.7061 54.0537C12.7937 54.2309 12.9148 54.3826 13.0693 54.5059C13.2239 54.6291 13.4019 54.7219 13.6055 54.7861C13.809 54.8503 14.0259 54.8808 14.2578 54.8809H14.8848V51.9502H14.2578ZM18.8389 51.9473C18.5658 51.9473 18.3056 51.9936 18.0557 52.0859C17.8057 52.1758 17.5632 52.3222 17.3262 52.5225L18.29 54.8809H19.3984L20.3623 52.5225C20.1716 52.3581 19.9392 52.2217 19.666 52.1113C19.3929 52.001 19.1119 51.9473 18.8389 51.9473ZM53.6572 51.9473C53.3841 51.9473 53.1239 51.9935 52.874 52.0859C52.624 52.1758 52.3816 52.3222 52.1445 52.5225H52.1475L53.1133 54.8809H54.2168L55.1816 52.5225C54.9909 52.3581 54.7586 52.2218 54.4854 52.1113C54.2121 52.0009 53.9305 51.9473 53.6572 51.9473ZM65.8721 51.9395C65.6607 51.9395 65.454 51.9726 65.2529 52.042C65.0519 52.1113 64.874 52.2118 64.7168 52.3428C64.5596 52.4738 64.4333 52.6282 64.3379 52.8105C64.2426 52.9929 64.1963 53.183 64.1963 53.4141C64.1963 53.6453 64.2405 53.8508 64.3281 54.0332C64.4158 54.2129 64.5345 54.3673 64.6865 54.4932C64.8385 54.6189 65.0163 54.7135 65.2197 54.7803C65.4234 54.8471 65.6401 54.8809 65.8721 54.8809H66.4824V51.9395H65.8721ZM2.4375 50.6143H1.80273V49.9824H2.4375V50.6143ZM3.51855 50.6143H2.88477V49.9824H3.51855V50.6143ZM40.5859 50.6143H39.9521V49.9824H40.5859V50.6143ZM41.668 50.6143H41.0332V49.9824H41.668V50.6143ZM66.0146 50.6143H65.3809V49.9824H66.0146V50.6143ZM67.0967 50.6143H66.4629V49.9824H67.0967V50.6143Z" fill="white"/>
</svg>
